<svg id="svg" version="1.1" xmlns="http://www.w3.org/2000/svg" xmlns:xlink="http://www.w3.org/1999/xlink" width="400" height="400" viewBox="0, 0, 400,400"><g id="svgg"><path id="path0" d="M58.643 86.331 C 58.088 87.229,58.923 88.400,60.118 88.400 C 61.537 88.400,64.000 89.212,64.000 89.680 C 64.000 89.856,64.469 90.000,65.042 90.000 C 65.615 90.000,66.619 90.450,67.273 91.000 C 67.927 91.550,68.802 92.000,69.218 92.000 C 70.268 92.000,74.552 96.299,75.197 98.000 C 75.489 98.770,75.879 99.571,76.064 99.780 C 76.249 99.989,76.400 100.538,76.400 101.000 C 76.400 101.462,76.619 102.059,76.886 102.326 C 78.039 103.479,78.124 110.180,78.128 199.800 C 78.132 289.895,78.057 295.703,76.879 296.881 C 76.615 297.145,76.400 297.686,76.400 298.084 C 76.400 300.504,70.905 307.588,69.012 307.609 C 68.565 307.614,67.750 307.970,67.200 308.400 C 66.650 308.830,65.891 309.186,65.514 309.191 C 65.137 309.196,64.022 309.650,63.037 310.200 C 62.052 310.750,60.696 311.200,60.023 311.200 C 59.065 311.200,58.800 311.374,58.800 312.003 C 58.800 313.139,106.896 313.082,107.115 311.946 C 107.205 311.478,106.866 311.232,105.920 311.080 C 104.118 310.791,101.600 309.871,101.600 309.502 C 101.600 309.336,101.335 309.200,101.012 309.200 C 100.689 309.200,99.783 308.840,99.000 308.400 C 98.217 307.960,97.303 307.600,96.971 307.600 C 96.098 307.600,92.580 304.189,91.677 302.467 C 91.254 301.660,90.524 300.320,90.054 299.488 C 89.410 298.348,89.200 297.295,89.200 295.211 C 89.200 293.691,89.020 292.336,88.800 292.200 C 88.535 292.036,88.400 263.129,88.400 206.776 C 88.400 114.613,88.296 118.950,90.404 123.300 C 90.857 124.235,91.568 125.540,91.985 126.200 C 92.401 126.860,92.755 127.951,92.771 128.625 C 92.787 129.298,93.160 130.236,93.600 130.708 C 94.040 131.180,94.406 131.889,94.412 132.283 C 94.419 132.677,94.868 133.720,95.410 134.600 C 95.952 135.480,96.397 136.599,96.398 137.086 C 96.399 137.573,96.879 138.833,97.464 139.886 C 98.049 140.939,98.679 142.115,98.864 142.500 C 99.049 142.885,99.380 143.558,99.600 143.995 C 99.820 144.432,100.000 145.298,100.000 145.919 C 100.000 146.541,100.360 147.436,100.800 147.908 C 101.240 148.380,101.602 149.089,101.605 149.483 C 101.607 149.877,102.057 150.983,102.605 151.941 C 103.152 152.898,103.600 153.926,103.600 154.224 C 103.600 154.523,104.410 156.341,105.400 158.265 C 106.390 160.189,107.200 162.069,107.200 162.443 C 107.200 162.817,108.010 164.659,109.000 166.536 C 109.990 168.412,110.800 170.386,110.800 170.921 C 110.800 171.456,111.610 173.482,112.600 175.422 C 113.590 177.362,114.400 179.191,114.400 179.486 C 114.400 180.095,117.052 185.600,117.625 186.180 C 117.831 186.389,118.000 186.969,118.000 187.468 C 118.000 187.967,118.360 189.017,118.800 189.800 C 119.240 190.583,119.600 191.498,119.600 191.833 C 119.600 192.168,120.050 193.105,120.600 193.914 C 121.150 194.723,121.600 195.787,121.600 196.277 C 121.600 196.766,122.410 198.741,123.400 200.665 C 124.390 202.589,125.200 204.481,125.200 204.870 C 125.200 205.258,125.560 206.217,126.000 207.000 C 126.440 207.783,126.800 208.708,126.800 209.054 C 126.800 209.401,127.250 210.219,127.800 210.873 C 128.350 211.527,128.800 212.569,128.800 213.190 C 128.800 213.811,129.340 215.345,130.000 216.600 C 130.660 217.855,131.200 219.111,131.200 219.392 C 131.200 219.672,131.470 220.126,131.800 220.400 C 132.130 220.674,132.400 221.214,132.400 221.601 C 132.400 222.352,133.966 225.825,135.195 227.800 C 135.605 228.460,135.955 229.675,135.971 230.500 C 135.987 231.325,136.180 232.000,136.400 232.000 C 136.620 232.000,136.800 232.264,136.800 232.586 C 136.800 233.169,138.582 236.656,139.249 237.380 C 139.442 237.589,139.600 238.121,139.600 238.562 C 139.600 239.002,140.410 241.028,141.400 243.063 C 142.390 245.098,143.200 246.946,143.200 247.170 C 143.200 247.393,143.560 248.217,144.000 249.000 C 144.440 249.783,144.800 250.647,144.800 250.919 C 144.800 251.192,145.250 252.077,145.800 252.886 C 146.403 253.773,146.800 254.922,146.800 255.779 C 146.800 256.560,146.980 257.200,147.200 257.200 C 147.420 257.200,147.603 257.425,147.607 257.700 C 147.612 257.975,148.242 259.437,149.007 260.948 C 149.773 262.460,150.400 263.918,150.400 264.188 C 150.400 264.459,151.207 266.282,152.194 268.240 C 153.181 270.198,153.991 272.267,153.994 272.838 C 153.997 273.409,154.360 274.202,154.800 274.600 C 155.240 274.998,155.600 275.750,155.600 276.270 C 155.600 276.790,156.050 277.929,156.600 278.800 C 157.150 279.671,157.603 280.703,157.606 281.092 C 157.609 281.481,158.419 283.402,159.406 285.360 C 160.393 287.318,161.200 289.405,161.200 289.998 C 161.200 290.591,161.560 291.402,162.000 291.800 C 162.440 292.198,162.800 292.866,162.800 293.285 C 162.800 293.704,163.250 294.852,163.800 295.837 C 164.350 296.822,164.800 297.875,164.800 298.176 C 164.800 298.478,165.160 299.461,165.600 300.362 C 166.040 301.263,166.760 302.737,167.200 303.638 C 167.640 304.539,168.000 305.483,168.000 305.737 C 168.000 305.991,168.757 307.692,169.683 309.517 L 171.365 312.836 173.379 312.718 C 175.035 312.621,175.415 312.458,175.518 311.800 C 175.587 311.360,175.975 310.280,176.380 309.400 C 176.785 308.520,177.410 307.133,177.769 306.317 C 178.128 305.501,178.597 304.726,178.811 304.593 C 179.025 304.461,179.200 303.934,179.200 303.422 C 179.200 302.910,180.010 300.930,181.000 299.022 C 181.990 297.113,182.800 295.130,182.800 294.614 C 182.800 294.098,183.151 292.984,183.581 292.138 C 184.917 289.506,186.000 287.066,186.000 286.686 C 186.000 286.487,186.900 284.485,188.000 282.238 C 189.100 279.991,190.004 277.804,190.009 277.377 C 190.014 276.949,190.370 276.150,190.800 275.600 C 191.230 275.050,191.592 274.330,191.604 274.000 C 191.615 273.670,192.068 272.680,192.610 271.800 C 193.152 270.920,193.597 269.812,193.598 269.338 C 193.599 268.864,193.951 267.784,194.381 266.938 C 195.859 264.026,196.800 261.849,196.800 261.339 C 196.800 261.058,197.607 259.239,198.593 257.298 C 199.579 255.358,200.507 253.146,200.655 252.385 C 200.803 251.623,201.256 250.571,201.662 250.046 C 202.068 249.521,202.400 248.844,202.400 248.541 C 202.400 248.237,202.580 247.632,202.800 247.195 C 203.020 246.758,203.380 246.042,203.600 245.605 C 203.820 245.168,204.000 244.535,204.000 244.197 C 204.000 243.860,204.450 242.871,205.000 242.000 C 205.550 241.129,206.000 240.142,206.000 239.808 C 206.000 239.474,206.180 239.200,206.400 239.200 C 206.620 239.200,206.800 238.851,206.800 238.424 C 206.800 237.997,206.980 237.536,207.200 237.400 C 207.420 237.264,207.600 236.776,207.600 236.316 C 207.600 235.547,208.492 233.394,210.439 229.462 C 210.857 228.616,211.200 227.500,211.200 226.982 C 211.200 226.464,211.425 225.896,211.701 225.720 C 211.976 225.544,212.447 224.860,212.747 224.200 C 213.048 223.540,213.452 222.687,213.647 222.305 C 213.841 221.923,214.000 221.338,214.000 221.005 C 214.000 220.672,214.180 220.400,214.400 220.400 C 214.620 220.400,214.800 219.946,214.800 219.392 C 214.800 218.838,215.216 217.713,215.724 216.892 C 217.029 214.786,218.249 212.038,218.601 210.413 C 218.766 209.650,219.038 208.750,219.205 208.413 C 221.342 204.094,222.000 202.568,222.000 201.936 C 222.000 201.522,222.411 200.513,222.912 199.692 C 224.228 197.540,225.443 194.849,225.957 192.947 C 226.203 192.039,226.673 191.072,227.002 190.798 C 227.331 190.525,227.600 190.088,227.600 189.826 C 227.600 189.564,227.960 188.605,228.400 187.694 C 228.840 186.784,229.203 185.715,229.206 185.319 C 229.209 184.924,230.019 182.998,231.006 181.040 C 231.993 179.082,232.800 177.082,232.800 176.596 C 232.800 176.110,233.250 175.049,233.800 174.238 C 234.350 173.428,234.800 172.485,234.800 172.144 C 234.800 171.803,235.134 171.046,235.542 170.462 C 235.950 169.878,236.408 168.885,236.560 168.256 C 236.847 167.074,237.907 164.540,239.237 161.862 C 239.656 161.016,240.000 160.112,240.000 159.852 C 240.000 159.592,240.810 157.778,241.800 155.822 C 242.842 153.763,243.600 151.714,243.600 150.956 C 243.600 150.236,243.793 149.528,244.029 149.382 C 244.544 149.064,247.200 143.335,247.200 142.542 C 247.200 142.235,247.650 141.271,248.200 140.400 C 248.750 139.529,249.200 138.542,249.200 138.208 C 249.200 137.874,249.380 137.600,249.600 137.600 C 249.820 137.600,250.000 137.251,250.000 136.824 C 250.000 136.397,250.180 135.936,250.400 135.800 C 250.620 135.664,250.800 135.194,250.800 134.756 C 250.800 134.318,251.610 132.399,252.600 130.492 C 253.643 128.483,254.400 126.481,254.400 125.735 C 254.400 125.027,254.564 124.346,254.765 124.221 C 255.246 123.925,257.200 119.991,257.200 119.321 C 257.200 119.035,257.380 118.800,257.600 118.800 C 257.820 118.800,258.000 118.386,258.000 117.880 C 258.000 116.762,258.700 115.987,259.449 116.274 C 260.307 116.603,260.271 295.489,259.413 296.624 C 259.090 297.051,258.820 297.794,258.813 298.276 C 258.806 298.758,258.620 299.264,258.400 299.400 C 258.180 299.536,258.000 300.160,258.000 300.787 C 258.000 301.874,257.554 302.493,253.931 306.436 C 253.331 307.089,252.448 307.600,251.919 307.600 C 251.401 307.600,250.717 307.960,250.400 308.400 C 250.083 308.840,249.598 309.200,249.323 309.200 C 249.048 309.200,247.805 309.650,246.562 310.200 C 245.318 310.750,243.603 311.200,242.750 311.200 C 241.243 311.200,240.487 312.312,241.549 312.968 C 242.052 313.279,325.713 313.285,326.523 312.974 C 328.047 312.390,327.303 311.200,325.414 311.200 C 323.624 311.200,322.839 310.932,318.000 308.670 C 315.667 307.580,311.200 303.924,311.200 303.106 C 311.200 302.929,310.750 302.071,310.200 301.200 C 309.650 300.329,309.200 299.342,309.200 299.008 C 309.200 298.674,309.020 298.400,308.800 298.400 C 308.245 298.400,308.245 102.143,308.800 101.800 C 309.020 101.664,309.200 101.231,309.200 100.838 C 309.200 99.534,311.082 96.391,313.112 94.304 C 314.447 92.931,317.860 90.998,321.600 89.495 C 322.150 89.274,322.960 88.943,323.400 88.759 C 323.840 88.575,324.830 88.374,325.600 88.312 C 326.797 88.216,327.018 88.040,327.127 87.100 L 327.253 86.000 293.214 86.000 C 261.145 86.000,259.162 86.041,258.958 86.700 C 258.839 87.085,258.575 87.713,258.371 88.095 C 258.167 88.477,257.999 89.287,257.999 89.895 C 257.998 90.503,257.638 91.589,257.199 92.310 C 256.759 93.030,256.400 93.904,256.400 94.252 C 256.400 94.600,255.950 95.419,255.400 96.073 C 254.760 96.834,254.400 97.754,254.400 98.631 C 254.400 99.384,254.220 100.000,254.000 100.000 C 253.780 100.000,253.600 100.324,253.600 100.720 C 253.600 101.116,253.442 101.611,253.249 101.820 C 252.387 102.755,250.800 106.120,250.800 107.014 C 250.800 107.556,250.620 108.000,250.400 108.000 C 250.180 108.000,250.000 108.226,250.000 108.501 C 250.000 108.777,249.370 110.301,248.600 111.889 C 247.830 113.476,247.196 115.185,247.191 115.687 C 247.186 116.189,246.830 117.050,246.400 117.600 C 245.970 118.150,245.614 118.815,245.609 119.079 C 245.604 119.342,245.150 120.404,244.600 121.438 C 244.050 122.473,243.600 123.535,243.600 123.798 C 243.600 124.062,243.341 124.800,243.025 125.439 C 242.708 126.077,242.255 127.050,242.019 127.600 C 241.782 128.150,241.244 129.140,240.823 129.800 C 240.403 130.460,240.045 131.450,240.028 132.000 C 240.011 132.550,239.638 133.589,239.199 134.310 C 238.759 135.030,238.400 135.805,238.400 136.031 C 238.400 136.257,237.950 137.105,237.400 137.914 C 236.850 138.723,236.400 139.860,236.400 140.440 C 236.400 141.020,235.590 143.082,234.600 145.022 C 233.610 146.962,232.800 148.790,232.800 149.083 C 232.800 149.376,232.073 151.153,231.185 153.031 C 230.298 154.909,229.460 157.020,229.323 157.723 C 229.187 158.425,228.744 159.429,228.338 159.954 C 227.932 160.479,227.600 161.135,227.600 161.413 C 227.600 161.691,227.152 162.702,226.605 163.659 C 226.057 164.617,225.607 165.675,225.605 166.010 C 225.602 166.346,225.066 167.696,224.413 169.010 C 223.759 170.325,223.219 171.603,223.213 171.851 C 223.206 172.099,222.930 172.526,222.600 172.800 C 222.270 173.074,222.000 173.692,222.000 174.174 C 222.000 174.656,221.640 175.795,221.200 176.706 C 220.760 177.616,220.400 178.544,220.400 178.766 C 220.400 178.989,219.950 179.978,219.400 180.963 C 218.850 181.948,218.396 183.079,218.391 183.477 C 218.386 183.875,218.030 184.650,217.600 185.200 C 217.170 185.750,216.814 186.429,216.809 186.708 C 216.804 186.987,216.350 187.929,215.800 188.800 C 215.250 189.671,214.800 190.742,214.800 191.180 C 214.800 191.618,214.440 192.617,214.000 193.400 C 213.560 194.183,213.200 195.089,213.200 195.412 C 213.200 195.735,213.020 196.000,212.800 196.000 C 212.580 196.000,212.394 196.315,212.387 196.700 C 212.380 197.085,212.110 197.749,211.787 198.176 C 211.464 198.604,211.200 199.448,211.200 200.053 C 211.200 200.658,211.020 201.264,210.800 201.400 C 210.580 201.536,210.400 201.997,210.400 202.424 C 210.400 202.851,210.220 203.200,210.000 203.200 C 209.780 203.200,209.600 203.474,209.600 203.808 C 209.600 204.142,209.150 205.129,208.600 206.000 C 208.050 206.871,207.600 207.930,207.600 208.354 C 207.600 208.777,206.790 210.698,205.800 212.622 C 204.810 214.546,203.996 216.498,203.991 216.960 C 203.986 217.422,203.630 218.250,203.200 218.800 C 202.770 219.350,202.413 220.070,202.407 220.400 C 202.402 220.730,202.038 221.589,201.599 222.310 C 201.159 223.030,200.800 224.119,200.800 224.730 C 200.800 225.340,200.631 226.011,200.424 226.220 C 199.586 227.068,196.800 233.173,196.800 234.163 C 196.800 234.784,196.524 235.331,196.136 235.480 C 195.275 235.810,193.605 233.774,193.602 232.389 C 193.601 231.834,192.790 229.778,191.800 227.822 C 190.810 225.866,189.998 223.980,189.995 223.633 C 189.993 223.285,189.543 222.217,188.995 221.259 C 188.448 220.302,188.000 219.275,188.000 218.977 C 188.000 218.679,187.550 217.772,187.000 216.962 C 186.450 216.151,185.996 215.018,185.991 214.444 C 185.986 213.870,185.630 212.950,185.200 212.400 C 184.770 211.850,184.414 211.173,184.409 210.895 C 184.404 210.617,184.192 209.987,183.938 209.495 C 182.984 207.649,182.800 207.197,182.800 206.695 C 182.800 206.411,181.990 204.578,181.000 202.622 C 180.010 200.666,179.200 198.569,179.200 197.963 C 179.200 197.357,178.750 196.327,178.200 195.673 C 177.650 195.019,177.200 194.201,177.200 193.854 C 177.200 193.508,176.840 192.583,176.400 191.800 C 175.960 191.017,175.600 190.018,175.600 189.580 C 175.600 189.142,175.150 188.071,174.600 187.200 C 174.050 186.329,173.600 185.342,173.600 185.008 C 173.600 184.674,173.420 184.400,173.200 184.400 C 172.980 184.400,172.800 184.051,172.800 183.624 C 172.800 183.197,172.620 182.736,172.400 182.600 C 172.180 182.464,172.000 181.983,172.000 181.531 C 172.000 181.078,171.190 179.210,170.200 177.379 C 169.210 175.548,168.400 173.591,168.400 173.030 C 168.400 172.470,167.770 170.824,167.000 169.373 C 166.230 167.921,165.600 166.479,165.600 166.167 C 165.600 165.855,165.420 165.600,165.200 165.600 C 164.980 165.600,164.800 165.146,164.800 164.592 C 164.800 164.038,164.384 162.913,163.876 162.092 C 162.558 159.964,161.200 156.929,161.198 156.104 C 161.197 155.717,160.752 154.680,160.210 153.800 C 159.668 152.920,159.219 151.823,159.212 151.362 C 159.206 150.901,158.840 150.198,158.400 149.800 C 157.960 149.402,157.601 148.609,157.603 148.038 C 157.604 147.467,156.814 145.380,155.847 143.400 C 154.879 141.420,153.858 139.032,153.578 138.094 C 153.298 137.156,152.828 136.189,152.534 135.945 C 152.240 135.702,151.999 135.119,151.997 134.651 C 151.996 134.183,151.637 133.260,151.200 132.600 C 150.763 131.940,150.404 130.983,150.403 130.473 C 150.401 129.964,149.950 128.957,149.400 128.236 C 148.850 127.514,148.400 126.632,148.400 126.274 C 148.400 125.917,148.040 124.983,147.600 124.200 C 147.160 123.417,146.800 122.499,146.800 122.162 C 146.800 121.824,145.990 120.012,145.000 118.136 C 144.010 116.259,143.200 114.181,143.200 113.519 C 143.200 112.819,142.782 111.819,142.200 111.127 C 141.650 110.473,141.200 109.674,141.200 109.350 C 141.200 109.026,140.840 108.016,140.400 107.106 C 139.960 106.195,139.600 105.254,139.600 105.014 C 139.600 104.775,138.790 102.978,137.800 101.022 C 136.810 99.066,136.000 97.141,136.000 96.745 C 136.000 96.349,135.614 95.344,135.142 94.512 C 133.266 91.207,132.400 89.237,132.400 88.275 C 132.400 85.814,135.425 86.000,95.381 86.000 C 75.287 86.000,58.755 86.149,58.643 86.331 M386.224 142.613 C 385.796 142.936,384.952 143.200,384.347 143.200 C 383.742 143.200,383.136 143.380,383.000 143.600 C 382.864 143.820,382.371 144.000,381.905 144.000 C 381.004 144.000,378.661 144.665,377.505 145.249 C 377.123 145.442,376.355 145.600,375.797 145.600 C 375.240 145.600,374.071 146.050,373.200 146.600 C 372.329 147.150,371.438 147.600,371.220 147.600 C 371.002 147.600,370.183 147.960,369.400 148.400 C 368.617 148.840,367.695 149.200,367.351 149.200 C 367.008 149.200,366.003 149.820,365.118 150.577 C 364.233 151.335,362.764 152.308,361.854 152.741 C 360.945 153.173,359.580 154.173,358.822 154.963 C 358.063 155.754,357.245 156.400,357.003 156.400 C 356.761 156.400,355.851 157.137,354.981 158.038 C 354.112 158.938,352.995 159.834,352.500 160.028 C 352.005 160.222,351.596 160.610,351.591 160.890 C 351.587 161.171,350.936 161.940,350.146 162.600 C 349.357 163.260,348.505 164.042,348.255 164.338 C 348.005 164.634,347.035 165.733,346.100 166.780 C 345.165 167.826,344.400 168.858,344.400 169.072 C 344.400 169.286,343.950 169.883,343.400 170.400 C 342.850 170.917,342.400 171.550,342.400 171.808 C 342.400 172.065,342.040 172.602,341.600 173.000 C 341.160 173.398,340.800 173.942,340.800 174.208 C 340.800 174.474,340.405 175.194,339.923 175.807 C 338.579 177.516,333.600 187.666,333.600 188.698 C 333.600 189.609,333.498 189.879,332.257 192.262 C 331.896 192.956,331.600 193.805,331.600 194.150 C 331.600 194.494,331.240 195.417,330.800 196.200 C 330.357 196.988,330.000 198.366,330.000 199.284 C 330.000 200.956,329.568 202.696,328.552 205.114 C 328.248 205.836,328.000 207.130,328.000 207.990 C 328.000 208.850,327.820 209.664,327.600 209.800 C 327.380 209.936,327.200 210.926,327.200 212.000 C 327.200 213.074,327.020 214.064,326.800 214.200 C 326.544 214.358,326.400 220.130,326.400 230.200 C 326.400 240.270,326.544 246.042,326.800 246.200 C 327.020 246.336,327.200 247.607,327.200 249.024 C 327.200 250.475,327.375 251.600,327.600 251.600 C 327.820 251.600,328.000 252.242,328.000 253.026 C 328.000 253.811,328.212 254.846,328.470 255.326 C 329.061 256.426,329.584 258.712,329.950 261.800 C 330.106 263.120,330.542 264.776,330.917 265.480 C 331.293 266.184,331.600 267.107,331.600 267.531 C 331.600 267.955,331.870 268.526,332.200 268.800 C 332.530 269.074,332.800 269.625,332.800 270.025 C 332.800 270.425,332.980 270.864,333.200 271.000 C 333.420 271.136,333.600 271.734,333.600 272.330 C 333.600 273.560,335.664 278.023,336.588 278.790 C 336.925 279.069,337.213 279.681,337.229 280.149 C 337.245 280.617,337.603 281.540,338.025 282.200 C 338.446 282.860,339.096 283.985,339.469 284.700 C 339.843 285.415,340.295 286.000,340.474 286.000 C 340.653 286.000,340.804 286.315,340.810 286.700 C 340.815 287.085,341.490 288.280,342.310 289.356 C 343.129 290.432,344.000 291.654,344.244 292.071 C 344.934 293.249,355.715 304.000,356.206 304.000 C 356.446 304.000,357.263 304.646,358.022 305.435 C 358.780 306.224,360.030 307.216,360.800 307.639 C 362.576 308.615,363.744 309.339,364.000 309.621 C 364.110 309.743,365.190 310.258,366.400 310.767 C 367.610 311.276,368.824 311.872,369.097 312.093 C 370.316 313.075,374.595 314.800,375.812 314.800 C 376.550 314.800,377.264 314.980,377.400 315.200 C 377.536 315.420,378.166 315.600,378.800 315.600 C 379.434 315.600,380.064 315.780,380.200 316.000 C 380.336 316.220,381.146 316.400,382.000 316.400 C 382.854 316.400,383.664 316.580,383.800 316.800 C 383.936 317.020,384.924 317.200,385.997 317.200 C 387.595 317.200,387.992 317.344,388.200 318.000 C 388.438 318.751,388.805 318.800,394.227 318.800 L 400.000 318.800 400.000 298.795 L 400.000 278.790 397.900 277.469 C 396.745 276.742,395.160 275.853,394.378 275.492 C 393.596 275.132,392.510 274.423,391.964 273.918 C 390.596 272.653,388.932 271.600,388.302 271.600 C 388.012 271.600,387.572 271.062,387.324 270.404 C 387.076 269.746,386.451 269.046,385.936 268.848 C 384.702 268.374,382.000 265.719,382.000 264.981 C 382.000 264.661,381.724 264.400,381.387 264.400 C 381.051 264.400,380.665 264.085,380.530 263.700 C 380.395 263.315,379.786 262.460,379.177 261.800 C 378.568 261.140,377.687 259.857,377.220 258.948 C 376.752 258.040,376.016 256.977,375.585 256.586 C 375.153 256.196,374.800 255.707,374.800 255.501 C 374.800 255.295,374.440 254.669,374.000 254.109 C 373.560 253.550,373.200 252.753,373.200 252.338 C 373.200 251.923,372.750 250.871,372.200 250.000 C 371.650 249.129,371.200 248.238,371.200 248.020 C 371.200 247.802,370.840 246.983,370.400 246.200 C 369.960 245.417,369.600 244.131,369.600 243.342 C 369.600 242.553,369.163 241.074,368.630 240.054 C 367.681 238.242,367.360 237.044,366.955 233.800 C 366.845 232.920,366.580 231.840,366.366 231.400 C 366.143 230.940,366.025 227.281,366.089 222.800 L 366.200 215.000 383.100 214.896 L 400.000 214.791 400.000 210.800 L 400.000 206.809 383.500 206.704 L 367.000 206.600 367.068 202.400 C 367.156 197.008,367.675 192.275,368.257 191.561 C 368.508 191.252,368.827 190.100,368.964 189.000 C 369.845 181.959,370.347 179.280,370.846 178.971 C 371.041 178.851,371.200 178.413,371.200 177.998 C 371.200 177.582,371.650 176.396,372.200 175.362 C 372.750 174.327,373.200 173.082,373.200 172.594 C 373.200 172.107,373.560 171.250,374.000 170.691 C 374.440 170.131,374.800 169.458,374.800 169.195 C 374.800 168.931,375.250 168.181,375.800 167.527 C 376.350 166.873,376.800 166.020,376.800 165.631 C 376.800 165.242,377.160 164.598,377.600 164.200 C 378.040 163.802,378.400 163.262,378.400 163.000 C 378.400 162.738,378.758 162.200,379.195 161.804 C 379.633 161.408,380.557 160.203,381.248 159.125 C 381.939 158.048,383.066 156.884,383.753 156.538 C 384.439 156.193,385.577 155.363,386.283 154.693 C 387.510 153.529,392.683 151.205,394.054 151.201 C 394.414 151.201,395.224 150.931,395.854 150.602 C 396.484 150.274,397.675 150.004,398.500 150.002 L 400.000 150.000 400.000 146.000 L 400.000 142.000 393.500 142.013 C 388.419 142.023,386.830 142.154,386.224 142.613 " stroke="none" fill="#060606" fill-rule="evenodd"></path><path id="path1" d="M49.600 12.400 L 49.600 24.800 37.200 24.800 L 24.800 24.800 24.800 37.200 L 24.800 49.600 12.400 49.600 L 0.000 49.600 0.000 200.000 L 0.000 350.400 12.400 350.400 L 24.800 350.400 24.800 362.800 L 24.800 375.200 37.200 375.200 L 49.600 375.200 49.600 387.600 L 49.600 400.000 200.000 400.000 L 350.400 400.000 350.400 387.600 L 350.400 375.200 362.800 375.200 L 375.200 375.200 375.200 362.800 L 375.200 350.400 387.600 350.400 L 400.000 350.400 400.000 334.600 L 400.000 318.800 394.227 318.800 C 388.805 318.800,388.438 318.751,388.200 318.000 C 387.992 317.344,387.595 317.200,385.997 317.200 C 384.924 317.200,383.936 317.020,383.800 316.800 C 383.664 316.580,382.854 316.400,382.000 316.400 C 381.146 316.400,380.336 316.220,380.200 316.000 C 380.064 315.780,379.434 315.600,378.800 315.600 C 378.166 315.600,377.536 315.420,377.400 315.200 C 377.264 314.980,376.550 314.800,375.812 314.800 C 374.595 314.800,370.316 313.075,369.097 312.093 C 368.824 311.872,367.610 311.276,366.400 310.767 C 365.190 310.258,364.110 309.743,364.000 309.621 C 363.744 309.339,362.576 308.615,360.800 307.639 C 360.030 307.216,358.780 306.224,358.022 305.435 C 357.263 304.646,356.446 304.000,356.206 304.000 C 355.715 304.000,344.934 293.249,344.244 292.071 C 344.000 291.654,343.129 290.432,342.310 289.356 C 341.490 288.280,340.815 287.085,340.810 286.700 C 340.804 286.315,340.653 286.000,340.474 286.000 C 340.295 286.000,339.843 285.415,339.469 284.700 C 339.096 283.985,338.446 282.860,338.025 282.200 C 337.603 281.540,337.245 280.617,337.229 280.149 C 337.213 279.681,336.925 279.069,336.588 278.790 C 335.664 278.023,333.600 273.560,333.600 272.330 C 333.600 271.734,333.420 271.136,333.200 271.000 C 332.980 270.864,332.800 270.425,332.800 270.025 C 332.800 269.625,332.530 269.074,332.200 268.800 C 331.870 268.526,331.600 267.955,331.600 267.531 C 331.600 267.107,331.293 266.184,330.917 265.480 C 330.542 264.776,330.106 263.120,329.950 261.800 C 329.584 258.712,329.061 256.426,328.470 255.326 C 328.212 254.846,328.000 253.811,328.000 253.026 C 328.000 252.242,327.820 251.600,327.600 251.600 C 327.375 251.600,327.200 250.475,327.200 249.024 C 327.200 247.607,327.020 246.336,326.800 246.200 C 326.544 246.042,326.400 240.270,326.400 230.200 C 326.400 220.130,326.544 214.358,326.800 214.200 C 327.020 214.064,327.200 213.074,327.200 212.000 C 327.200 210.926,327.380 209.936,327.600 209.800 C 327.820 209.664,328.000 208.850,328.000 207.990 C 328.000 207.130,328.248 205.836,328.552 205.114 C 329.568 202.696,330.000 200.956,330.000 199.284 C 330.000 198.366,330.357 196.988,330.800 196.200 C 331.240 195.417,331.600 194.494,331.600 194.150 C 331.600 193.805,331.896 192.956,332.257 192.262 C 333.498 189.879,333.600 189.609,333.600 188.698 C 333.600 187.666,338.579 177.516,339.923 175.807 C 340.405 175.194,340.800 174.474,340.800 174.208 C 340.800 173.942,341.160 173.398,341.600 173.000 C 342.040 172.602,342.400 172.065,342.400 171.808 C 342.400 171.550,342.850 170.917,343.400 170.400 C 343.950 169.883,344.400 169.286,344.400 169.072 C 344.400 168.858,345.165 167.826,346.100 166.780 C 347.035 165.733,348.005 164.634,348.255 164.338 C 348.505 164.042,349.357 163.260,350.146 162.600 C 350.936 161.940,351.587 161.171,351.591 160.890 C 351.596 160.610,352.005 160.222,352.500 160.028 C 352.995 159.834,354.112 158.938,354.981 158.038 C 355.851 157.137,356.761 156.400,357.003 156.400 C 357.245 156.400,358.063 155.754,358.822 154.963 C 359.580 154.173,360.945 153.173,361.854 152.741 C 362.764 152.308,364.233 151.335,365.118 150.577 C 366.003 149.820,367.008 149.200,367.351 149.200 C 367.695 149.200,368.617 148.840,369.400 148.400 C 370.183 147.960,371.002 147.600,371.220 147.600 C 371.438 147.600,372.329 147.150,373.200 146.600 C 374.071 146.050,375.240 145.600,375.797 145.600 C 376.355 145.600,377.123 145.442,377.505 145.249 C 378.661 144.665,381.004 144.000,381.905 144.000 C 382.371 144.000,382.864 143.820,383.000 143.600 C 383.136 143.380,383.742 143.200,384.347 143.200 C 384.952 143.200,385.796 142.936,386.224 142.613 C 386.830 142.154,388.419 142.023,393.500 142.013 L 400.000 142.000 400.000 95.800 L 400.000 49.600 387.600 49.600 L 375.200 49.600 375.200 37.200 L 375.200 24.800 362.800 24.800 L 350.400 24.800 350.400 12.400 L 350.400 0.000 200.000 0.000 L 49.600 0.000 49.600 12.400 M132.157 86.633 C 132.291 86.981,132.400 87.720,132.400 88.275 C 132.400 89.237,133.266 91.207,135.142 94.512 C 135.614 95.344,136.000 96.349,136.000 96.745 C 136.000 97.141,136.810 99.066,137.800 101.022 C 138.790 102.978,139.600 104.775,139.600 105.014 C 139.600 105.254,139.960 106.195,140.400 107.106 C 140.840 108.016,141.200 109.026,141.200 109.350 C 141.200 109.674,141.650 110.473,142.200 111.127 C 142.782 111.819,143.200 112.819,143.200 113.519 C 143.200 114.181,144.010 116.259,145.000 118.136 C 145.990 120.012,146.800 121.824,146.800 122.162 C 146.800 122.499,147.160 123.417,147.600 124.200 C 148.040 124.983,148.400 125.917,148.400 126.274 C 148.400 126.632,148.850 127.514,149.400 128.236 C 149.950 128.957,150.401 129.964,150.403 130.473 C 150.404 130.983,150.763 131.940,151.200 132.600 C 151.637 133.260,151.996 134.183,151.997 134.651 C 151.999 135.119,152.240 135.702,152.534 135.945 C 152.828 136.189,153.298 137.156,153.578 138.094 C 153.858 139.032,154.879 141.420,155.847 143.400 C 156.814 145.380,157.604 147.467,157.603 148.038 C 157.601 148.609,157.960 149.402,158.400 149.800 C 158.840 150.198,159.206 150.901,159.212 151.362 C 159.219 151.823,159.668 152.920,160.210 153.800 C 160.752 154.680,161.197 155.717,161.198 156.104 C 161.200 156.929,162.558 159.964,163.876 162.092 C 164.384 162.913,164.800 164.038,164.800 164.592 C 164.800 165.146,164.980 165.600,165.200 165.600 C 165.420 165.600,165.600 165.855,165.600 166.167 C 165.600 166.479,166.230 167.921,167.000 169.373 C 167.770 170.824,168.400 172.470,168.400 173.030 C 168.400 173.591,169.210 175.548,170.200 177.379 C 171.190 179.210,172.000 181.078,172.000 181.531 C 172.000 181.983,172.180 182.464,172.400 182.600 C 172.620 182.736,172.800 183.197,172.800 183.624 C 172.800 184.051,172.980 184.400,173.200 184.400 C 173.420 184.400,173.600 184.674,173.600 185.008 C 173.600 185.342,174.050 186.329,174.600 187.200 C 175.150 188.071,175.600 189.142,175.600 189.580 C 175.600 190.018,175.960 191.017,176.400 191.800 C 176.840 192.583,177.200 193.508,177.200 193.854 C 177.200 194.201,177.650 195.019,178.200 195.673 C 178.750 196.327,179.200 197.357,179.200 197.963 C 179.200 198.569,180.010 200.666,181.000 202.622 C 181.990 204.578,182.800 206.411,182.800 206.695 C 182.800 207.197,182.984 207.649,183.938 209.495 C 184.192 209.987,184.404 210.617,184.409 210.895 C 184.414 211.173,184.770 211.850,185.200 212.400 C 185.630 212.950,185.986 213.870,185.991 214.444 C 185.996 215.018,186.450 216.151,187.000 216.962 C 187.550 217.772,188.000 218.679,188.000 218.977 C 188.000 219.275,188.448 220.302,188.995 221.259 C 189.543 222.217,189.993 223.285,189.995 223.633 C 189.998 223.980,190.810 225.866,191.800 227.822 C 192.790 229.778,193.601 231.834,193.602 232.389 C 193.605 233.774,195.275 235.810,196.136 235.480 C 196.524 235.331,196.800 234.784,196.800 234.163 C 196.800 233.173,199.586 227.068,200.424 226.220 C 200.631 226.011,200.800 225.340,200.800 224.730 C 200.800 224.119,201.159 223.030,201.599 222.310 C 202.038 221.589,202.402 220.730,202.407 220.400 C 202.413 220.070,202.770 219.350,203.200 218.800 C 203.630 218.250,203.986 217.422,203.991 216.960 C 203.996 216.498,204.810 214.546,205.800 212.622 C 206.790 210.698,207.600 208.777,207.600 208.354 C 207.600 207.930,208.050 206.871,208.600 206.000 C 209.150 205.129,209.600 204.142,209.600 203.808 C 209.600 203.474,209.780 203.200,210.000 203.200 C 210.220 203.200,210.400 202.851,210.400 202.424 C 210.400 201.997,210.580 201.536,210.800 201.400 C 211.020 201.264,211.200 200.658,211.200 200.053 C 211.200 199.448,211.464 198.604,211.787 198.176 C 212.110 197.749,212.380 197.085,212.387 196.700 C 212.394 196.315,212.580 196.000,212.800 196.000 C 213.020 196.000,213.200 195.735,213.200 195.412 C 213.200 195.089,213.560 194.183,214.000 193.400 C 214.440 192.617,214.800 191.618,214.800 191.180 C 214.800 190.742,215.250 189.671,215.800 188.800 C 216.350 187.929,216.804 186.987,216.809 186.708 C 216.814 186.429,217.170 185.750,217.600 185.200 C 218.030 184.650,218.386 183.875,218.391 183.477 C 218.396 183.079,218.850 181.948,219.400 180.963 C 219.950 179.978,220.400 178.989,220.400 178.766 C 220.400 178.544,220.760 177.616,221.200 176.706 C 221.640 175.795,222.000 174.656,222.000 174.174 C 222.000 173.692,222.270 173.074,222.600 172.800 C 222.930 172.526,223.206 172.099,223.213 171.851 C 223.219 171.603,223.759 170.325,224.413 169.010 C 225.066 167.696,225.602 166.346,225.605 166.010 C 225.607 165.675,226.057 164.617,226.605 163.659 C 227.152 162.702,227.600 161.691,227.600 161.413 C 227.600 161.135,227.932 160.479,228.338 159.954 C 228.744 159.429,229.187 158.425,229.323 157.723 C 229.460 157.020,230.298 154.909,231.185 153.031 C 232.073 151.153,232.800 149.376,232.800 149.083 C 232.800 148.790,233.610 146.962,234.600 145.022 C 235.590 143.082,236.400 141.020,236.400 140.440 C 236.400 139.860,236.850 138.723,237.400 137.914 C 237.950 137.105,238.400 136.257,238.400 136.031 C 238.400 135.805,238.759 135.030,239.199 134.310 C 239.638 133.589,240.011 132.550,240.028 132.000 C 240.045 131.450,240.403 130.460,240.823 129.800 C 241.244 129.140,241.782 128.150,242.019 127.600 C 242.255 127.050,242.708 126.077,243.025 125.439 C 243.341 124.800,243.600 124.062,243.600 123.798 C 243.600 123.535,244.050 122.473,244.600 121.438 C 245.150 120.404,245.604 119.342,245.609 119.079 C 245.614 118.815,245.970 118.150,246.400 117.600 C 246.830 117.050,247.186 116.189,247.191 115.687 C 247.196 115.185,247.830 113.476,248.600 111.889 C 249.370 110.301,250.000 108.777,250.000 108.501 C 250.000 108.226,250.180 108.000,250.400 108.000 C 250.620 108.000,250.800 107.556,250.800 107.014 C 250.800 106.120,252.387 102.755,253.249 101.820 C 253.442 101.611,253.600 101.116,253.600 100.720 C 253.600 100.324,253.780 100.000,254.000 100.000 C 254.220 100.000,254.400 99.384,254.400 98.631 C 254.400 97.754,254.760 96.834,255.400 96.073 C 255.950 95.419,256.400 94.600,256.400 94.252 C 256.400 93.904,256.759 93.030,257.199 92.310 C 257.638 91.589,257.998 90.503,257.999 89.895 C 257.999 89.287,258.167 88.477,258.371 88.095 C 258.575 87.713,258.839 87.085,258.958 86.700 C 259.162 86.041,261.145 86.000,293.214 86.000 L 327.253 86.000 327.127 87.100 C 327.018 88.040,326.797 88.216,325.600 88.312 C 324.830 88.374,323.840 88.575,323.400 88.759 C 322.960 88.943,322.150 89.274,321.600 89.495 C 317.860 90.998,314.447 92.931,313.112 94.304 C 311.082 96.391,309.200 99.534,309.200 100.838 C 309.200 101.231,309.020 101.664,308.800 101.800 C 308.245 102.143,308.245 298.400,308.800 298.400 C 309.020 298.400,309.200 298.674,309.200 299.008 C 309.200 299.342,309.650 300.329,310.200 301.200 C 310.750 302.071,311.200 302.929,311.200 303.106 C 311.200 303.924,315.667 307.580,318.000 308.670 C 322.839 310.932,323.624 311.200,325.414 311.200 C 327.303 311.200,328.047 312.390,326.523 312.974 C 325.713 313.285,242.052 313.279,241.549 312.968 C 240.487 312.312,241.243 311.200,242.750 311.200 C 243.603 311.200,245.318 310.750,246.562 310.200 C 247.805 309.650,249.048 309.200,249.323 309.200 C 249.598 309.200,250.083 308.840,250.400 308.400 C 250.717 307.960,251.401 307.600,251.919 307.600 C 252.448 307.600,253.331 307.089,253.931 306.436 C 257.554 302.493,258.000 301.874,258.000 300.787 C 258.000 300.160,258.180 299.536,258.400 299.400 C 258.620 299.264,258.806 298.758,258.813 298.276 C 258.820 297.794,259.090 297.051,259.413 296.624 C 260.271 295.489,260.307 116.603,259.449 116.274 C 258.700 115.987,258.000 116.762,258.000 117.880 C 258.000 118.386,257.820 118.800,257.600 118.800 C 257.380 118.800,257.200 119.035,257.200 119.321 C 257.200 119.991,255.246 123.925,254.765 124.221 C 254.564 124.346,254.400 125.027,254.400 125.735 C 254.400 126.481,253.643 128.483,252.600 130.492 C 251.610 132.399,250.800 134.318,250.800 134.756 C 250.800 135.194,250.620 135.664,250.400 135.800 C 250.180 135.936,250.000 136.397,250.000 136.824 C 250.000 137.251,249.820 137.600,249.600 137.600 C 249.380 137.600,249.200 137.874,249.200 138.208 C 249.200 138.542,248.750 139.529,248.200 140.400 C 247.650 141.271,247.200 142.235,247.200 142.542 C 247.200 143.335,244.544 149.064,244.029 149.382 C 243.793 149.528,243.600 150.236,243.600 150.956 C 243.600 151.714,242.842 153.763,241.800 155.822 C 240.810 157.778,240.000 159.592,240.000 159.852 C 240.000 160.112,239.656 161.016,239.237 161.862 C 237.907 164.540,236.847 167.074,236.560 168.256 C 236.408 168.885,235.950 169.878,235.542 170.462 C 235.134 171.046,234.800 171.803,234.800 172.144 C 234.800 172.485,234.350 173.428,233.800 174.238 C 233.250 175.049,232.800 176.110,232.800 176.596 C 232.800 177.082,231.993 179.082,231.006 181.040 C 230.019 182.998,229.209 184.924,229.206 185.319 C 229.203 185.715,228.840 186.784,228.400 187.694 C 227.960 188.605,227.600 189.564,227.600 189.826 C 227.600 190.088,227.331 190.525,227.002 190.798 C 226.673 191.072,226.203 192.039,225.957 192.947 C 225.443 194.849,224.228 197.540,222.912 199.692 C 222.411 200.513,222.000 201.522,222.000 201.936 C 222.000 202.568,221.342 204.094,219.205 208.413 C 219.038 208.750,218.766 209.650,218.601 210.413 C 218.249 212.038,217.029 214.786,215.724 216.892 C 215.216 217.713,214.800 218.838,214.800 219.392 C 214.800 219.946,214.620 220.400,214.400 220.400 C 214.180 220.400,214.000 220.672,214.000 221.005 C 214.000 221.338,213.841 221.923,213.647 222.305 C 213.452 222.687,213.048 223.540,212.747 224.200 C 212.447 224.860,211.976 225.544,211.701 225.720 C 211.425 225.896,211.200 226.464,211.200 226.982 C 211.200 227.500,210.857 228.616,210.439 229.462 C 208.492 233.394,207.600 235.547,207.600 236.316 C 207.600 236.776,207.420 237.264,207.200 237.400 C 206.980 237.536,206.800 237.997,206.800 238.424 C 206.800 238.851,206.620 239.200,206.400 239.200 C 206.180 239.200,206.000 239.474,206.000 239.808 C 206.000 240.142,205.550 241.129,205.000 242.000 C 204.450 242.871,204.000 243.860,204.000 244.197 C 204.000 244.535,203.820 245.168,203.600 245.605 C 203.380 246.042,203.020 246.758,202.800 247.195 C 202.580 247.632,202.400 248.237,202.400 248.541 C 202.400 248.844,202.068 249.521,201.662 250.046 C 201.256 250.571,200.803 251.623,200.655 252.385 C 200.507 253.146,199.579 255.358,198.593 257.298 C 197.607 259.239,196.800 261.058,196.800 261.339 C 196.800 261.849,195.859 264.026,194.381 266.938 C 193.951 267.784,193.599 268.864,193.598 269.338 C 193.597 269.812,193.152 270.920,192.610 271.800 C 192.068 272.680,191.615 273.670,191.604 274.000 C 191.592 274.330,191.230 275.050,190.800 275.600 C 190.370 276.150,190.014 276.949,190.009 277.377 C 190.004 277.804,189.100 279.991,188.000 282.238 C 186.900 284.485,186.000 286.487,186.000 286.686 C 186.000 287.066,184.917 289.506,183.581 292.138 C 183.151 292.984,182.800 294.098,182.800 294.614 C 182.800 295.130,181.990 297.113,181.000 299.022 C 180.010 300.930,179.200 302.910,179.200 303.422 C 179.200 303.934,179.025 304.461,178.811 304.593 C 178.597 304.726,178.128 305.501,177.769 306.317 C 177.410 307.133,176.785 308.520,176.380 309.400 C 175.975 310.280,175.587 311.360,175.518 311.800 C 175.415 312.458,175.035 312.621,173.379 312.718 L 171.365 312.836 169.683 309.517 C 168.757 307.692,168.000 305.991,168.000 305.737 C 168.000 305.483,167.640 304.539,167.200 303.638 C 166.760 302.737,166.040 301.263,165.600 300.362 C 165.160 299.461,164.800 298.478,164.800 298.176 C 164.800 297.875,164.350 296.822,163.800 295.837 C 163.250 294.852,162.800 293.704,162.800 293.285 C 162.800 292.866,162.440 292.198,162.000 291.800 C 161.560 291.402,161.200 290.591,161.200 289.998 C 161.200 289.405,160.393 287.318,159.406 285.360 C 158.419 283.402,157.609 281.481,157.606 281.092 C 157.603 280.703,157.150 279.671,156.600 278.800 C 156.050 277.929,155.600 276.790,155.600 276.270 C 155.600 275.750,155.240 274.998,154.800 274.600 C 154.360 274.202,153.997 273.409,153.994 272.838 C 153.991 272.267,153.181 270.198,152.194 268.240 C 151.207 266.282,150.400 264.459,150.400 264.188 C 150.400 263.918,149.773 262.460,149.007 260.948 C 148.242 259.437,147.612 257.975,147.607 257.700 C 147.603 257.425,147.420 257.200,147.200 257.200 C 146.980 257.200,146.800 256.560,146.800 255.779 C 146.800 254.922,146.403 253.773,145.800 252.886 C 145.250 252.077,144.800 251.192,144.800 250.919 C 144.800 250.647,144.440 249.783,144.000 249.000 C 143.560 248.217,143.200 247.393,143.200 247.170 C 143.200 246.946,142.390 245.098,141.400 243.063 C 140.410 241.028,139.600 239.002,139.600 238.562 C 139.600 238.121,139.442 237.589,139.249 237.380 C 138.582 236.656,136.800 233.169,136.800 232.586 C 136.800 232.264,136.620 232.000,136.400 232.000 C 136.180 232.000,135.987 231.325,135.971 230.500 C 135.955 229.675,135.605 228.460,135.195 227.800 C 133.966 225.825,132.400 222.352,132.400 221.601 C 132.400 221.214,132.130 220.674,131.800 220.400 C 131.470 220.126,131.200 219.672,131.200 219.392 C 131.200 219.111,130.660 217.855,130.000 216.600 C 129.340 215.345,128.800 213.811,128.800 213.190 C 128.800 212.569,128.350 211.527,127.800 210.873 C 127.250 210.219,126.800 209.401,126.800 209.054 C 126.800 208.708,126.440 207.783,126.000 207.000 C 125.560 206.217,125.200 205.258,125.200 204.870 C 125.200 204.481,124.390 202.589,123.400 200.665 C 122.410 198.741,121.600 196.766,121.600 196.277 C 121.600 195.787,121.150 194.723,120.600 193.914 C 120.050 193.105,119.600 192.168,119.600 191.833 C 119.600 191.498,119.240 190.583,118.800 189.800 C 118.360 189.017,118.000 187.967,118.000 187.468 C 118.000 186.969,117.831 186.389,117.625 186.180 C 117.052 185.600,114.400 180.095,114.400 179.486 C 114.400 179.191,113.590 177.362,112.600 175.422 C 111.610 173.482,110.800 171.456,110.800 170.921 C 110.800 170.386,109.990 168.412,109.000 166.536 C 108.010 164.659,107.200 162.817,107.200 162.443 C 107.200 162.069,106.390 160.189,105.400 158.265 C 104.410 156.341,103.600 154.523,103.600 154.224 C 103.600 153.926,103.152 152.898,102.605 151.941 C 102.057 150.983,101.607 149.877,101.605 149.483 C 101.602 149.089,101.240 148.380,100.800 147.908 C 100.360 147.436,100.000 146.541,100.000 145.919 C 100.000 145.298,99.820 144.432,99.600 143.995 C 99.380 143.558,99.049 142.885,98.864 142.500 C 98.679 142.115,98.049 140.939,97.464 139.886 C 96.879 138.833,96.399 137.573,96.398 137.086 C 96.397 136.599,95.952 135.480,95.410 134.600 C 94.868 133.720,94.419 132.677,94.412 132.283 C 94.406 131.889,94.040 131.180,93.600 130.708 C 93.160 130.236,92.787 129.298,92.771 128.625 C 92.755 127.951,92.401 126.860,91.985 126.200 C 91.568 125.540,90.857 124.235,90.404 123.300 C 88.296 118.950,88.400 114.613,88.400 206.776 C 88.400 263.129,88.535 292.036,88.800 292.200 C 89.020 292.336,89.200 293.691,89.200 295.211 C 89.200 297.295,89.410 298.348,90.054 299.488 C 90.524 300.320,91.254 301.660,91.677 302.467 C 92.580 304.189,96.098 307.600,96.971 307.600 C 97.303 307.600,98.217 307.960,99.000 308.400 C 99.783 308.840,100.689 309.200,101.012 309.200 C 101.335 309.200,101.600 309.336,101.600 309.502 C 101.600 309.871,104.118 310.791,105.920 311.080 C 106.866 311.232,107.205 311.478,107.115 311.946 C 106.896 313.082,58.800 313.139,58.800 312.003 C 58.800 311.374,59.065 311.200,60.023 311.200 C 60.696 311.200,62.052 310.750,63.037 310.200 C 64.022 309.650,65.137 309.196,65.514 309.191 C 65.891 309.186,66.650 308.830,67.200 308.400 C 67.750 307.970,68.565 307.614,69.012 307.609 C 70.905 307.588,76.400 300.504,76.400 298.084 C 76.400 297.686,76.615 297.145,76.879 296.881 C 78.057 295.703,78.132 289.895,78.128 199.800 C 78.124 110.180,78.039 103.479,76.886 102.326 C 76.619 102.059,76.400 101.462,76.400 101.000 C 76.400 100.538,76.249 99.989,76.064 99.780 C 75.879 99.571,75.489 98.770,75.197 98.000 C 74.552 96.299,70.268 92.000,69.218 92.000 C 68.802 92.000,67.927 91.550,67.273 91.000 C 66.619 90.450,65.615 90.000,65.042 90.000 C 64.469 90.000,64.000 89.856,64.000 89.680 C 64.000 89.212,61.537 88.400,60.118 88.400 C 58.923 88.400,58.088 87.229,58.643 86.331 C 59.075 85.632,131.888 85.931,132.157 86.633 M395.854 150.602 C 395.224 150.931,394.414 151.201,394.054 151.201 C 392.683 151.205,387.510 153.529,386.283 154.693 C 385.577 155.363,384.439 156.193,383.753 156.538 C 383.066 156.884,381.939 158.048,381.248 159.125 C 380.557 160.203,379.633 161.408,379.195 161.804 C 378.758 162.200,378.400 162.738,378.400 163.000 C 378.400 163.262,378.040 163.802,377.600 164.200 C 377.160 164.598,376.800 165.242,376.800 165.631 C 376.800 166.020,376.350 166.873,375.800 167.527 C 375.250 168.181,374.800 168.931,374.800 169.195 C 374.800 169.458,374.440 170.131,374.000 170.691 C 373.560 171.250,373.200 172.107,373.200 172.594 C 373.200 173.082,372.750 174.327,372.200 175.362 C 371.650 176.396,371.200 177.582,371.200 177.998 C 371.200 178.413,371.041 178.851,370.846 178.971 C 370.347 179.280,369.845 181.959,368.964 189.000 C 368.827 190.100,368.508 191.252,368.257 191.561 C 367.675 192.275,367.156 197.008,367.068 202.400 L 367.000 206.600 383.500 206.704 L 400.000 206.809 400.000 178.404 L 400.000 150.000 398.500 150.002 C 397.675 150.004,396.484 150.274,395.854 150.602 M366.267 215.067 C 365.859 215.474,365.949 230.986,366.361 231.420 C 366.560 231.629,366.818 232.610,366.935 233.600 C 367.333 236.961,367.657 238.197,368.630 240.054 C 369.163 241.074,369.600 242.553,369.600 243.342 C 369.600 244.131,369.960 245.417,370.400 246.200 C 370.840 246.983,371.200 247.802,371.200 248.020 C 371.200 248.238,371.650 249.129,372.200 250.000 C 372.750 250.871,373.200 251.923,373.200 252.338 C 373.200 252.753,373.560 253.550,374.000 254.109 C 374.440 254.669,374.800 255.295,374.800 255.501 C 374.800 255.707,375.153 256.196,375.585 256.586 C 376.016 256.977,376.752 258.040,377.220 258.948 C 377.687 259.857,378.568 261.140,379.177 261.800 C 379.786 262.460,380.395 263.315,380.530 263.700 C 380.665 264.085,381.051 264.400,381.387 264.400 C 381.724 264.400,382.000 264.661,382.000 264.981 C 382.000 265.719,384.702 268.374,385.936 268.848 C 386.451 269.046,387.076 269.746,387.324 270.404 C 387.572 271.062,388.012 271.600,388.302 271.600 C 388.932 271.600,390.596 272.653,391.964 273.918 C 392.510 274.423,393.596 275.132,394.378 275.492 C 395.160 275.853,396.745 276.742,397.900 277.469 L 400.000 278.790 400.000 246.795 L 400.000 214.800 383.267 214.800 C 374.063 214.800,366.413 214.920,366.267 215.067 " stroke="none" fill="#fbfbfb" fill-rule="evenodd"></path></g></svg>