<svg id="svg" version="1.1" xmlns="http://www.w3.org/2000/svg" xmlns:xlink="http://www.w3.org/1999/xlink" width="400" height="400" viewBox="0, 0, 400,400"><g id="svgg"><path id="path0" d="M75.200 100.000 L 75.200 124.800 100.000 124.800 L 124.800 124.800 124.800 100.000 L 124.800 75.200 100.000 75.200 L 75.200 75.200 75.200 100.000 M75.200 237.400 L 75.200 324.800 100.000 324.800 L 124.800 324.800 124.800 237.400 L 124.800 150.000 100.000 150.000 L 75.200 150.000 75.200 237.400 M175.200 237.400 L 175.200 324.800 199.999 324.800 L 224.797 324.800 224.899 262.500 L 225.000 200.200 250.000 200.200 L 275.000 200.200 275.101 262.500 L 275.203 324.800 300.001 324.800 L 324.800 324.800 324.800 250.006 L 324.800 175.212 312.500 175.106 L 300.200 175.000 300.094 162.500 L 299.989 150.000 275.000 150.000 L 250.011 150.000 249.906 162.500 L 249.800 175.000 237.400 175.000 L 225.000 175.000 224.894 162.500 L 224.789 150.000 199.994 150.000 L 175.200 150.000 175.200 237.400 " stroke="none" fill="#fcfcfc" fill-rule="evenodd"></path><path id="path1" d="M49.600 12.400 L 49.600 24.800 37.200 24.800 L 24.800 24.800 24.800 37.200 L 24.800 49.600 12.400 49.600 L 0.000 49.600 0.000 200.000 L 0.000 350.400 12.399 350.400 L 24.799 350.400 24.899 200.300 L 25.000 50.200 37.494 50.094 L 49.989 49.989 50.094 37.494 L 50.200 25.000 200.300 24.899 L 350.400 24.799 350.400 12.399 L 350.400 0.000 200.000 0.000 L 49.600 0.000 49.600 12.400 M74.800 100.000 L 74.800 125.200 100.000 125.200 L 125.200 125.200 125.200 100.000 L 125.200 74.800 100.000 74.800 L 74.800 74.800 74.800 100.000 M124.800 100.000 L 124.800 124.800 100.000 124.800 L 75.200 124.800 75.200 100.000 L 75.200 75.200 100.000 75.200 L 124.800 75.200 124.800 100.000 M74.800 237.400 L 74.800 325.200 100.000 325.200 L 125.200 325.200 125.200 237.400 L 125.200 149.600 100.000 149.600 L 74.800 149.600 74.800 237.400 M174.800 237.400 L 174.800 325.200 200.000 325.200 L 225.200 325.200 225.200 262.800 L 225.200 200.400 250.000 200.400 L 274.800 200.400 274.800 262.800 L 274.800 325.200 300.000 325.200 L 325.200 325.200 325.200 250.000 L 325.200 174.800 312.806 174.800 L 300.411 174.800 300.306 162.300 L 300.200 149.800 275.000 149.800 L 249.800 149.800 249.694 162.300 L 249.589 174.800 237.394 174.800 L 225.200 174.800 225.200 162.200 L 225.200 149.600 200.000 149.600 L 174.800 149.600 174.800 237.400 M124.800 237.400 L 124.800 324.800 100.000 324.800 L 75.200 324.800 75.200 237.400 L 75.200 150.000 100.000 150.000 L 124.800 150.000 124.800 237.400 M224.894 162.500 L 225.000 175.000 237.400 175.000 L 249.800 175.000 249.906 162.500 L 250.011 150.000 275.000 150.000 L 299.989 150.000 300.094 162.500 L 300.200 175.000 312.500 175.106 L 324.800 175.212 324.800 250.006 L 324.800 324.800 300.001 324.800 L 275.203 324.800 275.101 262.500 L 275.000 200.200 250.000 200.200 L 225.000 200.200 224.899 262.500 L 224.797 324.800 199.999 324.800 L 175.200 324.800 175.200 237.400 L 175.200 150.000 199.994 150.000 L 224.789 150.000 224.894 162.500 " stroke="none" fill="#248cc4" fill-rule="evenodd"></path><path id="path2" d="M50.267 25.067 C 50.120 25.213,50.000 30.881,50.000 37.661 L 50.000 49.989 37.500 50.094 L 25.000 50.200 24.900 212.765 L 24.799 375.331 44.065 375.065 C 54.662 374.919,127.832 374.800,206.666 374.800 L 350.000 374.800 350.000 362.400 L 350.000 350.000 362.400 350.000 L 374.800 350.000 374.800 206.666 C 374.800 127.832,374.919 54.662,375.065 44.066 L 375.331 24.800 212.932 24.800 C 123.613 24.800,50.413 24.920,50.267 25.067 M125.200 100.000 L 125.200 125.200 100.000 125.200 L 74.800 125.200 74.800 100.000 L 74.800 74.800 100.000 74.800 L 125.200 74.800 125.200 100.000 M125.200 237.400 L 125.200 325.200 100.000 325.200 L 74.800 325.200 74.800 237.400 L 74.800 149.600 100.000 149.600 L 125.200 149.600 125.200 237.400 M225.200 162.200 L 225.200 174.800 237.394 174.800 L 249.589 174.800 249.694 162.300 L 249.800 149.800 275.000 149.800 L 300.200 149.800 300.306 162.300 L 300.411 174.800 312.806 174.800 L 325.200 174.800 325.200 250.000 L 325.200 325.200 300.000 325.200 L 274.800 325.200 274.800 262.800 L 274.800 200.400 250.000 200.400 L 225.200 200.400 225.200 262.800 L 225.200 325.200 200.000 325.200 L 174.800 325.200 174.800 237.400 L 174.800 149.600 200.000 149.600 L 225.200 149.600 225.200 162.200 " stroke="none" fill="#047cb4" fill-rule="evenodd"></path><path id="path3" d="M375.043 50.233 C 374.909 50.581,374.800 118.171,374.800 200.433 L 374.800 350.000 362.400 350.000 L 350.000 350.000 350.000 362.400 L 350.000 374.800 200.433 374.800 C 118.171 374.800,50.581 374.909,50.233 375.043 C 49.675 375.257,49.600 376.744,49.600 387.643 L 49.600 400.000 200.000 400.000 L 350.400 400.000 350.400 387.600 L 350.400 375.200 362.800 375.200 L 375.200 375.200 375.200 362.800 L 375.200 350.400 387.600 350.400 L 400.000 350.400 400.000 200.000 L 400.000 49.600 387.643 49.600 C 376.744 49.600,375.257 49.675,375.043 50.233 " stroke="none" fill="#04649c" fill-rule="evenodd"></path></g></svg>