<svg id="svg" version="1.1" xmlns="http://www.w3.org/2000/svg" xmlns:xlink="http://www.w3.org/1999/xlink" width="400" height="400" viewBox="0, 0, 400,400"><g id="svgg"><path id="path0" d="M111.419 55.078 C 111.419 55.830,111.499 56.138,111.597 55.762 C 111.696 55.386,111.696 54.771,111.597 54.395 C 111.499 54.019,111.419 54.326,111.419 55.078 M234.863 62.379 C 235.239 62.477,235.854 62.477,236.230 62.379 C 236.606 62.280,236.299 62.200,235.547 62.200 C 234.795 62.200,234.487 62.280,234.863 62.379 M247.802 85.742 C 247.803 88.105,247.868 89.022,247.945 87.779 C 248.023 86.536,248.022 84.602,247.944 83.482 C 247.865 82.362,247.801 83.379,247.802 85.742 M247.841 116.211 C 247.841 130.391,247.889 136.135,247.949 128.975 C 248.009 121.816,248.009 110.215,247.949 103.194 C 247.889 96.174,247.841 102.031,247.841 116.211 M154.051 126.172 C 154.051 128.428,154.115 129.351,154.194 128.223 C 154.273 127.095,154.273 125.249,154.194 124.121 C 154.115 122.993,154.051 123.916,154.051 126.172 M247.816 148.633 C 247.816 152.285,247.874 153.832,247.947 152.070 C 248.019 150.308,248.019 147.320,247.947 145.429 C 247.876 143.539,247.817 144.980,247.816 148.633 M122.168 172.554 C 123.296 172.633,125.142 172.633,126.270 172.554 C 127.397 172.475,126.475 172.410,124.219 172.410 C 121.963 172.410,121.040 172.475,122.168 172.554 M179.834 202.539 C 179.835 204.902,179.899 205.819,179.977 204.576 C 180.054 203.332,180.054 201.399,179.975 200.279 C 179.896 199.159,179.833 200.176,179.834 202.539 M196.632 219.141 C 196.632 221.611,196.696 222.622,196.773 221.387 C 196.851 220.151,196.851 218.130,196.773 216.895 C 196.696 215.659,196.632 216.670,196.632 219.141 M196.630 236.133 C 196.631 238.496,196.696 239.413,196.773 238.169 C 196.851 236.926,196.851 234.993,196.772 233.872 C 196.693 232.752,196.630 233.770,196.630 236.133 M128.516 244.531 L 128.516 248.828 124.219 248.828 L 119.922 248.828 119.922 252.930 L 119.922 257.031 115.820 257.031 L 111.719 257.031 111.719 261.328 L 111.719 265.625 107.227 265.625 L 102.734 265.625 102.734 299.609 L 102.734 333.594 107.227 333.594 L 111.719 333.594 111.719 337.891 L 111.719 342.188 115.820 342.188 L 119.922 342.188 119.922 337.695 L 119.922 333.203 124.219 333.203 L 128.516 333.203 128.516 329.199 L 128.517 325.195 132.811 325.195 L 137.106 325.195 137.108 320.996 L 137.109 316.797 141.150 316.797 L 145.190 316.797 145.446 310.289 C 145.588 306.710,145.703 300.909,145.703 297.399 L 145.703 291.016 149.902 291.015 L 154.102 291.015 154.083 303.808 C 154.073 310.845,154.123 314.800,154.194 312.598 L 154.324 308.594 158.643 308.594 L 162.962 308.594 162.829 312.696 L 162.695 316.798 166.919 316.797 L 171.142 316.797 171.020 321.095 L 170.898 325.392 200.882 325.391 L 230.866 325.391 230.765 304.051 L 230.664 282.712 226.465 282.784 L 222.266 282.856 222.266 274.240 L 222.266 265.625 217.969 265.625 L 213.672 265.625 213.672 261.328 L 213.672 257.031 209.375 257.031 L 205.078 257.031 205.078 252.954 L 205.078 248.877 200.879 248.755 L 196.680 248.633 196.753 252.832 L 196.826 257.031 179.858 257.031 L 162.891 257.031 162.891 252.734 L 162.891 248.438 158.363 248.438 L 153.835 248.438 153.968 244.335 L 154.102 240.233 141.309 240.234 L 128.516 240.234 128.516 244.531 M215.918 257.319 C 217.046 257.398,218.892 257.398,220.020 257.319 C 221.147 257.240,220.225 257.176,217.969 257.176 C 215.713 257.176,214.790 257.240,215.918 257.319 M284.082 265.914 C 285.317 265.991,287.339 265.991,288.574 265.914 C 289.810 265.836,288.799 265.773,286.328 265.773 C 283.857 265.773,282.847 265.836,284.082 265.914 M145.703 282.617 L 145.703 291.016 141.406 291.016 L 137.109 291.016 137.109 282.617 L 137.109 274.219 141.406 274.219 L 145.703 274.219 145.703 282.617 M173.145 333.863 C 173.521 333.961,174.136 333.961,174.512 333.863 C 174.888 333.765,174.580 333.684,173.828 333.684 C 173.076 333.684,172.769 333.765,173.145 333.863 M186.440 333.883 C 187.683 333.961,189.617 333.960,190.737 333.881 C 191.857 333.803,190.840 333.739,188.477 333.740 C 186.113 333.741,185.197 333.805,186.440 333.883 M196.387 333.869 C 196.870 333.963,197.661 333.963,198.145 333.869 C 198.628 333.776,198.232 333.700,197.266 333.700 C 196.299 333.700,195.903 333.776,196.387 333.869 M200.300 333.877 C 201.002 333.964,202.057 333.962,202.644 333.873 C 203.231 333.784,202.656 333.713,201.367 333.715 C 200.078 333.717,199.598 333.790,200.300 333.877 M207.129 333.881 C 208.149 333.961,209.819 333.961,210.840 333.881 C 211.860 333.800,211.025 333.735,208.984 333.735 C 206.943 333.735,206.108 333.800,207.129 333.881 M218.457 333.884 C 220.122 333.957,222.847 333.957,224.512 333.884 C 226.177 333.811,224.814 333.751,221.484 333.751 C 218.154 333.751,216.792 333.811,218.457 333.884 M236.816 333.863 C 237.192 333.961,237.808 333.961,238.184 333.863 C 238.560 333.765,238.252 333.684,237.500 333.684 C 236.748 333.684,236.440 333.765,236.816 333.863 M124.512 359.267 C 125.210 359.354,126.353 359.354,127.051 359.267 C 127.749 359.180,127.178 359.109,125.781 359.109 C 124.385 359.109,123.813 359.180,124.512 359.267 M235.275 359.276 C 237.596 359.345,241.288 359.345,243.478 359.276 C 245.669 359.206,243.770 359.149,239.258 359.150 C 234.746 359.150,232.954 359.207,235.275 359.276 M154.051 380.078 C 154.051 382.334,154.115 383.257,154.194 382.129 C 154.273 381.001,154.273 379.155,154.194 378.027 C 154.115 376.899,154.051 377.822,154.051 380.078 M167.090 384.668 C 174.019 384.728,185.356 384.728,192.285 384.668 C 199.214 384.608,193.545 384.559,179.688 384.559 C 165.830 384.559,160.161 384.608,167.090 384.668 " stroke="none" fill="#04938a" fill-rule="evenodd"></path><path id="path1" d="M162.645 23.828 C 162.645 26.084,162.709 27.007,162.788 25.879 C 162.867 24.751,162.867 22.905,162.788 21.777 C 162.709 20.649,162.645 21.572,162.645 23.828 M111.462 59.180 C 111.463 60.898,111.532 61.553,111.615 60.634 C 111.697 59.715,111.696 58.309,111.612 57.509 C 111.528 56.709,111.461 57.461,111.462 59.180 M111.467 65.820 C 111.466 67.754,111.532 68.594,111.614 67.688 C 111.695 66.781,111.696 65.199,111.616 64.172 C 111.535 63.145,111.468 63.887,111.467 65.820 M179.688 66.602 L 179.688 70.703 183.984 70.703 L 188.281 70.703 188.281 75.000 L 188.281 79.297 192.578 79.297 L 196.875 79.297 196.875 83.594 L 196.875 87.891 209.570 87.891 L 222.266 87.891 222.266 83.594 L 222.266 79.297 209.570 79.297 L 196.875 79.297 196.875 75.000 L 196.875 70.703 192.578 70.703 L 188.281 70.703 188.281 66.602 L 188.281 62.500 183.984 62.500 L 179.688 62.500 179.688 66.602 M137.109 83.594 L 137.109 87.891 133.008 87.891 L 128.906 87.891 128.906 91.992 L 128.906 96.094 133.008 96.094 L 137.109 96.094 137.109 91.992 L 137.109 87.891 150.000 87.891 L 162.891 87.891 162.891 83.594 L 162.891 79.297 150.000 79.297 L 137.109 79.297 137.109 83.594 M145.703 108.984 L 145.703 113.281 141.406 113.281 L 137.109 113.281 137.109 121.680 L 137.109 130.078 145.508 130.078 L 153.906 130.078 153.906 125.781 L 153.906 121.484 158.398 121.484 L 162.891 121.484 162.891 113.086 L 162.891 104.688 154.297 104.688 L 145.703 104.688 145.703 108.984 M188.281 108.984 L 188.281 113.281 196.680 113.281 L 205.078 113.281 205.078 117.383 L 205.078 121.484 213.672 121.484 L 222.266 121.484 222.266 113.086 L 222.266 104.688 205.273 104.688 L 188.281 104.688 188.281 108.984 M111.490 156.836 C 111.490 160.703,111.548 162.232,111.619 160.234 C 111.690 158.236,111.690 155.072,111.619 153.203 C 111.547 151.334,111.489 152.969,111.490 156.836 M192.285 172.559 C 204.048 172.616,223.296 172.616,235.059 172.559 C 246.821 172.501,237.197 172.454,213.672 172.454 C 190.146 172.454,180.522 172.501,192.285 172.559 M130.581 181.148 C 131.824 181.226,133.757 181.226,134.878 181.147 C 135.998 181.068,134.980 181.005,132.617 181.005 C 130.254 181.006,129.337 181.071,130.581 181.148 M247.804 185.156 C 247.804 187.627,247.867 188.638,247.945 187.402 C 248.022 186.167,248.022 184.146,247.945 182.910 C 247.867 181.675,247.804 182.686,247.804 185.156 M173.353 206.538 C 174.488 206.618,176.246 206.617,177.259 206.537 C 178.272 206.456,177.344 206.392,175.195 206.393 C 173.047 206.394,172.218 206.459,173.353 206.538 M179.614 210.645 L 179.736 214.844 184.009 214.844 L 188.281 214.844 188.281 227.539 L 188.281 240.234 192.383 240.234 L 196.484 240.234 196.484 236.133 L 196.484 232.031 205.078 232.031 L 213.672 232.031 213.672 227.734 L 213.672 223.438 205.078 223.438 L 196.484 223.438 196.484 219.141 L 196.484 214.844 209.375 214.844 L 222.266 214.844 222.266 210.749 L 222.266 206.654 200.879 206.550 L 179.492 206.445 179.614 210.645 M232.715 206.538 C 233.843 206.617,235.688 206.617,236.816 206.538 C 237.944 206.459,237.021 206.395,234.766 206.395 C 232.510 206.395,231.587 206.459,232.715 206.538 M247.797 219.141 C 247.797 221.182,247.863 222.017,247.943 220.996 C 248.024 219.976,248.024 218.306,247.943 217.285 C 247.863 216.265,247.797 217.100,247.797 219.141 M196.875 244.531 L 196.875 248.828 200.977 248.828 L 205.078 248.828 205.078 252.930 L 205.078 257.031 209.375 257.031 L 213.672 257.031 213.672 261.328 L 213.672 265.625 217.969 265.625 L 222.266 265.625 222.266 261.426 L 222.267 257.227 218.067 257.227 L 213.867 257.227 213.762 248.730 L 213.657 240.234 205.266 240.234 L 196.875 240.234 196.875 244.531 M111.459 262.109 C 111.459 263.721,111.528 264.380,111.613 263.574 C 111.697 262.769,111.697 261.450,111.613 260.645 C 111.528 259.839,111.459 260.498,111.459 262.109 M222.266 274.436 L 222.266 282.856 226.465 282.784 L 230.664 282.712 230.765 304.051 L 230.866 325.391 200.980 325.391 L 171.094 325.391 171.094 329.492 L 171.094 333.594 205.078 333.594 L 239.063 333.594 239.063 338.110 L 239.063 342.627 243.360 342.505 L 247.658 342.383 247.657 346.582 L 247.656 350.781 256.250 350.781 L 264.844 350.781 264.844 346.484 L 264.844 342.188 260.449 342.188 L 256.055 342.189 256.177 337.891 L 256.299 333.594 251.977 333.594 L 247.656 333.594 247.656 325.195 L 247.656 316.797 243.359 316.797 L 239.063 316.797 239.063 299.805 L 239.063 282.813 234.961 282.813 L 230.859 282.813 230.859 274.414 L 230.859 266.016 226.563 266.016 L 222.266 266.016 222.266 274.436 M137.109 282.617 L 137.109 291.016 141.421 291.016 L 145.732 291.016 145.620 299.805 L 145.508 308.594 149.927 308.594 L 154.347 308.594 154.224 312.696 L 154.102 316.799 158.259 316.798 C 163.142 316.797,162.891 317.052,162.891 312.090 L 162.891 308.619 158.496 308.509 L 154.102 308.398 154.102 299.707 L 154.102 291.015 149.902 291.015 L 145.703 291.016 145.703 282.617 L 145.703 274.219 141.406 274.219 L 137.109 274.219 137.109 282.617 M294.629 291.295 C 295.220 291.385,296.187 291.385,296.777 291.295 C 297.368 291.206,296.885 291.133,295.703 291.133 C 294.521 291.133,294.038 291.206,294.629 291.295 M162.500 320.898 L 162.500 325.000 166.797 325.000 L 171.094 325.000 171.094 320.898 L 171.094 316.797 166.797 316.797 L 162.500 316.797 162.500 320.898 " stroke="none" fill="#050504" fill-rule="evenodd"></path><path id="path2" d="M132.910 37.010 C 135.220 37.079,138.999 37.079,141.309 37.010 C 143.618 36.941,141.729 36.885,137.109 36.885 C 132.490 36.885,130.601 36.941,132.910 37.010 M194.849 37.011 C 198.354 37.076,203.979 37.076,207.349 37.011 C 210.719 36.946,207.852 36.893,200.977 36.893 C 194.102 36.893,191.344 36.946,194.849 37.011 M239.227 71.094 C 239.227 75.498,239.284 77.300,239.354 75.098 C 239.423 72.896,239.423 69.292,239.354 67.090 C 239.284 64.888,239.227 66.689,239.227 71.094 M196.629 83.984 C 196.629 86.240,196.693 87.163,196.772 86.035 C 196.851 84.907,196.851 83.062,196.772 81.934 C 196.693 80.806,196.629 81.729,196.629 83.984 M128.660 92.188 C 128.660 94.443,128.725 95.366,128.804 94.238 C 128.883 93.110,128.883 91.265,128.804 90.137 C 128.725 89.009,128.660 89.932,128.660 92.188 M171.094 134.570 L 171.094 138.672 162.695 138.672 L 154.297 138.672 154.297 142.773 L 154.297 146.875 148.535 146.899 C 145.366 146.912,141.499 146.925,139.941 146.928 L 137.109 146.933 137.109 155.498 L 137.109 164.063 141.406 164.063 L 145.703 164.063 145.703 168.262 L 145.702 172.461 149.902 172.461 L 154.102 172.461 154.162 176.709 L 154.222 180.958 158.361 180.887 L 162.500 180.816 162.500 185.135 L 162.500 189.453 205.078 189.453 L 247.656 189.453 247.656 185.156 L 247.656 180.859 209.375 180.859 L 171.094 180.859 171.094 176.563 L 171.094 172.266 213.672 172.266 L 256.250 172.266 256.250 163.867 L 256.250 155.469 230.664 155.469 L 205.078 155.469 205.078 151.367 L 205.078 147.266 200.977 147.266 L 196.875 147.266 196.875 142.969 L 196.875 138.672 192.578 138.672 L 188.281 138.672 188.281 134.570 L 188.281 130.469 179.688 130.469 L 171.094 130.469 171.094 134.570 M239.191 211.523 C 239.192 213.027,239.263 213.595,239.348 212.784 C 239.432 211.974,239.431 210.743,239.344 210.050 C 239.258 209.356,239.189 210.020,239.191 211.523 M196.627 244.727 C 196.628 246.875,196.694 247.704,196.773 246.569 C 196.852 245.434,196.851 243.676,196.771 242.663 C 196.691 241.649,196.626 242.578,196.627 244.727 M239.242 299.805 C 239.242 309.043,239.293 312.766,239.355 308.079 C 239.417 303.392,239.417 295.833,239.355 291.282 C 239.293 286.731,239.241 290.566,239.242 299.805 M166.706 325.283 C 167.408 325.370,168.463 325.368,169.050 325.279 C 169.637 325.190,169.063 325.119,167.773 325.121 C 166.484 325.123,166.004 325.196,166.706 325.283 M175.684 333.869 C 176.167 333.963,176.958 333.963,177.441 333.869 C 177.925 333.776,177.529 333.700,176.563 333.700 C 175.596 333.700,175.200 333.776,175.684 333.869 " stroke="none" fill="#fba43b" fill-rule="evenodd"></path><path id="path3" d="M162.891 23.828 L 162.891 28.125 154.297 28.125 L 145.703 28.125 145.703 32.632 L 145.703 37.138 137.109 37.026 L 128.515 36.914 128.515 40.918 L 128.516 44.922 124.195 44.922 L 119.875 44.922 119.996 49.415 L 120.117 53.908 115.918 53.907 L 111.719 53.906 111.719 62.305 L 111.719 70.703 107.227 70.703 L 102.734 70.703 102.734 108.984 L 102.734 147.266 107.227 147.266 L 111.719 147.266 111.719 155.651 L 111.719 164.036 115.873 164.147 L 120.027 164.258 119.952 168.262 L 119.877 172.266 124.196 172.266 L 128.516 172.266 128.516 176.563 L 128.516 180.859 132.813 180.859 L 137.109 180.859 137.109 189.453 L 137.109 198.047 141.406 198.047 L 145.703 198.047 145.703 219.141 L 145.703 240.234 149.902 240.234 L 154.102 240.233 153.968 244.335 L 153.835 248.438 158.363 248.438 L 162.891 248.438 162.891 252.734 L 162.891 257.031 179.881 257.031 L 196.871 257.031 196.678 248.730 L 196.486 240.430 192.384 240.319 L 188.281 240.208 188.281 227.526 L 188.281 214.844 183.984 214.844 L 179.688 214.844 179.688 210.742 L 179.688 206.641 175.391 206.641 L 171.094 206.641 171.094 198.047 L 171.094 189.453 166.797 189.453 L 162.500 189.453 162.500 185.135 L 162.500 180.816 158.361 180.887 L 154.222 180.958 154.162 176.709 L 154.102 172.461 149.902 172.461 L 145.702 172.461 145.703 168.262 L 145.703 164.063 141.406 164.063 L 137.109 164.063 137.109 155.498 L 137.109 146.933 139.941 146.928 C 141.499 146.925,145.366 146.912,148.535 146.899 L 154.297 146.875 154.297 142.773 L 154.297 138.672 162.695 138.672 L 171.094 138.672 171.094 134.570 L 171.094 130.469 179.688 130.469 L 188.281 130.469 188.281 134.570 L 188.281 138.672 192.578 138.672 L 196.875 138.672 196.875 142.969 L 196.875 147.266 200.977 147.266 L 205.078 147.266 205.078 151.367 L 205.078 155.469 226.367 155.469 L 247.656 155.469 247.656 117.383 L 247.656 79.297 243.345 79.297 L 239.033 79.297 239.145 70.898 L 239.258 62.499 235.059 62.500 L 230.859 62.500 230.859 58.203 L 230.859 53.906 226.563 53.906 L 222.266 53.906 222.266 49.609 L 222.266 45.313 217.969 45.313 L 213.672 45.313 213.672 41.113 L 213.672 36.914 200.977 37.022 L 188.281 37.130 188.281 32.628 L 188.281 28.125 183.984 28.125 L 179.688 28.125 179.688 23.828 L 179.688 19.531 171.289 19.531 L 162.891 19.531 162.891 23.828 M188.281 66.602 L 188.281 70.703 192.578 70.703 L 196.875 70.703 196.875 75.000 L 196.875 79.297 192.578 79.297 L 188.281 79.297 188.281 75.000 L 188.281 70.703 183.984 70.703 L 179.688 70.703 179.688 66.602 L 179.688 62.500 183.984 62.500 L 188.281 62.500 188.281 66.602 M162.891 83.594 L 162.891 87.891 150.000 87.891 L 137.109 87.891 137.109 91.992 L 137.109 96.094 132.813 96.094 L 128.516 96.094 128.516 91.992 L 128.516 87.891 132.813 87.891 L 137.109 87.891 137.109 83.594 L 137.109 79.297 150.000 79.297 L 162.891 79.297 162.891 83.594 M222.266 83.594 L 222.266 87.891 209.375 87.891 L 196.484 87.891 196.484 84.212 C 196.484 78.741,195.000 79.297,209.612 79.297 L 222.266 79.297 222.266 83.594 M162.891 113.086 L 162.891 121.484 158.594 121.484 L 154.297 121.484 154.297 125.781 L 154.297 130.078 145.703 130.078 L 137.109 130.078 137.109 121.693 L 137.109 113.308 141.309 113.197 L 145.508 113.086 145.508 108.887 L 145.508 104.687 154.199 104.687 L 162.891 104.688 162.891 113.086 M222.266 113.086 L 222.266 121.484 213.672 121.484 L 205.078 121.484 205.078 117.383 L 205.078 113.281 196.680 113.281 L 188.281 113.281 188.281 108.984 L 188.281 104.688 205.273 104.688 L 222.266 104.688 222.266 113.086 M180.078 202.356 L 180.078 206.665 201.172 206.555 L 222.266 206.445 222.266 210.645 L 222.266 214.844 209.570 214.844 L 196.875 214.844 196.875 219.141 L 196.875 223.438 205.273 223.438 L 213.672 223.438 213.672 227.734 L 213.672 232.031 205.273 232.031 L 196.875 232.031 196.875 236.133 L 196.875 240.234 205.273 240.234 L 213.672 240.234 213.672 248.633 L 213.672 257.031 217.969 257.031 L 222.266 257.031 222.266 261.523 L 222.266 266.016 226.563 266.016 L 230.859 266.016 230.859 274.436 L 230.859 282.856 235.059 282.784 L 239.258 282.712 239.258 299.754 L 239.258 316.797 243.457 316.797 L 247.656 316.797 247.656 325.217 L 247.656 333.637 251.855 333.564 L 256.055 333.492 256.165 337.840 L 256.276 342.188 260.560 342.188 L 264.844 342.188 264.844 346.484 L 264.844 350.781 256.250 350.781 L 247.656 350.781 247.656 346.680 L 247.656 342.578 243.359 342.578 L 239.063 342.578 239.063 338.281 L 239.063 333.984 205.078 333.984 L 171.094 333.984 171.094 329.688 L 171.094 325.391 166.797 325.391 L 162.500 325.391 162.500 321.094 L 162.500 316.797 158.203 316.797 L 153.906 316.797 153.906 312.695 L 153.906 308.594 149.609 308.594 L 145.313 308.594 145.313 312.695 L 145.313 316.797 141.211 316.797 L 137.109 316.797 137.108 320.996 L 137.106 325.195 132.811 325.195 L 128.517 325.195 128.516 329.199 L 128.516 333.203 124.219 333.203 L 119.922 333.203 119.922 346.094 L 119.922 358.984 124.219 358.984 L 128.516 358.984 128.516 363.281 L 128.516 367.578 132.813 367.578 L 137.109 367.578 137.109 371.875 L 137.109 376.172 145.728 376.172 L 154.347 376.172 154.224 380.274 L 154.102 384.377 179.590 384.376 L 205.078 384.375 205.078 380.273 L 205.078 376.172 213.672 376.172 L 222.266 376.172 222.266 371.875 L 222.266 367.578 226.563 367.578 L 230.859 367.578 230.859 363.281 L 230.859 358.984 239.258 358.984 L 247.656 358.984 247.656 363.281 L 247.656 367.578 264.844 367.578 L 282.031 367.578 282.031 363.281 L 282.031 358.984 273.438 358.984 L 264.844 358.984 264.844 354.883 L 264.844 350.781 277.734 350.781 L 290.625 350.781 290.625 346.484 L 290.625 342.188 294.727 342.188 L 298.828 342.188 298.828 316.797 L 298.828 291.406 294.727 291.406 L 290.625 291.406 290.625 278.711 L 290.625 266.016 286.328 266.016 L 282.031 266.016 282.031 257.422 L 282.031 248.828 277.734 248.828 L 273.438 248.828 273.438 244.531 L 273.438 240.234 269.141 240.234 L 264.844 240.234 264.844 236.133 L 264.844 232.031 260.547 232.031 L 256.250 232.031 256.250 227.539 L 256.250 223.047 251.953 223.047 L 247.656 223.047 247.656 218.945 L 247.656 214.844 243.334 214.844 L 239.012 214.844 239.135 210.741 L 239.258 206.639 235.059 206.640 L 230.859 206.641 230.859 202.344 L 230.859 198.047 205.469 198.047 L 180.078 198.047 180.078 202.356 " stroke="none" fill="#fbfbfb" fill-rule="evenodd"></path></g></svg>