<?xml version="1.0" encoding="UTF-8"?>
<svg version="1.1" xmlns="http://www.w3.org/2000/svg" width="336" height="100">
<path d="M0 0 C0.495 0.99 0.495 0.99 1 2 C1.99 2.33 2.98 2.66 4 3 C4 3.66 4 4.32 4 5 C4.99 5.33 5.98 5.66 7 6 C7.495 9.465 7.495 9.465 8 13 C8.99 13 9.98 13 11 13 C10.505 10.525 10.505 10.525 10 8 C12.52475462 6.73762269 14.31200466 6.90143596 17.125 6.9375 C18.03507812 6.94652344 18.94515625 6.95554687 19.8828125 6.96484375 C20.93082031 6.98224609 20.93082031 6.98224609 22 7 C22 7.66 22 8.32 22 9 C22.99 9 23.98 9 25 9 C26.35439668 11.70879335 26.06501451 14.00933268 26 17 C25.01 17 24.02 17 23 17 C22.9071875 17.928125 22.9071875 17.928125 22.8125 18.875 C22 21 22 21 19.75 22.1875 C17.17493405 22.94831494 14.64555693 23.54647595 12 24 C12.495 24.99 12.495 24.99 13 26 C14.65 26 16.3 26 18 26 C18 26.99 18 27.98 18 29 C19.98 29.495 19.98 29.495 22 30 C22 32.31 22 34.62 22 37 C20.02 37 18.04 37 16 37 C16 36.34 16 35.68 16 35 C12.58357241 34.74984127 12.58357241 34.74984127 9 35 C8.34 35.99 7.68 36.98 7 38 C6.34 38 5.68 38 5 38 C4.67 39.32 4.34 40.64 4 42 C3.34 42 2.68 42 2 42 C2 42.66 2 43.32 2 44 C3.7015625 43.7525 3.7015625 43.7525 5.4375 43.5 C17.26869975 42.07100962 17.26869975 42.07100962 21.5625 44.375 C23 46 23 46 23 48 C23.99 48 24.98 48 26 48 C26 48.66 26 49.32 26 50 C26.99 50 27.98 50 29 50 C30.38226016 52.76452033 30.09525387 55.0461363 30.0625 58.125 C30.05347656 59.22070312 30.04445313 60.31640625 30.03515625 61.4453125 C30.02355469 62.28835937 30.01195312 63.13140625 30 64 C29.34 64 28.68 64 28 64 C28 64.99 28 65.98 28 67 C25.26752652 68.36623674 23.01801098 68.128426 20 68 C19 67 19 67 18.9375 64.4375 C18.958125 63.633125 18.97875 62.82875 19 62 C18.2575 62.20625 17.515 62.4125 16.75 62.625 C13.60883494 63.05334069 12.68120844 62.51935145 10 61 C9.01 61 8.02 61 7 61 C7.495 63.475 7.495 63.475 8 66 C10.64 66 13.28 66 16 66 C16 66.66 16 67.32 16 68 C17.98 68.495 17.98 68.495 20 69 C19.505 70.98 19.505 70.98 19 73 C18.34 73 17.68 73 17 73 C17 73.99 17 74.98 17 76 C15.37550757 77.70779973 13.70779973 79.37550757 12 81 C11.67 81.66 11.34 82.32 11 83 C8.36 83 5.72 83 3 83 C2.34 81.35 1.68 79.7 1 78 C-2.27773504 78.75150023 -2.27773504 78.75150023 -4 82 C-4.66 82 -5.32 82 -6 82 C-6.495 83.485 -6.495 83.485 -7 85 C-14.92 85.495 -14.92 85.495 -23 86 C-23.33 85.01 -23.66 84.02 -24 83 C-24.99 83 -25.98 83 -27 83 C-27 82.34 -27 81.68 -27 81 C-27.99 81 -28.98 81 -30 81 C-31.60725635 77.78548731 -31.05748185 74.56387464 -31 71 C-25.25 69 -25.25 69 -23 69 C-23 65.37 -23 61.74 -23 58 C-22.34 58 -21.68 58 -21 58 C-21 57.01 -21 56.02 -21 55 C-21.99 55 -22.98 55 -24 55 C-24.495 52.525 -24.495 52.525 -25 50 C-25.66 50 -26.32 50 -27 50 C-27 49.34 -27 48.68 -27 48 C-28.32 47.67 -29.64 47.34 -31 47 C-31 46.34 -31 45.68 -31 45 C-33.43717258 45.27034634 -33.43717258 45.27034634 -36 46 C-36.66 46.99 -37.32 47.98 -38 49 C-39.9453125 49.29296875 -39.9453125 49.29296875 -42.125 49.1875 C-43.40375 49.125625 -44.6825 49.06375 -46 49 C-46 49.99 -46 50.98 -46 52 C-51.75 53.125 -51.75 53.125 -54 52 C-55.0317435 49.06699331 -55.10790988 46.33787164 -55.0625 43.25 C-55.05347656 42.45078125 -55.04445312 41.6515625 -55.03515625 40.828125 C-55.02355469 40.22484375 -55.01195312 39.6215625 -55 39 C-54.34 39 -53.68 39 -53 39 C-53 37.35 -53 35.7 -53 34 C-51.515 33.505 -51.515 33.505 -50 33 C-49.67 32.01 -49.34 31.02 -49 30 C-48.34 30 -47.68 30 -47 30 C-47 29.01 -47 28.02 -47 27 C-46.34 27 -45.68 27 -45 27 C-44.67 26.01 -44.34 25.02 -44 24 C-43.34 24 -42.68 24 -42 24 C-42 23.01 -42 22.02 -42 21 C-38.04 20.505 -38.04 20.505 -34 20 C-33.67 20.99 -33.34 21.98 -33 23 C-31.35 22.67 -29.7 22.34 -28 22 C-27.67 22.99 -27.34 23.98 -27 25 C-26.01 25 -25.02 25 -24 25 C-24 25.99 -24 26.98 -24 28 C-23.01 27.67 -22.02 27.34 -21 27 C-21 25.35 -21 23.7 -21 22 C-20.34 22 -19.68 22 -19 22 C-18.505 20.515 -18.505 20.515 -18 19 C-17.34 19 -16.68 19 -16 19 C-15.67 17.68 -15.34 16.36 -15 15 C-14.34 15 -13.68 15 -13 15 C-13 13.35 -13 11.7 -13 10 C-12.01 10 -11.02 10 -10 10 C-10.495 7.525 -10.495 7.525 -11 5 C-10.01 4.67 -9.02 4.34 -8 4 C-8 3.01 -8 2.02 -8 1 C-5.10765685 0.17361624 -3.11257569 0 0 0 Z M-16 38 C-15.67 38.99 -15.34 39.98 -15 41 C-14.34 40.67 -13.68 40.34 -13 40 C-13 39.34 -13 38.68 -13 38 C-13.99 38 -14.98 38 -16 38 Z " fill="#F2F4F3" transform="translate(303,3)"/>
<path d="M0 0 C0 0.66 0 1.32 0 2 C1.12277344 1.98839844 2.24554688 1.97679687 3.40234375 1.96484375 C19.96747422 1.83895764 35.89341207 2.36056743 49 14 C53.13187071 18.48268992 55.64012317 23.40123166 56.25 29.5 C55.94645363 32.53546368 55.06091104 35.14880159 54 38 C54.66 38 55.32 38 56 38 C55.85831863 39.43791516 55.71148957 40.8753237 55.5625 42.3125 C55.44068359 43.51326172 55.44068359 43.51326172 55.31640625 44.73828125 C55 47 55 47 54 50 C54.66 50 55.32 50 56 50 C56.36372697 54.24348127 55.62334906 56.62712264 53 60 C51.67405895 60.36162029 50.34061543 60.69728039 49 61 C48.690625 61.66 48.38125 62.32 48.0625 63 C47.711875 63.66 47.36125 64.32 47 65 C44.375 65.75 44.375 65.75 42 66 C41.505 67.485 41.505 67.485 41 69 C39.35 69 37.7 69 36 69 C36.495 67.02 36.495 67.02 37 65 C38.32 65 39.64 65 41 65 C40.67 64.34 40.34 63.68 40 63 C39.3915625 63.3609375 38.783125 63.721875 38.15625 64.09375 C27.39157592 69.7926951 15.76026083 68.82486806 4 67 C3.01 66.505 3.01 66.505 2 66 C2 66.66 2 67.32 2 68 C-4.87794433 68.31263383 -4.87794433 68.31263383 -8 66 C-8.103125 65.38125 -8.20625 64.7625 -8.3125 64.125 C-9.18874136 61.41661763 -10.12922954 61.12236454 -12.5625 59.75 C-14.2640625 58.88375 -14.2640625 58.88375 -16 58 C-16 57.34 -16 56.68 -16 56 C-16.66 56 -17.32 56 -18 56 C-19.2416137 53.79159619 -20.47382121 51.57939722 -21.6875 49.35546875 C-22.66738062 47.596933 -23.72199534 45.8796624 -24.8125 44.1875 C-26.64781324 39.26113287 -26.57784631 34.20061677 -26 29 C-25.34 28.01 -24.68 27.02 -24 26 C-24 25.67 -24 25.34 -24 25 C-25.65 25.33 -27.3 25.66 -29 26 C-28.52389341 21.00088076 -26.96837781 18.02167317 -24 14 C-23.443125 14.226875 -22.88625 14.45375 -22.3125 14.6875 C-19.06097838 15.12689481 -17.61930843 13.84059511 -15 12 C-14.67 11.67 -14.34 11.34 -14 11 C-15.65 11 -17.3 11 -19 11 C-18.67 9.68 -18.34 8.36 -18 7 C-14.535 6.505 -14.535 6.505 -11 6 C-11 4.68 -11 3.36 -11 2 C-6.89657963 -0.38570952 -4.61380251 -1.49270081 0 0 Z M12 13 C12 13.66 12 14.32 12 15 C8.97265625 15.24414062 8.97265625 15.24414062 5.9453125 15.48828125 C3.60480784 15.87393036 3.60480784 15.87393036 2 19 C1.59344807 21.40543227 1.27046303 23.82549208 1 26.25 C0.42259474 31.38478251 -0.57716053 36.04055544 -2 41 C-2.38215258 44.27632146 -2.28588746 46.93638794 -1 50 C4.34146375 54.50261955 12.26827099 55.10168775 19 55 C23.14933143 54.44172632 26.34216486 53.35217731 29 50 C29.62358684 47.75979855 29.62358684 47.75979855 29.80078125 45.25390625 C29.89037109 44.33416016 29.97996094 43.41441406 30.07226562 42.46679688 C30.15154297 41.50837891 30.23082031 40.54996094 30.3125 39.5625 C30.41111328 38.60794922 30.50972656 37.65339844 30.61132812 36.66992188 C31.22643699 30.57490225 31.22643699 30.57490225 29 25 C28.01 25.33 27.02 25.66 26 26 C25.67 24.35 25.34 22.7 25 21 C24.01 20.67 23.02 20.34 22 20 C22 19.01 22 18.02 22 17 C23.32 16.67 24.64 16.34 26 16 C24.36622867 14.36622867 22.37221115 14.68238235 20.125 14.5 C17.15077151 14.25720584 14.84924786 13.94974929 12 13 Z M29 19 C30 21 30 21 30 21 Z M30 21 C31 23 31 23 31 23 Z M-6 52 C-5 54 -5 54 -5 54 Z M51 53 C51 56 51 56 51 56 Z M47 57 C46.01 58.485 46.01 58.485 45 60 C46.32 59.34 47.64 58.68 49 58 C48.34 57.67 47.68 57.34 47 57 Z M43 60 C42.67 60.66 42.34 61.32 42 62 C42.99 61.67 43.98 61.34 45 61 C44.34 60.67 43.68 60.34 43 60 Z M-3 63 C-2.34 63.66 -1.68 64.32 -1 65 C-1 64.34 -1 63.68 -1 63 C-1.66 63 -2.32 63 -3 63 Z " fill="#008E8A" transform="translate(184,15)"/>
<path d="M0 0 C1.65 0 3.3 0 5 0 C5 0.66 5 1.32 5 2 C5.66 2 6.32 2 7 2 C7.30292969 2.74765625 7.60585937 3.4953125 7.91796875 4.265625 C8.33691406 5.25046875 8.75585938 6.2353125 9.1875 7.25 C9.79658203 8.71179688 9.79658203 8.71179688 10.41796875 10.203125 C11.83797676 13.14435352 11.83797676 13.14435352 14.5703125 14.94921875 C17.73030426 17.61641437 17.96968656 19.54365916 18.6875 23.5625 C19.60016437 28.56624298 19.60016437 28.56624298 22 33 C24.58380177 33.25030977 24.58380177 33.25030977 27 33 C27 32.34 27 31.68 27 31 C28.32 30.67 29.64 30.34 31 30 C31 29.34 31 28.68 31 28 C35.95 25.36 40.9 22.72 46 20 C44.88625 18.55625 43.7725 17.1125 42.625 15.625 C41.99851563 14.81289063 41.37203125 14.00078125 40.7265625 13.1640625 C39.03226506 10.95776805 39.03226506 10.95776805 37 9 C36.875 5.875 36.875 5.875 37 3 C38.65 2.67 40.3 2.34 42 2 C42.36351562 2.45890625 42.72703125 2.9178125 43.1015625 3.390625 C45.63915143 6.48778482 47.96097997 9.17467317 51.375 11.3125 C52.24125 11.869375 53.1075 12.42625 54 13 C54 13.66 54 14.32 54 15 C54.61875 14.401875 55.2375 13.80375 55.875 13.1875 C58.81434641 11.12995751 60.55629911 10.44987399 63.9375 9.5625 C67.39954552 8.63791811 69.6730793 7.74678438 72.3125 5.3125 C75 3 75 3 77.75 2.5625 C80 3 80 3 82 5 C82.50474851 9.29036229 82.50474851 9.29036229 81 12 C78.07804136 14.11366535 75.08665212 15.76977457 71.8828125 17.421875 C69.40504001 18.77827078 67.72992432 19.79827814 66 22 C66 22.66 66 23.32 66 24 C66.66 24.33 67.32 24.66 68 25 C68 25.66 68 26.32 68 27 C68.598125 27.268125 69.19625 27.53625 69.8125 27.8125 C71.99847854 28.99917406 73.41332594 30.09599113 75 32 C75 32.66 75 33.32 75 34 C75.66 34 76.32 34 77 34 C78.35373964 35.50903877 79.63443401 37.08412698 80.875 38.6875 C81.55304688 39.55761719 82.23109375 40.42773438 82.9296875 41.32421875 C83.61289063 42.20722656 84.29609375 43.09023438 85 44 C85.74507813 44.89332031 86.49015625 45.78664062 87.2578125 46.70703125 C89 49 89 49 89 51 C89.66 51 90.32 51 91 51 C92.35373964 52.50903877 93.63443401 54.08412698 94.875 55.6875 C95.55304688 56.55761719 96.23109375 57.42773438 96.9296875 58.32421875 C97.61289063 59.20722656 98.29609375 60.09023437 99 61 C99.73992187 61.86625 100.47984375 62.7325 101.2421875 63.625 C103.43928589 66.59352405 103.33569381 68.39129158 103 72 C96.60045147 72.49227296 96.60045147 72.49227296 94.0703125 70.41796875 C91.04555574 66.88528114 88.47931274 63.07687998 85.88671875 59.22070312 C83.77812115 56.17604585 81.75793372 53.64893546 78.85546875 51.328125 C76.21495645 49.17525861 74.85866569 47.58949248 73.1875 44.6875 C68.41869309 37.17756786 60.57049774 29.85683258 52 27 C48.89785469 27.91300434 48.89785469 27.91300434 45.5625 29.3125 C44.42941406 29.76238281 43.29632813 30.21226563 42.12890625 30.67578125 C39.69495802 31.70587919 37.33973605 32.77551897 35 34 C35 34.66 35 35.32 35 36 C34.01 36.495 34.01 36.495 33 37 C33.99 37.33 34.98 37.66 36 38 C36 38.66 36 39.32 36 40 C36.83144531 39.96519531 37.66289063 39.93039063 38.51953125 39.89453125 C40.14955078 39.85392578 40.14955078 39.85392578 41.8125 39.8125 C42.89144531 39.77769531 43.97039062 39.74289063 45.08203125 39.70703125 C48 40 48 40 49.875 41.34375 C51.41566389 43.61194961 51.21715415 45.32176545 51 48 C49.35 47.67 47.7 47.34 46 47 C46.495 52.445 46.495 52.445 47 58 C47.66 58 48.32 58 49 58 C49.04241723 60.33294775 49.04092937 62.66702567 49 65 C48 66 48 66 45.6015625 66.1328125 C44.61929688 66.13023438 43.63703125 66.12765625 42.625 66.125 C41.64789063 66.12757812 40.67078125 66.13015625 39.6640625 66.1328125 C37 66 37 66 34 65 C34 65.66 34 66.32 34 67 C32.35 67 30.7 67 29 67 C28.75 64.8125 28.75 64.8125 29 62 C29.639375 61.29875 30.27875 60.5975 30.9375 59.875 C34.01584413 55.58397485 33.81905846 51.16588085 34 46 C33.01 46 32.02 46 31 46 C30.01 44.02 29.02 42.04 28 40 C26.76283305 41.00464636 26.76283305 41.00464636 26.97265625 43.0390625 C27.00230469 43.89242187 27.03195313 44.74578125 27.0625 45.625 C27.1019151 50.21029023 26.68965328 53.73140224 25 58 C21.34346173 60.43769218 19.30999899 60.23944439 15 60 C14.505 59.505 14.505 59.505 14 59 C10.66381769 58.85742811 7.34024394 58.95771843 4 59 C4.33 62.63 4.66 66.26 5 70 C-3.415 70.99 -3.415 70.99 -12 72 C-12.71258451 68.43707744 -13.12153291 65.86533836 -13.09765625 62.35546875 C-13.09443359 61.51435547 -13.09121094 60.67324219 -13.08789062 59.80664062 C-13.07951172 58.94232422 -13.07113281 58.07800781 -13.0625 57.1875 C-13.05798828 56.30384766 -13.05347656 55.42019531 -13.04882812 54.50976562 C-13.03709866 52.33981441 -13.01916495 50.16989828 -13 48 C-13.66 48 -14.32 48 -15 48 C-15 46.35 -15 44.7 -15 43 C-15.66 43 -16.32 43 -17 43 C-17.94194129 35.19534358 -15.40231879 30.04597561 -11.80078125 23.35546875 C-10.37470793 20.69820849 -9.10764258 18.08598688 -7.9375 15.3125 C-5.65065715 10.01980694 -2.81751636 5.02457085 0 0 Z M3 9 C1.57741188 12.82320557 0.75957724 15.91281305 1 20 C3.31 19.34 5.62 18.68 8 18 C7.44271087 14.65626525 6.64826111 11.96687001 5 9 C4.34 9 3.68 9 3 9 Z M-4.0390625 26.38671875 C-6.15762903 29.24244732 -6.93582277 31.39673406 -7.3125 34.9375 C-7.209375 35.618125 -7.10625 36.29875 -7 37 C-8.98 37 -10.96 37 -13 37 C-13 37.33 -13 37.66 -13 38 C1.85 37.505 1.85 37.505 17 37 C15.48453037 30.51584422 15.48453037 30.51584422 12 25 C3.63603126 23.85520169 3.63603126 23.85520169 -4.0390625 26.38671875 Z M3 44 C3 46.64 3 49.28 3 52 C7.14093698 52.20970559 7.14093698 52.20970559 11 51 C11 49.68 11 48.36 11 47 C9.865625 46.87625 8.73125 46.7525 7.5625 46.625 C6.386875 46.41875 5.21125 46.2125 4 46 C3.67 45.34 3.34 44.68 3 44 Z " fill="#000000" transform="translate(72,18)"/>
<path d="M0 0 C2.9869922 9.25434191 5.05766378 17.31605608 3.51635742 27.05639648 C2.92980874 31.5360754 2.68922872 35.96587676 2.5 40.4765625 C2.4166695 42.2994793 2.33333607 44.12239596 2.25 45.9453125 C2.12397935 48.79357601 1.99926299 51.64189367 1.875 54.49023438 C1.75314772 57.25666199 1.6267239 60.02285444 1.5 62.7890625 C1.46455078 63.63812164 1.42910156 64.48718079 1.39257812 65.36196899 C1.20954076 69.33716116 0.94611246 73.11601126 0 77 C-1.65 76.67 -3.3 76.34 -5 76 C-5 63.79 -5 51.58 -5 39 C-8.86136688 46.35031694 -8.86136688 46.35031694 -12 54 C-14.88947189 53.67353353 -16.53169545 53.48441331 -18.58984375 51.35546875 C-29.60767591 33.63113006 -29.60767591 33.63113006 -30 25 C-31.32 25 -32.64 25 -34 25 C-33.97905273 25.64324219 -33.95810547 26.28648438 -33.93652344 26.94921875 C-33.02861168 59.17433971 -33.02861168 59.17433971 -39.63671875 66.91796875 C-40.08660156 67.27503906 -40.53648438 67.63210937 -41 68 C-43.4375 67.1875 -43.4375 67.1875 -46 66 C-46.33 65.01 -46.66 64.02 -47 63 C-46.72285156 62.45214844 -46.44570313 61.90429688 -46.16015625 61.33984375 C-44.46195473 57.91485145 -44.02761099 54.30350028 -43.4375 50.5625 C-43.30819092 49.75482178 -43.17888184 48.94714355 -43.0456543 48.11499023 C-41.75399954 39.79237022 -40.9285784 31.58434033 -41.05078125 23.15234375 C-41.06133545 22.30148193 -41.07188965 21.45062012 -41.08276367 20.57397461 C-41.11033903 18.89347154 -41.15280493 17.21312824 -41.2121582 15.53344727 C-41.30179374 10.927523 -41.24365979 7.60729878 -38 4 C-36.68 4 -35.36 4 -34 4 C-33.896875 4.556875 -33.79375 5.11375 -33.6875 5.6875 C-32.87055365 8.43541044 -31.47929543 10.55594668 -30 13 C-30 13.66 -30 14.32 -30 15 C-29.34 15 -28.68 15 -28 15 C-26.59765625 17.01171875 -26.59765625 17.01171875 -25.0625 19.6875 C-24.55847656 20.55761719 -24.05445312 21.42773438 -23.53515625 22.32421875 C-23.02855469 23.20722656 -22.52195312 24.09023438 -22 25 C-21.44183594 25.87269531 -20.88367188 26.74539062 -20.30859375 27.64453125 C-19 30 -19 30 -19 33 C-18.34 33 -17.68 33 -17 33 C-16.84442627 32.46221924 -16.68885254 31.92443848 -16.52856445 31.37036133 C-9.55252881 7.37535872 -9.55252881 7.37535872 -6 0 C-3.50907189 -1.24546405 -2.58919267 -0.7767578 0 0 Z " fill="#000000" transform="translate(51,20)"/>
<path d="M0 0 C1.32 0.33 2.64 0.66 4 1 C3.01 1 2.02 1 1 1 C1 1.99 1 2.98 1 4 C0.34 4 -0.32 4 -1 4 C-0.505 8.95 -0.505 8.95 0 14 C0.99 14.33 1.98 14.66 3 15 C3 15.66 3 16.32 3 17 C3.99 17 4.98 17 6 17 C6 17.99 6 18.98 6 20 C6.99 20 7.98 20 9 20 C9 20.66 9 21.32 9 22 C10.65 22 12.3 22 14 22 C13.505 24.475 13.505 24.475 13 27 C14.65 27 16.3 27 18 27 C18 27.33 18 27.66 18 28 C15.03 28 12.06 28 9 28 C9 27.34 9 26.68 9 26 C8.01 26 7.02 26 6 26 C6 25.01 6 24.02 6 23 C5.34 23 4.68 23 4 23 C4 23.99 4 24.98 4 26 C2.68 26 1.36 26 0 26 C0 23.36 0 20.72 0 18 C-1.32 18 -2.64 18 -4 18 C-4 15.36 -4 12.72 -4 10 C-4.99 10 -5.98 10 -7 10 C-7 9.34 -7 8.68 -7 8 C-7.99 8 -8.98 8 -10 8 C-10 7.01 -10 6.02 -10 5 C-12.31 5 -14.62 5 -17 5 C-17 4.34 -17 3.68 -17 3 C-18.98 3 -20.96 3 -23 3 C-23 3.99 -23 4.98 -23 6 C-23.66 6 -24.32 6 -25 6 C-25 6.99 -25 7.98 -25 9 C-25.99 9 -26.98 9 -28 9 C-28 9.99 -28 10.98 -28 12 C-29.375 13.6875 -29.375 13.6875 -31 15 C-31.66 15 -32.32 15 -33 15 C-33 17.31 -33 19.62 -33 22 C-33.66 22 -34.32 22 -35 22 C-35 24.64 -35 27.28 -35 30 C-34.01 30 -33.02 30 -32 30 C-32 29.01 -32 28.02 -32 27 C-30.35 27 -28.7 27 -27 27 C-27 24.69 -27 22.38 -27 20 C-26.01 20 -25.02 20 -24 20 C-24 20.99 -24 21.98 -24 23 C-23.01 23 -22.02 23 -21 23 C-21 22.01 -21 21.02 -21 20 C-20.01 20 -19.02 20 -18 20 C-18 19.01 -18 18.02 -18 17 C-17.01 17 -16.02 17 -15 17 C-15 18.65 -15 20.3 -15 22 C-14.01 22 -13.02 22 -12 22 C-12 22.99 -12 23.98 -12 25 C-11.01 25 -10.02 25 -9 25 C-9 25.66 -9 26.32 -9 27 C-7.68 27 -6.36 27 -5 27 C-5 27.66 -5 28.32 -5 29 C-4.01 29 -3.02 29 -2 29 C-1.01751476 33.0527516 -0.91840426 36.83861737 -1 41 C-1.66 41 -2.32 41 -3 41 C-3 45.29 -3 49.58 -3 54 C-2.01 54 -1.02 54 0 54 C0 51.36 0 48.72 0 46 C0.99 46 1.98 46 3 46 C3 45.01 3 44.02 3 43 C3.66 43 4.32 43 5 43 C5 42.01 5 41.02 5 40 C7.97 39.505 7.97 39.505 11 39 C11 38.01 11 37.02 11 36 C13.97 36 16.94 36 20 36 C20 37.65 20 39.3 20 41 C20.99 41 21.98 41 23 41 C23 40.01 23 39.02 23 38 C27.455 37.505 27.455 37.505 32 37 C32 37.66 32 38.32 32 39 C33.98 39 35.96 39 38 39 C37.67 39.99 37.34 40.98 37 42 C36.01 42 35.02 42 34 42 C33.01 42.99 33.01 42.99 32 44 C31.401875 43.67 30.80375 43.34 30.1875 43 C27.94613529 41.79212012 27.94613529 41.79212012 25 42 C25.495 44.475 25.495 44.475 26 47 C28.64 47 31.28 47 34 47 C34 47.66 34 48.32 34 49 C35.98 49.495 35.98 49.495 38 50 C37.67 51.32 37.34 52.64 37 54 C36.34 54 35.68 54 35 54 C35 54.99 35 55.98 35 57 C33.37550757 58.70779973 31.70779973 60.37550757 30 62 C29.505 62.99 29.505 62.99 29 64 C26.36 64 23.72 64 21 64 C20.34 62.35 19.68 60.7 19 59 C15.72226496 59.75150023 15.72226496 59.75150023 14 63 C13.34 63 12.68 63 12 63 C11.67 63.99 11.34 64.98 11 66 C3.08 66.495 3.08 66.495 -5 67 C-5.33 66.01 -5.66 65.02 -6 64 C-6.99 64 -7.98 64 -9 64 C-9 63.34 -9 62.68 -9 62 C-9.99 62 -10.98 62 -12 62 C-13.60725635 58.78548731 -13.05748185 55.56387464 -13 52 C-7.25 50 -7.25 50 -5 50 C-5 46.37 -5 42.74 -5 39 C-4.34 39 -3.68 39 -3 39 C-3 38.01 -3 37.02 -3 36 C-3.99 36 -4.98 36 -6 36 C-6.495 33.525 -6.495 33.525 -7 31 C-7.66 31 -8.32 31 -9 31 C-9 30.34 -9 29.68 -9 29 C-10.32 28.67 -11.64 28.34 -13 28 C-13 27.34 -13 26.68 -13 26 C-15.43717258 26.27034634 -15.43717258 26.27034634 -18 27 C-18.66 27.99 -19.32 28.98 -20 30 C-21.9453125 30.29296875 -21.9453125 30.29296875 -24.125 30.1875 C-25.40375 30.125625 -26.6825 30.06375 -28 30 C-28 30.99 -28 31.98 -28 33 C-33.75 34.125 -33.75 34.125 -36 33 C-37.0317435 30.06699331 -37.10790988 27.33787164 -37.0625 24.25 C-37.05347656 23.45078125 -37.04445312 22.6515625 -37.03515625 21.828125 C-37.02355469 21.22484375 -37.01195312 20.6215625 -37 20 C-36.34 20 -35.68 20 -35 20 C-35 18.35 -35 16.7 -35 15 C-34.01 14.67 -33.02 14.34 -32 14 C-31.67 13.01 -31.34 12.02 -31 11 C-30.34 11 -29.68 11 -29 11 C-29 10.01 -29 9.02 -29 8 C-28.34 8 -27.68 8 -27 8 C-26.67 7.01 -26.34 6.02 -26 5 C-25.34 5 -24.68 5 -24 5 C-24 4.01 -24 3.02 -24 2 C-21.36 1.67 -18.72 1.34 -16 1 C-15.67 1.99 -15.34 2.98 -15 4 C-13.35 3.67 -11.7 3.34 -10 3 C-9.67 3.99 -9.34 4.98 -9 6 C-8.01 6 -7.02 6 -6 6 C-6 6.99 -6 7.98 -6 9 C-5.01 8.67 -4.02 8.34 -3 8 C-3 6.35 -3 4.7 -3 3 C-2.34 3 -1.68 3 -1 3 C-0.67 2.01 -0.34 1.02 0 0 Z M2 19 C2.33 19.99 2.66 20.98 3 22 C3.66 21.67 4.32 21.34 5 21 C5 20.34 5 19.68 5 19 C4.01 19 3.02 19 2 19 Z " fill="#EBEAEA" transform="translate(285,22)"/>
<path d="M0 0 C1.98 0 3.96 0 6 0 C6 0.66 6 1.32 6 2 C8.31 2 10.62 2 13 2 C13 2.99 13 3.98 13 5 C13.99 5 14.98 5 16 5 C16 5.66 16 6.32 16 7 C16.99 7 17.98 7 19 7 C19 9.64 19 12.28 19 15 C20.32 15 21.64 15 23 15 C23 17.64 23 20.28 23 23 C24.32 23 25.64 23 27 23 C27 22.01 27 21.02 27 20 C27.66 20 28.32 20 29 20 C29 20.99 29 21.98 29 23 C29.99 23 30.98 23 32 23 C32 23.66 32 24.32 32 25 C35.3 25 38.6 25 42 25 C42 25.66 42 26.32 42 27 C42.92941406 26.855625 43.85882813 26.71125 44.81640625 26.5625 C46.05261719 26.376875 47.28882813 26.19125 48.5625 26 C49.78066406 25.814375 50.99882812 25.62875 52.25390625 25.4375 C55.87627848 25.01444923 59.35712046 24.92498575 63 25 C63 25.99 63 26.98 63 28 C63.99 28 64.98 28 66 28 C66 28.66 66 29.32 66 30 C66.99 30 67.98 30 69 30 C69 32.64 69 35.28 69 38 C68.34 38 67.68 38 67 38 C67 38.99 67 39.98 67 41 C66.01 41 65.02 41 64 41 C64 40.34 64 39.68 64 39 C63.01 39 62.02 39 61 39 C61 38.01 61 37.02 61 36 C59.02 36 57.04 36 55 36 C55 35.34 55 34.68 55 34 C50.545 34.495 50.545 34.495 46 35 C46 35.99 46 36.98 46 38 C45.01 38 44.02 38 43 38 C43 36.35 43 34.7 43 33 C40.03 33 37.06 33 34 33 C34 33.99 34 34.98 34 36 C31.03 36.495 31.03 36.495 28 37 C28 37.99 28 38.98 28 40 C27.34 40 26.68 40 26 40 C26 40.99 26 41.98 26 43 C25.01 43 24.02 43 23 43 C23 45.64 23 48.28 23 51 C22.01 51 21.02 51 20 51 C20 46.71 20 42.42 20 38 C20.66 38 21.32 38 22 38 C21.505 32.06 21.505 32.06 21 26 C20.01 26 19.02 26 18 26 C18 25.34 18 24.68 18 24 C16.68 24 15.36 24 14 24 C14 23.34 14 22.68 14 22 C13.01 22 12.02 22 11 22 C11 21.01 11 20.02 11 19 C10.01 19 9.02 19 8 19 C8 17.35 8 15.7 8 14 C7.01 14 6.02 14 5 14 C5 14.99 5 15.98 5 17 C4.01 17 3.02 17 2 17 C2 17.99 2 18.98 2 20 C1.01 20 0.02 20 -1 20 C-1 19.01 -1 18.02 -1 17 C-1.99 17 -2.98 17 -4 17 C-4 19.31 -4 21.62 -4 24 C-5.65 24 -7.3 24 -9 24 C-9 24.99 -9 25.98 -9 27 C-9.99 27 -10.98 27 -12 27 C-12 24.36 -12 21.72 -12 19 C-11.34 19 -10.68 19 -10 19 C-10 16.69 -10 14.38 -10 12 C-9.34 12 -8.68 12 -8 12 C-7.67 11.01 -7.34 10.02 -7 9 C-6.34 9 -5.68 9 -5 9 C-5 8.01 -5 7.02 -5 6 C-4.01 6 -3.02 6 -2 6 C-2 5.01 -2 4.02 -2 3 C-1.34 3 -0.68 3 0 3 C0 2.01 0 1.02 0 0 Z " fill="#1D1D1D" transform="translate(262,25)"/>
<path d="M0 0 C1.05638672 0.00451172 2.11277344 0.00902344 3.20117188 0.01367188 C5.78000908 0.02534082 8.35872294 0.04171115 10.9375 0.0625 C11.4325 1.5475 11.4325 1.5475 11.9375 3.0625 C12.5975 3.3925 13.2575 3.7225 13.9375 4.0625 C14.2675 3.4025 14.5975 2.7425 14.9375 2.0625 C16.2575 2.3925 17.5775 2.7225 18.9375 3.0625 C19.33070004 15.14247886 19.33070004 15.14247886 16.9375 21.0625 C13.28096173 23.50019218 11.24749899 23.30194439 6.9375 23.0625 C6.6075 22.7325 6.2775 22.4025 5.9375 22.0625 C2.60131769 21.91992811 -0.72225606 22.02021843 -4.0625 22.0625 C-3.7325 25.6925 -3.4025 29.3225 -3.0625 33.0625 C-8.6725 33.7225 -14.2825 34.3825 -20.0625 35.0625 C-20.77508451 31.49957744 -21.18403291 28.92783836 -21.16015625 25.41796875 C-21.15693359 24.57685547 -21.15371094 23.73574219 -21.15039062 22.86914062 C-21.14201172 22.00482422 -21.13363281 21.14050781 -21.125 20.25 C-21.12048828 19.36634766 -21.11597656 18.48269531 -21.11132812 17.57226562 C-21.09959866 15.40231441 -21.08166495 13.23239828 -21.0625 11.0625 C-21.7225 11.0625 -22.3825 11.0625 -23.0625 11.0625 C-23.24124211 7.13017362 -23.28354895 4.38023306 -21.0625 1.0625 C-14.11012584 -0.27746313 -7.06049162 -0.05790939 0 0 Z M-5.0625 7.0625 C-5.0625 9.7025 -5.0625 12.3425 -5.0625 15.0625 C-0.92156302 15.27220559 -0.92156302 15.27220559 2.9375 14.0625 C2.9375 12.7425 2.9375 11.4225 2.9375 10.0625 C1.803125 9.93875 0.66875 9.815 -0.5 9.6875 C-1.675625 9.48125 -2.85125 9.275 -4.0625 9.0625 C-4.3925 8.4025 -4.7225 7.7425 -5.0625 7.0625 Z " fill="#008E8A" transform="translate(80.0625,54.9375)"/>
<path d="M0 0 C1.32 0.33 2.64 0.66 4 1 C3.01 1 2.02 1 1 1 C1 1.99 1 2.98 1 4 C0.34 4 -0.32 4 -1 4 C-0.505 8.95 -0.505 8.95 0 14 C0.99 14.33 1.98 14.66 3 15 C3 15.66 3 16.32 3 17 C3.99 17 4.98 17 6 17 C6 17.99 6 18.98 6 20 C6.99 20 7.98 20 9 20 C9 20.66 9 21.32 9 22 C10.65 22 12.3 22 14 22 C13.505 24.475 13.505 24.475 13 27 C14.65 27 16.3 27 18 27 C18 27.33 18 27.66 18 28 C15.03 28 12.06 28 9 28 C9 27.34 9 26.68 9 26 C8.01 26 7.02 26 6 26 C6 25.01 6 24.02 6 23 C5.34 23 4.68 23 4 23 C4 23.99 4 24.98 4 26 C2.68 26 1.36 26 0 26 C0 23.36 0 20.72 0 18 C-1.32 18 -2.64 18 -4 18 C-4 15.36 -4 12.72 -4 10 C-4.99 10 -5.98 10 -7 10 C-7 9.34 -7 8.68 -7 8 C-7.99 8 -8.98 8 -10 8 C-10 7.01 -10 6.02 -10 5 C-12.31 5 -14.62 5 -17 5 C-17 4.34 -17 3.68 -17 3 C-18.98 3 -20.96 3 -23 3 C-23 3.99 -23 4.98 -23 6 C-23.66 6 -24.32 6 -25 6 C-25 6.99 -25 7.98 -25 9 C-25.99 9 -26.98 9 -28 9 C-28 9.99 -28 10.98 -28 12 C-29.375 13.6875 -29.375 13.6875 -31 15 C-31.66 15 -32.32 15 -33 15 C-33 17.31 -33 19.62 -33 22 C-33.66 22 -34.32 22 -35 22 C-35 24.64 -35 27.28 -35 30 C-34.01 30 -33.02 30 -32 30 C-32 29.01 -32 28.02 -32 27 C-30.35 27 -28.7 27 -27 27 C-27 24.69 -27 22.38 -27 20 C-26.01 20 -25.02 20 -24 20 C-24 20.99 -24 21.98 -24 23 C-23.01 23 -22.02 23 -21 23 C-21 22.01 -21 21.02 -21 20 C-20.01 20 -19.02 20 -18 20 C-18 19.01 -18 18.02 -18 17 C-17.01 17 -16.02 17 -15 17 C-15 18.65 -15 20.3 -15 22 C-14.01 22 -13.02 22 -12 22 C-12 22.99 -12 23.98 -12 25 C-11.01 25 -10.02 25 -9 25 C-9 25.66 -9 26.32 -9 27 C-7.68 27 -6.36 27 -5 27 C-5 27.66 -5 28.32 -5 29 C-4.01 29 -3.02 29 -2 29 C-2 32.63 -2 36.26 -2 40 C-2.66 40 -3.32 40 -4 40 C-4 43.96 -4 47.92 -4 52 C-6.31 52 -8.62 52 -11 52 C-11 54.64 -11 57.28 -11 60 C-10.01 60 -9.02 60 -8 60 C-8 60.99 -8 61.98 -8 63 C-6.68 63 -5.36 63 -4 63 C-4 63.66 -4 64.32 -4 65 C-2.35 65 -0.7 65 1 65 C1 63.35 1 61.7 1 60 C1.99 60 2.98 60 4 60 C4 61.32 4 62.64 4 64 C6.31 64 8.62 64 11 64 C11 63.34 11 62.68 11 62 C11.66 62 12.32 62 13 62 C13 60.68 13 59.36 13 58 C13.66 58 14.32 58 15 58 C15.33 57.01 15.66 56.02 16 55 C16.99 55 17.98 55 19 55 C19 55.66 19 56.32 19 57 C19.99 57 20.98 57 22 57 C22.495 58.98 22.495 58.98 23 61 C24.65 61.33 26.3 61.66 28 62 C28 61.01 28 60.02 28 59 C28.66 59 29.32 59 30 59 C30 58.01 30 57.02 30 56 C30.99 56 31.98 56 33 56 C33 55.01 33 54.02 33 53 C33.99 53 34.98 53 36 53 C36 52.34 36 51.68 36 51 C35.01 51 34.02 51 33 51 C33 50.01 33 49.02 33 48 C31.02 48 29.04 48 27 48 C26.67 49.32 26.34 50.64 26 52 C25.34 52 24.68 52 24 52 C24 52.66 24 53.32 24 54 C23.01 54 22.02 54 21 54 C21.48036952 49.43648961 21.48036952 49.43648961 23.5625 47.6875 C27.10657174 46.68789002 30.32218719 46.87740624 34 47 C34 47.66 34 48.32 34 49 C35.98 49.495 35.98 49.495 38 50 C37.67 51.32 37.34 52.64 37 54 C36.34 54 35.68 54 35 54 C35 54.99 35 55.98 35 57 C33.37550757 58.70779973 31.70779973 60.37550757 30 62 C29.505 62.99 29.505 62.99 29 64 C26.36 64 23.72 64 21 64 C20.34 62.35 19.68 60.7 19 59 C15.72226496 59.75150023 15.72226496 59.75150023 14 63 C13.34 63 12.68 63 12 63 C11.67 63.99 11.34 64.98 11 66 C3.08 66.495 3.08 66.495 -5 67 C-5.33 66.01 -5.66 65.02 -6 64 C-6.99 64 -7.98 64 -9 64 C-9 63.34 -9 62.68 -9 62 C-9.99 62 -10.98 62 -12 62 C-13.60725635 58.78548731 -13.05748185 55.56387464 -13 52 C-7.25 50 -7.25 50 -5 50 C-5 46.37 -5 42.74 -5 39 C-4.34 39 -3.68 39 -3 39 C-3 38.01 -3 37.02 -3 36 C-3.99 36 -4.98 36 -6 36 C-6.495 33.525 -6.495 33.525 -7 31 C-7.66 31 -8.32 31 -9 31 C-9 30.34 -9 29.68 -9 29 C-10.32 28.67 -11.64 28.34 -13 28 C-13 27.34 -13 26.68 -13 26 C-15.43717258 26.27034634 -15.43717258 26.27034634 -18 27 C-18.66 27.99 -19.32 28.98 -20 30 C-21.9453125 30.29296875 -21.9453125 30.29296875 -24.125 30.1875 C-25.40375 30.125625 -26.6825 30.06375 -28 30 C-28 30.99 -28 31.98 -28 33 C-33.75 34.125 -33.75 34.125 -36 33 C-37.0317435 30.06699331 -37.10790988 27.33787164 -37.0625 24.25 C-37.05347656 23.45078125 -37.04445312 22.6515625 -37.03515625 21.828125 C-37.02355469 21.22484375 -37.01195312 20.6215625 -37 20 C-36.34 20 -35.68 20 -35 20 C-35 18.35 -35 16.7 -35 15 C-34.01 14.67 -33.02 14.34 -32 14 C-31.67 13.01 -31.34 12.02 -31 11 C-30.34 11 -29.68 11 -29 11 C-29 10.01 -29 9.02 -29 8 C-28.34 8 -27.68 8 -27 8 C-26.67 7.01 -26.34 6.02 -26 5 C-25.34 5 -24.68 5 -24 5 C-24 4.01 -24 3.02 -24 2 C-21.36 1.67 -18.72 1.34 -16 1 C-15.67 1.99 -15.34 2.98 -15 4 C-13.35 3.67 -11.7 3.34 -10 3 C-9.67 3.99 -9.34 4.98 -9 6 C-8.01 6 -7.02 6 -6 6 C-6 6.99 -6 7.98 -6 9 C-5.01 8.67 -4.02 8.34 -3 8 C-3 6.35 -3 4.7 -3 3 C-2.34 3 -1.68 3 -1 3 C-0.67 2.01 -0.34 1.02 0 0 Z M2 19 C2.33 19.99 2.66 20.98 3 22 C3.66 21.67 4.32 21.34 5 21 C5 20.34 5 19.68 5 19 C4.01 19 3.02 19 2 19 Z " fill="#F8F8F8" transform="translate(285,22)"/>
<path d="M0 0 C1.65 0 3.3 0 5 0 C5 0.66 5 1.32 5 2 C5.66 2 6.32 2 7 2 C7.30292969 2.74765625 7.60585937 3.4953125 7.91796875 4.265625 C8.33691406 5.25046875 8.75585938 6.2353125 9.1875 7.25 C9.79658203 8.71179688 9.79658203 8.71179688 10.41796875 10.203125 C11.8400541 13.14637273 11.8400541 13.14637273 14.58203125 14.96484375 C17.70101783 17.59003278 17.86534761 19.341256 18.5 23.3125 C19.32203069 27.5755894 20.0421981 30.64055255 22.75 34.0625 C23.4925 35.031875 24.235 36.00125 25 37 C24.640625 39.18359375 24.640625 39.18359375 24 41 C22.35 40.67 20.7 40.34 19 40 C19 39.01 19 38.02 19 37 C18.34 37 17.68 37 17 37 C16.72285156 36.37351563 16.44570312 35.74703125 16.16015625 35.1015625 C15.61681641 33.87566406 15.61681641 33.87566406 15.0625 32.625 C14.70285156 31.81289063 14.34320313 31.00078125 13.97265625 30.1640625 C13.3430097 28.76316215 12.68687358 27.37374716 12 26 C7.28613734 25.65969441 2.70400049 25.47249937 -2 26 C-5.42015902 29.26815195 -6.45264226 32.34745925 -7 37 C-8.98 37 -10.96 37 -13 37 C-13.495 39.475 -13.495 39.475 -14 42 C-15.485 42.495 -15.485 42.495 -17 43 C-17.94194129 35.19534358 -15.40231879 30.04597561 -11.80078125 23.35546875 C-10.37470793 20.69820849 -9.10764258 18.08598688 -7.9375 15.3125 C-5.65065715 10.01980694 -2.81751636 5.02457085 0 0 Z M3 9 C1.57741188 12.82320557 0.75957724 15.91281305 1 20 C3.31 19.34 5.62 18.68 8 18 C7.44271087 14.65626525 6.64826111 11.96687001 5 9 C4.34 9 3.68 9 3 9 Z " fill="#000000" transform="translate(72,18)"/>
<path d="M0 0 C3.63 0 7.26 0 11 0 C11 1.98 11 3.96 11 6 C10.030625 6.268125 9.06125 6.53625 8.0625 6.8125 C7.051875 7.204375 6.04125 7.59625 5 8 C4.67 8.99 4.34 9.98 4 11 C4.99 11 5.98 11 7 11 C7 11.66 7 12.32 7 13 C8.65 13 10.3 13 12 13 C12.33 12.01 12.66 11.02 13 10 C13.66 10 14.32 10 15 10 C15 8.35 15 6.7 15 5 C15.99 5 16.98 5 18 5 C18.91657981 10.38490641 19.11138159 15.54230189 19 21 C18.01 21 17.02 21 16 21 C16 21.99 16 22.98 16 24 C15.34 24 14.68 24 14 24 C14 25.32 14 26.64 14 28 C10.04 28 6.08 28 2 28 C2 27.34 2 26.68 2 26 C1.01 26 0.02 26 -1 26 C-1 25.01 -1 24.02 -1 23 C-1.99 23 -2.98 23 -4 23 C-4 22.34 -4 21.68 -4 21 C-5.32 20.67 -6.64 20.34 -8 20 C-8 16.7 -8 13.4 -8 10 C-7.34 10 -6.68 10 -6 10 C-6 9.01 -6 8.02 -6 7 C-5.01 7 -4.02 7 -3 7 C-2.67 5.68 -2.34 4.36 -2 3 C-1.34 3 -0.68 3 0 3 C0 2.01 0 1.02 0 0 Z " fill="#239280" transform="translate(292,16)"/>
<path d="M0 0 C0.33 1.98 0.66 3.96 1 6 C0.01 6.33 -0.98 6.66 -2 7 C-2 9.64 -2 12.28 -2 15 C-1.34 15 -0.68 15 0 15 C0.66 16.65 1.32 18.3 2 20 C4.97 20 7.94 20 11 20 C11.33 20.99 11.66 21.98 12 23 C12.66 23 13.32 23 14 23 C13.67 24.65 13.34 26.3 13 28 C12.319375 27.91621094 11.63875 27.83242187 10.9375 27.74609375 C2.10915257 26.81864768 -6.16967148 27.3148883 -15 28 C-14.67 22.39 -14.34 16.78 -14 11 C-14.66 11 -15.32 11 -16 11 C-16.48275862 4.60344828 -16.48275862 4.60344828 -14.5 2.125 C-9.83596738 0.02618532 -5.05648025 0 0 0 Z " fill="#008E8A" transform="translate(142,58)"/>
<path d="M0 0 C2.125 0.9375 2.125 0.9375 4 2 C4 3.32 4 4.64 4 6 C3.34 6 2.68 6 2 6 C2 6.66 2 7.32 2 8 C-0.31 8.33 -2.62 8.66 -5 9 C-4.85691406 9.65355469 -4.71382813 10.30710937 -4.56640625 10.98046875 C-3.86075015 14.74234578 -3.39579129 18.51377438 -2.9375 22.3125 C-2.84662109 23.05306641 -2.75574219 23.79363281 -2.66210938 24.55664062 C-2.43971781 26.37088758 -2.21962647 28.18541624 -2 30 C-3.95803507 30.05389087 -5.91648909 30.09274217 -7.875 30.125 C-8.96554687 30.14820312 -10.05609375 30.17140625 -11.1796875 30.1953125 C-14 30 -14 30 -16 28 C-16.3063859 25.26565038 -16.5113336 22.61720179 -16.625 19.875 C-16.66367188 19.12089844 -16.70234375 18.36679688 -16.7421875 17.58984375 C-16.83651031 15.72696816 -16.91934662 13.86351745 -17 12 C-19.31 12 -21.62 12 -24 12 C-23.125 4.125 -23.125 4.125 -22 3 C-20.5112814 2.91330568 -19.018555 2.89296506 -17.52734375 2.90234375 C-16.62822266 2.90556641 -15.72910156 2.90878906 -14.80273438 2.91210938 C-13.85720703 2.92048828 -12.91167969 2.92886719 -11.9375 2.9375 C-10.98810547 2.94201172 -10.03871094 2.94652344 -9.06054688 2.95117188 C-6.70696935 2.9629989 -4.35351523 2.97947975 -2 3 C-2 2.34 -2 1.68 -2 1 C-1.34 0.67 -0.68 0.34 0 0 Z " fill="#008E8A" transform="translate(271,55)"/>
<path d="M0 0 C0 0.66 0 1.32 0 2 C0.99 2 1.98 2 3 2 C5.38241252 4.17820573 6.86040915 5.83817466 7.25390625 9.11328125 C7.25041769 11.07734214 7.13285191 13.04043431 7 15 C7.99 15 8.98 15 10 15 C10 14.01 10 13.02 10 12 C10.99 12 11.98 12 13 12 C13 10.35 13 8.7 13 7 C17.455 6.505 17.455 6.505 22 6 C22 6.99 22 7.98 22 9 C22.99 9 23.98 9 25 9 C25.36213469 13.46632783 25.36213469 13.46632783 23.8125 15.75 C21.59332081 17.28046841 19.62668426 17.51613711 17 18 C16.67 18.66 16.34 19.32 16 20 C14.35 20 12.7 20 11 20 C11 21.98 11 23.96 11 26 C13.31 26 15.62 26 18 26 C18 26.66 18 27.32 18 28 C18.99 28 19.98 28 21 28 C21 29.65 21 31.3 21 33 C20.34 33 19.68 33 19 33 C19 32.34 19 31.68 19 31 C17.02 31 15.04 31 13 31 C13 30.34 13 29.68 13 29 C11.68 29 10.36 29 9 29 C8.505 22.565 8.505 22.565 8 16 C7.01 16 6.02 16 5 16 C5.061875 16.763125 5.12375 17.52625 5.1875 18.3125 C5 21 5 21 3.8125 22.8125 C1.44017475 24.36678206 -0.22041345 24.22537188 -3 24 C-3 23.34 -3 22.68 -3 22 C-3.99 22 -4.98 22 -6 22 C-5.67 20.68 -5.34 19.36 -5 18 C-3.02 17.67 -1.04 17.34 1 17 C1 15.02 1 13.04 1 11 C-2.63 11 -6.26 11 -10 11 C-10 10.34 -10 9.68 -10 9 C-9.34 9 -8.68 9 -8 9 C-8.0928125 7.6078125 -8.0928125 7.6078125 -8.1875 6.1875 C-8 3 -8 3 -6.8125 1.125 C-4.43963721 -0.34781139 -2.74086056 -0.22223194 0 0 Z " fill="#E8E5E2" transform="translate(302,5)"/>
<path d="M0 0 C1.98 0 3.96 0 6 0 C6 0.66 6 1.32 6 2 C6.83144531 1.96519531 7.66289063 1.93039063 8.51953125 1.89453125 C10.14955078 1.85392578 10.14955078 1.85392578 11.8125 1.8125 C12.89144531 1.77769531 13.97039062 1.74289063 15.08203125 1.70703125 C18 2 18 2 19.875 3.34375 C21.41566389 5.61194961 21.21715415 7.32176545 21 10 C18.525 9.505 18.525 9.505 16 9 C16.33 12.63 16.66 16.26 17 20 C17.66 20 18.32 20 19 20 C19.04241723 22.33294775 19.04092937 24.66702567 19 27 C18 28 18 28 15.6015625 28.1328125 C14.61929688 28.13023438 13.63703125 28.12765625 12.625 28.125 C11.64789063 28.12757812 10.67078125 28.13015625 9.6640625 28.1328125 C7 28 7 28 4 27 C4 27.66 4 28.32 4 29 C2.35 29 0.7 29 -1 29 C-1.25 26.8125 -1.25 26.8125 -1 24 C-0.360625 23.29875 0.27875 22.5975 0.9375 21.875 C4.01584413 17.58397485 3.81905846 13.16588085 4 8 C3.01 8 2.02 8 1 8 C-0.42944945 5.64561267 -1.08661261 4.51967567 -0.625 1.75 C-0.41875 1.1725 -0.2125 0.595 0 0 Z " fill="#008E8B" transform="translate(102,56)"/>
<path d="M0 0 C1.32 0 2.64 0 4 0 C4 1.65 4 3.3 4 5 C4.99 5 5.98 5 7 5 C7 6.65 7 8.3 7 10 C6.34 10 5.68 10 5 10 C5 13.96 5 17.92 5 22 C2.69 22 0.38 22 -2 22 C-2 24.64 -2 27.28 -2 30 C-1.01 30 -0.02 30 1 30 C1 30.99 1 31.98 1 33 C2.32 33 3.64 33 5 33 C5 33.66 5 34.32 5 35 C6.65 35 8.3 35 10 35 C10 33.35 10 31.7 10 30 C10.99 30 11.98 30 13 30 C13 31.32 13 32.64 13 34 C15.31 34 17.62 34 20 34 C20 33.34 20 32.68 20 32 C20.66 32 21.32 32 22 32 C22 30.68 22 29.36 22 28 C22.66 28 23.32 28 24 28 C24.33 27.01 24.66 26.02 25 25 C25.99 25 26.98 25 28 25 C28 25.66 28 26.32 28 27 C28.99 27 29.98 27 31 27 C31.495 28.98 31.495 28.98 32 31 C33.65 31.33 35.3 31.66 37 32 C37 31.01 37 30.02 37 29 C37.66 29 38.32 29 39 29 C39 28.01 39 27.02 39 26 C39.99 26 40.98 26 42 26 C42 25.01 42 24.02 42 23 C42.99 23 43.98 23 45 23 C45 22.34 45 21.68 45 21 C44.01 21 43.02 21 42 21 C42 20.01 42 19.02 42 18 C40.02 18 38.04 18 36 18 C35.67 19.32 35.34 20.64 35 22 C34.34 22 33.68 22 33 22 C33 22.66 33 23.32 33 24 C32.01 24 31.02 24 30 24 C30.48036952 19.43648961 30.48036952 19.43648961 32.5625 17.6875 C36.10657174 16.68789002 39.32218719 16.87740624 43 17 C43 17.66 43 18.32 43 19 C44.32 19.33 45.64 19.66 47 20 C46.67 21.32 46.34 22.64 46 24 C45.34 24 44.68 24 44 24 C44 24.99 44 25.98 44 27 C42.37550757 28.70779973 40.70779973 30.37550757 39 32 C38.505 32.99 38.505 32.99 38 34 C35.36 34 32.72 34 30 34 C29.34 32.35 28.68 30.7 28 29 C24.72226496 29.75150023 24.72226496 29.75150023 23 33 C22.34 33 21.68 33 21 33 C20.67 33.99 20.34 34.98 20 36 C12.08 36.495 12.08 36.495 4 37 C3.505 35.515 3.505 35.515 3 34 C2.01 34 1.02 34 0 34 C0 33.34 0 32.68 0 32 C-0.99 32 -1.98 32 -3 32 C-4.60725635 28.78548731 -4.05748185 25.56387464 -4 22 C1.75 20 1.75 20 4 20 C4 16.37 4 12.74 4 9 C4.66 9 5.32 9 6 9 C6 8.01 6 7.02 6 6 C5.01 6 4.02 6 3 6 C2.87625 5.195625 2.7525 4.39125 2.625 3.5625 C2.41875 2.716875 2.2125 1.87125 2 1 C1.34 0.67 0.68 0.34 0 0 Z " fill="#FCF4F0" transform="translate(276,52)"/>
<path d="M0 0 C0.33 0.66 0.66 1.32 1 2 C1.99 2.33 2.98 2.66 4 3 C4 3.66 4 4.32 4 5 C4.99 5.33 5.98 5.66 7 6 C7.33 8.31 7.66 10.62 8 13 C8.99 13 9.98 13 11 13 C10.67 11.35 10.34 9.7 10 8 C12.52475462 6.73762269 14.31200466 6.90143596 17.125 6.9375 C18.03507812 6.94652344 18.94515625 6.95554687 19.8828125 6.96484375 C20.93082031 6.98224609 20.93082031 6.98224609 22 7 C22 7.66 22 8.32 22 9 C22.99 9 23.98 9 25 9 C26.35439668 11.70879335 26.06501451 14.00933268 26 17 C25.01 17 24.02 17 23 17 C22.9071875 17.928125 22.9071875 17.928125 22.8125 18.875 C22 21 22 21 19.75 22.1875 C17.17493405 22.94831494 14.64555693 23.54647595 12 24 C12.33 24.66 12.66 25.32 13 26 C14.65 26 16.3 26 18 26 C18 26.99 18 27.98 18 29 C19.32 29.33 20.64 29.66 22 30 C22 32.31 22 34.62 22 37 C20.35 37 18.7 37 17 37 C17 36.01 17 35.02 17 34 C15.35 34 13.7 34 12 34 C12 33.67 12 33.34 12 33 C13.98 33 15.96 33 18 33 C18 33.66 18 34.32 18 35 C18.66 35 19.32 35 20 35 C20 33.35 20 31.7 20 30 C19.01 30 18.02 30 17 30 C17 29.34 17 28.68 17 28 C14.69 28 12.38 28 10 28 C10 26.02 10 24.04 10 22 C11.65 22 13.3 22 15 22 C15.33 21.01 15.66 20.02 16 19 C17.65 19 19.3 19 21 19 C21.495 17.515 21.495 17.515 22 16 C22.66 16 23.32 16 24 16 C24 14.35 24 12.7 24 11 C23.01 11 22.02 11 21 11 C21 10.01 21 9.02 21 8 C20.34 8.33 19.68 8.66 19 9 C16.6670134 9.04022391 14.33293334 9.04320247 12 9 C12 10.65 12 12.3 12 14 C11.01 14 10.02 14 9 14 C9 14.99 9 15.98 9 17 C8.01 17 7.02 17 6 17 C5.505 12.05 5.505 12.05 5 7 C4.01 6.67 3.02 6.34 2 6 C2 5.34 2 4.68 2 4 C1.01 4 0.02 4 -1 4 C-1 3.34 -1 2.68 -1 2 C-2.65 2 -4.3 2 -6 2 C-6.33 2.99 -6.66 3.98 -7 5 C-7.66 5 -8.32 5 -9 5 C-9 6.98 -9 8.96 -9 11 C-9.66 11 -10.32 11 -11 11 C-10.938125 11.763125 -10.87625 12.52625 -10.8125 13.3125 C-11 16 -11 16 -12.375 17.8125 C-14 19 -14 19 -16 19 C-15.67 17.68 -15.34 16.36 -15 15 C-14.34 15 -13.68 15 -13 15 C-13 13.35 -13 11.7 -13 10 C-12.01 10 -11.02 10 -10 10 C-10.33 8.35 -10.66 6.7 -11 5 C-10.01 4.67 -9.02 4.34 -8 4 C-8 3.01 -8 2.02 -8 1 C-5.10765685 0.17361624 -3.11257569 0 0 0 Z " fill="#FCF2EC" transform="translate(303,3)"/>
<path d="M0 0 C0 0.99 0 1.98 0 3 C0.99 3 1.98 3 3 3 C3.36213469 7.46632783 3.36213469 7.46632783 1.8125 9.75 C-0.40667919 11.28046841 -2.37331574 11.51613711 -5 12 C-5.33 12.66 -5.66 13.32 -6 14 C-7.65 14 -9.3 14 -11 14 C-11 15.98 -11 17.96 -11 20 C-8.69 20 -6.38 20 -4 20 C-4 20.66 -4 21.32 -4 22 C-3.01 22 -2.02 22 -1 22 C-1 23.65 -1 25.3 -1 27 C-1.66 27 -2.32 27 -3 27 C-3 26.34 -3 25.68 -3 25 C-4.98 25 -6.96 25 -9 25 C-9 24.34 -9 23.68 -9 23 C-10.32 23 -11.64 23 -13 23 C-13.33 18.71 -13.66 14.42 -14 10 C-13.01 10 -12.02 10 -11 10 C-11 9.01 -11 8.02 -11 7 C-10.34 7 -9.68 7 -9 7 C-9 5.02 -9 3.04 -9 1 C-2.25 0 -2.25 0 0 0 Z " fill="#F7B78C" transform="translate(324,11)"/>
<path d="M0 0 C0.33 0 0.66 0 1 0 C1 2.31 1 4.62 1 7 C0.34 7 -0.32 7 -1 7 C-1 12.28 -1 17.56 -1 23 C0.32 23 1.64 23 3 23 C3 22.01 3 21.02 3 20 C4.65 20 6.3 20 8 20 C8 20.66 8 21.32 8 22 C7.34 22 6.68 22 6 22 C6 22.99 6 23.98 6 25 C5.01 25 4.02 25 3 25 C3 26.98 3 28.96 3 31 C1.35 31 -0.3 31 -2 31 C-2 30.34 -2 29.68 -2 29 C-3.32 29 -4.64 29 -6 29 C-6 28.01 -6 27.02 -6 26 C-6.99 26 -7.98 26 -9 26 C-9 23.36 -9 20.72 -9 18 C-6.69 18 -4.38 18 -2 18 C-2 14.04 -2 10.08 -2 6 C-1.34 6 -0.68 6 0 6 C0 4.02 0 2.04 0 0 Z " fill="#E3B393" transform="translate(283,56)"/>
<path d="M0 0 C1.32 0.33 2.64 0.66 4 1 C3.01 1 2.02 1 1 1 C1 1.99 1 2.98 1 4 C0.34 4 -0.32 4 -1 4 C-0.67 7.3 -0.34 10.6 0 14 C0.99 14.33 1.98 14.66 3 15 C3 15.66 3 16.32 3 17 C3.99 17 4.98 17 6 17 C6 17.99 6 18.98 6 20 C6.99 20 7.98 20 9 20 C9 20.66 9 21.32 9 22 C10.65 22 12.3 22 14 22 C13.67 23.65 13.34 25.3 13 27 C14.65 27 16.3 27 18 27 C18 27.33 18 27.66 18 28 C15.03 28 12.06 28 9 28 C9 27.34 9 26.68 9 26 C8.01 26 7.02 26 6 26 C6 25.01 6 24.02 6 23 C5.34 23 4.68 23 4 23 C4 23.99 4 24.98 4 26 C2.68 26 1.36 26 0 26 C0 23.36 0 20.72 0 18 C-1.32 18 -2.64 18 -4 18 C-4 15.36 -4 12.72 -4 10 C-3.34 10 -2.68 10 -2 10 C-2.33 7.69 -2.66 5.38 -3 3 C-2.34 3 -1.68 3 -1 3 C-0.67 2.01 -0.34 1.02 0 0 Z M2 19 C2.33 19.99 2.66 20.98 3 22 C3.66 21.67 4.32 21.34 5 21 C5 20.34 5 19.68 5 19 C4.01 19 3.02 19 2 19 Z " fill="#DEE6E4" transform="translate(285,22)"/>
<path d="M0 0 C0.99 0 1.98 0 3 0 C3 1.65 3 3.3 3 5 C3.99 5 4.98 5 6 5 C6 5.99 6 6.98 6 8 C6.99 8 7.98 8 9 8 C9 8.66 9 9.32 9 10 C9.99 10.66 10.98 11.32 12 12 C10.02 12.33 8.04 12.66 6 13 C7.32 13.66 8.64 14.32 10 15 C9.01 15 8.02 15 7 15 C7 15.99 7 16.98 7 18 C6.34 18 5.68 18 5 18 C4.67 17.34 4.34 16.68 4 16 C2.35 16 0.7 16 -1 16 C-1 15.34 -1 14.68 -1 14 C-1.99 14 -2.98 14 -4 14 C-4.33 11.36 -4.66 8.72 -5 6 C-4.34 6 -3.68 6 -3 6 C-3 5.01 -3 4.02 -3 3 C-2.01 3 -1.02 3 0 3 C0 2.01 0 1.02 0 0 Z " fill="#0F8E81" transform="translate(289,20)"/>
<path d="M0 0 C1.98 0 3.96 0 6 0 C6 0.99 6 1.98 6 3 C6.99 3 7.98 3 9 3 C9 3.66 9 4.32 9 5 C8.01 5 7.02 5 6 5 C6 5.99 6 6.98 6 8 C5.01 8 4.02 8 3 8 C3 8.99 3 9.98 3 11 C2.34 11 1.68 11 1 11 C1 11.99 1 12.98 1 14 C-0.65 14 -2.3 14 -4 14 C-4.33 12.35 -4.66 10.7 -5 9 C-5.99 9 -6.98 9 -8 9 C-8 8.34 -8 7.68 -8 7 C-9.32 7 -10.64 7 -12 7 C-12 6.01 -12 5.02 -12 4 C-10.02 4 -8.04 4 -6 4 C-6 4.66 -6 5.32 -6 6 C-5.01 6 -4.02 6 -3 6 C-3 5.34 -3 4.68 -3 4 C-2.34 3.67 -1.68 3.34 -1 3 C-0.67 2.01 -0.34 1.02 0 0 Z " fill="#F6B890" transform="translate(312,70)"/>
<path d="M0 0 C1.65 0 3.3 0 5 0 C5 1.32 5 2.64 5 4 C4.01 4 3.02 4 2 4 C2 4.99 2 5.98 2 7 C-0.64 7.33 -3.28 7.66 -6 8 C-6 10.31 -6 12.62 -6 15 C-7.65 15 -9.3 15 -11 15 C-11 15.99 -11 16.98 -11 18 C-11.99 18 -12.98 18 -14 18 C-14 15.36 -14 12.72 -14 10 C-13.34 10 -12.68 10 -12 10 C-12 8.02 -12 6.04 -12 4 C-6.555 3.505 -6.555 3.505 -1 3 C-0.67 3.66 -0.34 4.32 0 5 C0 3.35 0 1.7 0 0 Z " fill="#0E0E0E" transform="translate(264,34)"/>
<path d="M0 0 C0 0.66 0 1.32 0 2 C0.99 2 1.98 2 3 2 C4.6875 3.5 4.6875 3.5 6 5 C4.125 8.875 4.125 8.875 3 10 C0.81707226 10.23481693 -1.37203174 10.41363323 -3.5625 10.5625 C-4.76003906 10.64628906 -5.95757812 10.73007813 -7.19140625 10.81640625 C-8.11824219 10.87699219 -9.04507812 10.93757812 -10 11 C-10 10.34 -10 9.68 -10 9 C-9.34 9 -8.68 9 -8 9 C-8.0928125 7.6078125 -8.0928125 7.6078125 -8.1875 6.1875 C-8 3 -8 3 -6.8125 1.125 C-4.43963721 -0.34781139 -2.74086056 -0.22223194 0 0 Z " fill="#EDEDED" transform="translate(302,5)"/>
<path d="M0 0 C1.98 0 3.96 0 6 0 C6 0.33 6 0.66 6 1 C4.35 1 2.7 1 1 1 C1.33 1.99 1.66 2.98 2 4 C1.01 4 0.02 4 -1 4 C-1 5.32 -1 6.64 -1 8 C1.97 8 4.94 8 8 8 C8 8.66 8 9.32 8 10 C8.66 10.33 9.32 10.66 10 11 C9.34 11 8.68 11 8 11 C8 11.99 8 12.98 8 14 C7.01 14 6.02 14 5 14 C5 14.99 5 15.98 5 17 C4.01 17 3.02 17 2 17 C2 17.99 2 18.98 2 20 C1.01 20 0.02 20 -1 20 C-1 19.01 -1 18.02 -1 17 C0.65 16.67 2.3 16.34 4 16 C4 15.01 4 14.02 4 13 C4.99 13 5.98 13 7 13 C7 11.68 7 10.36 7 9 C5.35 9 3.7 9 2 9 C2.33 10.98 2.66 12.96 3 15 C1.35 15 -0.3 15 -2 15 C-1.01 14.67 -0.02 14.34 1 14 C1 13.34 1 12.68 1 12 C0.01 12.495 0.01 12.495 -1 13 C-2.54023996 13.06950541 -4.08334988 13.08452357 -5.625 13.0625 C-6.85089844 13.04896484 -6.85089844 13.04896484 -8.1015625 13.03515625 C-9.04128906 13.01775391 -9.04128906 13.01775391 -10 13 C-9.34 12.67 -8.68 12.34 -8 12 C-7.67 11.01 -7.34 10.02 -7 9 C-6.34 9 -5.68 9 -5 9 C-5 8.01 -5 7.02 -5 6 C-4.01 6 -3.02 6 -2 6 C-2 5.01 -2 4.02 -2 3 C-1.34 3 -0.68 3 0 3 C0 2.01 0 1.02 0 0 Z " fill="#292929" transform="translate(262,25)"/>
<path d="M0 0 C3.96 0.33 7.92 0.66 12 1 C12 1.99 12 2.98 12 4 C12.66 4 13.32 4 14 4 C14 4.66 14 5.32 14 6 C14.99 6.66 15.98 7.32 17 8 C13.52674819 9.1577506 10.63932552 9.06866652 7 9 C7 8.34 7 7.68 7 7 C4.03 7 1.06 7 -2 7 C-2 5.68 -2 4.36 -2 3 C-1.34 2.67 -0.68 2.34 0 2 C0 1.34 0 0.68 0 0 Z " fill="#141414" transform="translate(263,26)"/>
<path d="M0 0 C3.63 0 7.26 0 11 0 C11 1.98 11 3.96 11 6 C10.030625 6.268125 9.06125 6.53625 8.0625 6.8125 C7.051875 7.204375 6.04125 7.59625 5 8 C4.67 8.99 4.34 9.98 4 11 C4.99 11 5.98 11 7 11 C7 11.66 7 12.32 7 13 C8.65 13 10.3 13 12 13 C12.33 12.34 12.66 11.68 13 11 C13 11.99 13 12.98 13 14 C10.69 14 8.38 14 6 14 C6 13.34 6 12.68 6 12 C5.01 12 4.02 12 3 12 C3 11.01 3 10.02 3 9 C2.01 9 1.02 9 0 9 C0 7.35 0 5.7 0 4 C-0.66 3.67 -1.32 3.34 -2 3 C-1.34 3 -0.68 3 0 3 C0 2.01 0 1.02 0 0 Z " fill="#C8DBD6" transform="translate(292,16)"/>
<path d="M0 0 C0.33 0.66 0.66 1.32 1 2 C1.99 2.33 2.98 2.66 4 3 C4 3.66 4 4.32 4 5 C4.99 5.33 5.98 5.66 7 6 C7.33 8.31 7.66 10.62 8 13 C8.99 13 9.98 13 11 13 C10.67 11.35 10.34 9.7 10 8 C10.66 8 11.32 8 12 8 C12 9.98 12 11.96 12 14 C11.01 14 10.02 14 9 14 C9 14.99 9 15.98 9 17 C8.01 17 7.02 17 6 17 C5.505 12.05 5.505 12.05 5 7 C4.01 6.67 3.02 6.34 2 6 C2 5.34 2 4.68 2 4 C1.01 4 0.02 4 -1 4 C-1 3.34 -1 2.68 -1 2 C-2.65 2 -4.3 2 -6 2 C-6.33 2.99 -6.66 3.98 -7 5 C-7.66 5 -8.32 5 -9 5 C-9 6.98 -9 8.96 -9 11 C-9.66 11 -10.32 11 -11 11 C-10.938125 11.763125 -10.87625 12.52625 -10.8125 13.3125 C-11 16 -11 16 -12.375 17.8125 C-14 19 -14 19 -16 19 C-15.67 17.68 -15.34 16.36 -15 15 C-14.34 15 -13.68 15 -13 15 C-13 13.35 -13 11.7 -13 10 C-12.01 10 -11.02 10 -10 10 C-10.33 8.35 -10.66 6.7 -11 5 C-10.01 4.67 -9.02 4.34 -8 4 C-8 3.01 -8 2.02 -8 1 C-5.10765685 0.17361624 -3.11257569 0 0 0 Z " fill="#FCFCFC" transform="translate(303,3)"/>
<path d="M0 0 C4.19469571 0.59924224 8.00999834 1.57499941 12 3 C12 3.66 12 4.32 12 5 C11.34 5 10.68 5 10 5 C10 6.32 10 7.64 10 9 C9.34 9 8.68 9 8 9 C8 9.66 8 10.32 8 11 C5.69 11 3.38 11 1 11 C1 9.68 1 8.36 1 7 C0.01 6.67 -0.98 6.34 -2 6 C-1.01 6 -0.02 6 1 6 C1 5.01 1 4.02 1 3 C1.66 3 2.32 3 3 3 C3 2.34 3 1.68 3 1 C2.01 0.67 1.02 0.34 0 0 Z " fill="#ECE8E6" transform="translate(288,75)"/>
<path d="M0 0 C1.65 0 3.3 0 5 0 C5 0.66 5 1.32 5 2 C5.99 2 6.98 2 8 2 C8 4.64 8 7.28 8 10 C7.34 10 6.68 10 6 10 C6 10.99 6 11.98 6 13 C5.34 13 4.68 13 4 13 C4 12.01 4 11.02 4 10 C3.01 9.67 2.02 9.34 1 9 C1.33 8.34 1.66 7.68 2 7 C0.35 7 -1.3 7 -3 7 C-3 5.68 -3 4.36 -3 3 C-2.01 2.67 -1.02 2.34 0 2 C0 1.34 0 0.68 0 0 Z " fill="#1C1C1C" transform="translate(323,53)"/>
<path d="M0 0 C0.33 0 0.66 0 1 0 C1 3.96 1 7.92 1 12 C0.34 12 -0.32 12 -1 12 C-1 12.99 -1 13.98 -1 15 C-3.73247348 16.36623674 -5.98198902 16.128426 -9 16 C-10 15 -10 15 -10.0625 12.4375 C-10.041875 11.633125 -10.02125 10.82875 -10 10 C-11.32 9.67 -12.64 9.34 -14 9 C-10.94736336 8.01879536 -9.05263664 8.01879536 -6 9 C-6 9.66 -6 10.32 -6 11 C-5.01 11 -4.02 11 -3 11 C-3 10.01 -3 9.02 -3 8 C-2.01 8 -1.02 8 0 8 C0 5.36 0 2.72 0 0 Z " fill="#F8F8F8" transform="translate(332,55)"/>
<path d="M0 0 C0 0.99 0 1.98 0 3 C-0.66 3 -1.32 3 -2 3 C-2 3.66 -2 4.32 -2 5 C-1.01 5.33 -0.02 5.66 1 6 C-0.98 6 -2.96 6 -5 6 C-5 7.32 -5 8.64 -5 10 C-3.35 10 -1.7 10 0 10 C0 10.66 0 11.32 0 12 C0.66 12.33 1.32 12.66 2 13 C1.67 13.99 1.34 14.98 1 16 C1 15.34 1 14.68 1 14 C0.01 14 -0.98 14 -2 14 C-2 13.01 -2 12.02 -2 11 C-3.98 11 -5.96 11 -8 11 C-8 10.34 -8 9.68 -8 9 C-7.34 9 -6.68 9 -6 9 C-6 7.35 -6 5.7 -6 4 C-7.093125 4.061875 -8.18625 4.12375 -9.3125 4.1875 C-13 4 -13 4 -14.73046875 2.48828125 C-15.14941406 1.99714844 -15.56835938 1.50601563 -16 1 C-10.62915894 0.31798844 -5.41499441 -0.11521265 0 0 Z " fill="#2B2B2B" transform="translate(325,50)"/>
<path d="M0 0 C1.65 0 3.3 0 5 0 C5 0.66 5 1.32 5 2 C4.34 2 3.68 2 3 2 C3 2.99 3 3.98 3 5 C2.01 5 1.02 5 0 5 C0 6.98 0 8.96 0 11 C-1.65 11 -3.3 11 -5 11 C-5 10.34 -5 9.68 -5 9 C-6.32 9 -7.64 9 -9 9 C-8.75 7.125 -8.75 7.125 -8 5 C-5.06004981 2.97244814 -3.72295997 3 0 3 C0 2.01 0 1.02 0 0 Z " fill="#F4B58E" transform="translate(286,76)"/>
<path d="M0 0 C0.33 0.66 0.66 1.32 1 2 C1.99 2 2.98 2 4 2 C4 2.99 4 3.98 4 5 C4.99 5 5.98 5 7 5 C7 5.66 7 6.32 7 7 C8.65 7 10.3 7 12 7 C11.67 8.65 11.34 10.3 11 12 C12.65 12 14.3 12 16 12 C16 12.33 16 12.66 16 13 C13.03 13 10.06 13 7 13 C7 12.34 7 11.68 7 11 C6.01 11 5.02 11 4 11 C4 10.01 4 9.02 4 8 C3.34 8 2.68 8 2 8 C1.67 8.99 1.34 9.98 1 11 C1.52268466 8.23723823 2.10869587 5.6739124 3 3 C2.01 3 1.02 3 0 3 C0 2.01 0 1.02 0 0 Z " fill="#C8CFCE" transform="translate(287,37)"/>
<path d="M0 0 C1.98 0 3.96 0 6 0 C6 2.31 6 4.62 6 7 C4.35 7 2.7 7 1 7 C1 7.99 1 8.98 1 10 C0.01 10 -0.98 10 -2 10 C-2 7.36 -2 4.72 -2 2 C-1.34 2 -0.68 2 0 2 C0 1.34 0 0.68 0 0 Z " fill="#151515" transform="translate(252,42)"/>
<path d="M0 0 C1.65 0 3.3 0 5 0 C5.33 1.65 5.66 3.3 6 5 C8.64 5 11.28 5 14 5 C14 6.32 14 7.64 14 9 C12.68 9 11.36 9 10 9 C10 8.34 10 7.68 10 7 C6.7 7 3.4 7 0 7 C0 4.69 0 2.38 0 0 Z " fill="#0F0F0F" transform="translate(270,36)"/>
<path d="M0 0 C2.64 0 5.28 0 8 0 C8 2.31 8 4.62 8 7 C4.37 7.33 0.74 7.66 -3 8 C-3 7.34 -3 6.68 -3 6 C-2.01 5.67 -1.02 5.34 0 5 C0 3.35 0 1.7 0 0 Z " fill="#148F81" transform="translate(297,36)"/>
<path d="M0 0 C1.134375 0.020625 2.26875 0.04125 3.4375 0.0625 C2.1175 0.3925 0.7975 0.7225 -0.5625 1.0625 C-0.5625 2.0525 -0.5625 3.0425 -0.5625 4.0625 C-1.2225 4.0625 -1.8825 4.0625 -2.5625 4.0625 C-2.5625 5.0525 -2.5625 6.0425 -2.5625 7.0625 C-3.5525 7.0625 -4.5425 7.0625 -5.5625 7.0625 C-5.5625 9.7025 -5.5625 12.3425 -5.5625 15.0625 C-6.5525 15.0625 -7.5425 15.0625 -8.5625 15.0625 C-8.5625 11.4325 -8.5625 7.8025 -8.5625 4.0625 C-5.0975 3.5675 -5.0975 3.5675 -1.5625 3.0625 C-2.5525 2.4025 -3.5425 1.7425 -4.5625 1.0625 C-3.5625 0.0625 -3.5625 0.0625 0 0 Z " fill="#3A3A3A" transform="translate(290.5625,60.9375)"/>
<path d="M0 0 C2.31 0 4.62 0 7 0 C7 0.66 7 1.32 7 2 C9.97 2 12.94 2 16 2 C16 2.66 16 3.32 16 4 C17.32 4.33 18.64 4.66 20 5 C18.68 5 17.36 5 16 5 C16 5.99 16 6.98 16 8 C15.01 8 14.02 8 13 8 C13 6.35 13 4.7 13 3 C10.03 3 7.06 3 4 3 C3.67 3.99 3.34 4.98 3 6 C3 5.34 3 4.68 3 4 C1.02 4.33 -0.96 4.66 -3 5 C-3 4.34 -3 3.68 -3 3 C-2.01 3 -1.02 3 0 3 C0 2.01 0 1.02 0 0 Z " fill="#252525" transform="translate(292,55)"/>
<path d="M0 0 C0 0.66 0 1.32 0 2 C1.65 1.67 3.3 1.34 5 1 C5.33 1.99 5.66 2.98 6 4 C6.99 4 7.98 4 9 4 C9 4.99 9 5.98 9 7 C9.99 7.33 10.98 7.66 12 8 C10.68 8 9.36 8 8 8 C8 7.34 8 6.68 8 6 C7.01 6 6.02 6 5 6 C5 5.01 5 4.02 5 3 C2.69 3 0.38 3 -2 3 C-2 2.34 -2 1.68 -2 1 C-3.98 1 -5.96 1 -8 1 C-8 1.99 -8 2.98 -8 4 C-8.66 4 -9.32 4 -10 4 C-10 4.99 -10 5.98 -10 7 C-10.99 7 -11.98 7 -13 7 C-13 7.99 -13 8.98 -13 10 C-13.99 10.33 -14.98 10.66 -16 11 C-16 10.34 -16 9.68 -16 9 C-15.34 9 -14.68 9 -14 9 C-14 8.01 -14 7.02 -14 6 C-13.34 6 -12.68 6 -12 6 C-11.67 5.01 -11.34 4.02 -11 3 C-10.34 3 -9.68 3 -9 3 C-9 2.01 -9 1.02 -9 0 C-5.62182575 -0.84454356 -3.32534757 -1.10844919 0 0 Z " fill="#F3F3F3" transform="translate(270,24)"/>
<path d="M0 0 C0.6875 1.8125 0.6875 1.8125 1 4 C-0.125 5.75 -0.125 5.75 -2 7 C-4.6875 7.1875 -4.6875 7.1875 -7 7 C-7 6.34 -7 5.68 -7 5 C-7.99 5 -8.98 5 -10 5 C-9.6875 3.0625 -9.6875 3.0625 -9 1 C-5.8035914 -0.06546953 -3.34252724 -0.07427838 0 0 Z " fill="#EDEDED" transform="translate(306,22)"/>
<path d="M0 0 C0.99 0 1.98 0 3 0 C2.04828142 4.44135336 0.62513374 8.09989301 -3 11 C-3.99 11 -4.98 11 -6 11 C-6 10.01 -6 9.02 -6 8 C-6.66 7.67 -7.32 7.34 -8 7 C-8.33 7.66 -8.66 8.32 -9 9 C-9 7.02 -9 5.04 -9 3 C-8.01 3 -7.02 3 -6 3 C-6 3.99 -6 4.98 -6 6 C-5.01 6 -4.02 6 -3 6 C-3 5.01 -3 4.02 -3 3 C-2.01 3 -1.02 3 0 3 C0 2.01 0 1.02 0 0 Z " fill="#D7D7D7" transform="translate(267,39)"/>
<path d="M0 0 C0 0.33 0 0.66 0 1 C1.65 1.33 3.3 1.66 5 2 C5 2.66 5 3.32 5 4 C5.99 4 6.98 4 8 4 C8 4.66 8 5.32 8 6 C8.99 6 9.98 6 11 6 C11 9.3 11 12.6 11 16 C10.67 16 10.34 16 10 16 C10 13.36 10 10.72 10 8 C9.01 8 8.02 8 7 8 C7 7.34 7 6.68 7 6 C6.01 6 5.02 6 4 6 C4 5.01 4 4.02 4 3 C0.7 3.33 -2.6 3.66 -6 4 C-6 3.34 -6 2.68 -6 2 C-6.99 1.67 -7.98 1.34 -9 1 C-5.92677456 0.08941469 -3.19902639 -0.08886184 0 0 Z " fill="#E1E1E1" transform="translate(321,47)"/>
<path d="M0 0 C0.33 0 0.66 0 1 0 C1 2.97 1 5.94 1 9 C0.01 9 -0.98 9 -2 9 C-2 9.99 -2 10.98 -2 12 C-2.66 12 -3.32 12 -4 12 C-4 13.32 -4 14.64 -4 16 C-6.31 16 -8.62 16 -11 16 C-11 15.67 -11 15.34 -11 15 C-9.02 15 -7.04 15 -5 15 C-5 12.69 -5 10.38 -5 8 C-5.66 7.67 -6.32 7.34 -7 7 C-5.68 6.34 -4.36 5.68 -3 5 C-3 4.34 -3 3.68 -3 3 C-2.01 3 -1.02 3 0 3 C0 2.01 0 1.02 0 0 Z " fill="#339786" transform="translate(310,28)"/>
<path d="M0 0 C0.99 0 1.98 0 3 0 C3 1.65 3 3.3 3 5 C3.99 5.33 4.98 5.66 6 6 C4.35 6 2.7 6 1 6 C1.33 6.99 1.66 7.98 2 9 C1.01 10.485 1.01 10.485 0 12 C0 11.01 0 10.02 0 9 C-1.65 9 -3.3 9 -5 9 C-5 8.01 -5 7.02 -5 6 C-4.34 6 -3.68 6 -3 6 C-3 5.01 -3 4.02 -3 3 C-2.01 3 -1.02 3 0 3 C0 2.01 0 1.02 0 0 Z " fill="#2A9685" transform="translate(289,20)"/>
<path d="M0 0 C0.66 0 1.32 0 2 0 C2 0.66 2 1.32 2 2 C2.99 2 3.98 2 5 2 C5 2.66 5 3.32 5 4 C5.99 4.66 6.98 5.32 8 6 C4.52674819 7.1577506 1.63932552 7.06866652 -2 7 C-2 6.34 -2 5.68 -2 5 C-4.97 5 -7.94 5 -11 5 C-7.79619983 2.86413322 -6.98060033 2.76867825 -3.3125 2.875 C-2.10013672 2.90207031 -2.10013672 2.90207031 -0.86328125 2.9296875 C0.05904297 2.96449219 0.05904297 2.96449219 1 3 C0.67 2.01 0.34 1.02 0 0 Z " fill="#0F0F0F" transform="translate(272,28)"/>
<path d="M0 0 C0 0.66 0 1.32 0 2 C0.99 2 1.98 2 3 2 C3 3.65 3 5.3 3 7 C2.34 7 1.68 7 1 7 C1 6.34 1 5.68 1 5 C-0.98 5 -2.96 5 -5 5 C-5 4.34 -5 3.68 -5 3 C-5.99 3 -6.98 3 -8 3 C-8 2.34 -8 1.68 -8 1 C-5.29120665 -0.35439668 -2.99066732 -0.06501451 0 0 Z " fill="#FAB88A" transform="translate(320,31)"/>
<path d="M0 0 C0.90492188 0.02320312 1.80984375 0.04640625 2.7421875 0.0703125 C4.10730469 0.09738281 4.10730469 0.09738281 5.5 0.125 C6.19867188 0.14820312 6.89734375 0.17140625 7.6171875 0.1953125 C7.6171875 0.8553125 7.6171875 1.5153125 7.6171875 2.1953125 C8.9371875 2.5253125 10.2571875 2.8553125 11.6171875 3.1953125 C11.2871875 4.1853125 10.9571875 5.1753125 10.6171875 6.1953125 C10.6171875 5.5353125 10.6171875 4.8753125 10.6171875 4.1953125 C9.2971875 4.1953125 7.9771875 4.1953125 6.6171875 4.1953125 C6.6171875 3.2053125 6.6171875 2.2153125 6.6171875 1.1953125 C4.6371875 1.1953125 2.6571875 1.1953125 0.6171875 1.1953125 C0.2871875 2.5153125 -0.0428125 3.8353125 -0.3828125 5.1953125 C-1.0428125 5.1953125 -1.7028125 5.1953125 -2.3828125 5.1953125 C-2.3828125 5.8553125 -2.3828125 6.5153125 -2.3828125 7.1953125 C-3.3728125 7.1953125 -4.3628125 7.1953125 -5.3828125 7.1953125 C-4.30239292 0.35265516 -4.30239292 0.35265516 0 0 Z " fill="#FDF9F7" transform="translate(311.3828125,68.8046875)"/>
<path d="M0 0 C2.62434747 0.36197896 3.82013689 0.82656057 5.75 2.6875 C7.32663401 5.60427292 7.22275681 7.73290013 7 11 C6.01 11.33 5.02 11.66 4 12 C3.3291288 10.3767313 2.66342971 8.75132422 2 7.125 C1.62875 6.22007813 1.2575 5.31515625 0.875 4.3828125 C0 2 0 2 0 0 Z " fill="#008E8A" transform="translate(237,31)"/>
<path d="M0 0 C1.98 0 3.96 0 6 0 C6 0.99 6 1.98 6 3 C6.99 3 7.98 3 9 3 C9 3.66 9 4.32 9 5 C3.06 5.495 3.06 5.495 -3 6 C-3 5.34 -3 4.68 -3 4 C-2.34 3.67 -1.68 3.34 -1 3 C-0.67 2.01 -0.34 1.02 0 0 Z " fill="#F9BF98" transform="translate(312,70)"/>
<path d="M0 0 C0.99 0 1.98 0 3 0 C3 1.32 3 2.64 3 4 C4.98 4 6.96 4 9 4 C9 4.33 9 4.66 9 5 C3.77487721 6.46670113 -0.5814234 7.22577402 -6 7 C-5.67 5.68 -5.34 4.36 -5 3 C-5 3.66 -5 4.32 -5 5 C-3.35 5 -1.7 5 0 5 C0 3.35 0 1.7 0 0 Z " fill="#F3ECE8" transform="translate(286,82)"/>
<path d="M0 0 C0.99 0 1.98 0 3 0 C3 0.66 3 1.32 3 2 C3.66 2 4.32 2 5 2 C4.67 3.32 4.34 4.64 4 6 C3.67 5.34 3.34 4.68 3 4 C-0.27773504 4.75150023 -0.27773504 4.75150023 -2 8 C-2.66 8 -3.32 8 -4 8 C-4.33 8.99 -4.66 9.98 -5 11 C-6.98 11 -8.96 11 -11 11 C-11 10.67 -11 10.34 -11 10 C-10.195625 9.87625 -9.39125 9.7525 -8.5625 9.625 C-7.716875 9.41875 -6.87125 9.2125 -6 9 C-5.67 8.34 -5.34 7.68 -5 7 C-4.34 7 -3.68 7 -3 7 C-3 5.68 -3 4.36 -3 3 C-2.34 3 -1.68 3 -1 3 C-0.67 2.01 -0.34 1.02 0 0 Z " fill="#FDFBFA" transform="translate(301,77)"/>
<path d="M0 0 C0.33 0.99 0.66 1.98 1 3 C0.34 3 -0.32 3 -1 3 C-1 5.31 -1 7.62 -1 10 C-1.66 10 -2.32 10 -3 10 C-3 12.31 -3 14.62 -3 17 C-3.66 17 -4.32 17 -5 17 C-5 14.03 -5 11.06 -5 8 C-4.34 8 -3.68 8 -3 8 C-3 6.35 -3 4.7 -3 3 C-2.01 2.67 -1.02 2.34 0 2 C0 1.34 0 0.68 0 0 Z " fill="#E1E1E1" transform="translate(253,34)"/>
<path d="M0 0 C1.98 0 3.96 0 6 0 C6 0.33 6 0.66 6 1 C4.35 1 2.7 1 1 1 C1.33 1.99 1.66 2.98 2 4 C1.01 4 0.02 4 -1 4 C-0.34 5.98 0.32 7.96 1 10 C-1.64 10 -4.28 10 -7 10 C-6.34 9.67 -5.68 9.34 -5 9 C-5 8.01 -5 7.02 -5 6 C-4.01 6 -3.02 6 -2 6 C-2 5.01 -2 4.02 -2 3 C-1.34 3 -0.68 3 0 3 C0 2.01 0 1.02 0 0 Z " fill="#4A4A4B" transform="translate(262,25)"/>
<path d="M0 0 C0 1.65 0 3.3 0 5 C-1.65 5 -3.3 5 -5 5 C-5 4.34 -5 3.68 -5 3 C-6.32 3 -7.64 3 -9 3 C-9 2.34 -9 1.68 -9 1 C-5.846632 0.29925156 -3.27275026 0 0 0 Z " fill="#FABC93" transform="translate(286,82)"/>
<path d="M0 0 C2.64 0 5.28 0 8 0 C8 1.32 8 2.64 8 4 C5.36 4 2.72 4 0 4 C0 2.68 0 1.36 0 0 Z " fill="#121212" transform="translate(320,56)"/>
<path d="M0 0 C1.32 0.33 2.64 0.66 4 1 C4 1.99 4 2.98 4 4 C3.34 4 2.68 4 2 4 C2 4.66 2 5.32 2 6 C-0.31 6 -2.62 6 -5 6 C-5 5.34 -5 4.68 -5 4 C-3.35 3.34 -1.7 2.68 0 2 C0 1.34 0 0.68 0 0 Z " fill="#909191" transform="translate(294,80)"/>
<path d="M0 0 C1.67542976 0.28604898 3.34385343 0.61781233 5 1 C5.33 2.65 5.66 4.3 6 6 C3 6 3 6 0 5 C-0.75 3 -0.75 3 -1 1 C-0.67 0.67 -0.34 0.34 0 0 Z " fill="#004644" transform="translate(91,53)"/>
<path d="M0 0 C1.65 0 3.3 0 5 0 C5 1.98 5 3.96 5 6 C3.35 6 1.7 6 0 6 C0 4.02 0 2.04 0 0 Z " fill="#242424" transform="translate(298,16)"/>
<path d="M0 0 C0.66 0 1.32 0 2 0 C2 0.99 2 1.98 2 3 C2.99 3.33 3.98 3.66 5 4 C4.01 4 3.02 4 2 4 C2.33 6.31 2.66 8.62 3 11 C2.01 11 1.02 11 0 11 C0 7.37 0 3.74 0 0 Z " fill="#F0F0F0" transform="translate(285,37)"/>
<path d="M0 0 C0.99 0 1.98 0 3 0 C3 0.66 3 1.32 3 2 C3.99 2 4.98 2 6 2 C6 3.98 6 5.96 6 8 C5.01 8 4.02 8 3 8 C3 6.35 3 4.7 3 3 C2.01 3 1.02 3 0 3 C0 2.01 0 1.02 0 0 Z " fill="#E1E1E1" transform="translate(277,49)"/>
<path d="M0 0 C0 0.66 0 1.32 0 2 C-3.82989106 3.80230168 -6.78121808 4.19622241 -11 4 C-11 3.01 -11 2.02 -11 1 C-9.54182203 0.83197949 -8.0834516 0.66562857 -6.625 0.5 C-5.81289063 0.4071875 -5.00078125 0.314375 -4.1640625 0.21875 C-2 0 -2 0 0 0 Z " fill="#151515" transform="translate(263,37)"/>
<path d="M0 0 C0.66 0 1.32 0 2 0 C2 2.31 2 4.62 2 7 C0.35 7 -1.3 7 -3 7 C-3 6.01 -3 5.02 -3 4 C-4.65 4 -6.3 4 -8 4 C-8 3.67 -8 3.34 -8 3 C-6.02 3 -4.04 3 -2 3 C-2 3.66 -2 4.32 -2 5 C-1.34 5 -0.68 5 0 5 C0 3.35 0 1.7 0 0 Z " fill="#FBEAE0" transform="translate(323,33)"/>
<path d="M0 0 C1.98 0 3.96 0 6 0 C6 1.98 6 3.96 6 6 C6.66 6.33 7.32 6.66 8 7 C6.68 7.33 5.36 7.66 4 8 C4 6.68 4 5.36 4 4 C2.68 3.67 1.36 3.34 0 3 C0 2.01 0 1.02 0 0 Z " fill="#DADADA" transform="translate(292,16)"/>
<path d="M0 0 C2.31 0 4.62 0 7 0 C7 0.66 7 1.32 7 2 C8.32 2.33 9.64 2.66 11 3 C9.68 3 8.36 3 7 3 C7 3.99 7 4.98 7 6 C6.01 6 5.02 6 4 6 C4 4.35 4 2.7 4 1 C2.68 0.67 1.36 0.34 0 0 Z " fill="#3D3D3D" transform="translate(301,57)"/>
<path d="M0 0 C2.31 0 4.62 0 7 0 C6 3 6 3 5 4 C2.32941149 4.14115161 -0.32432238 4.04247107 -3 4 C-2.01 3.67 -1.02 3.34 0 3 C0 2.01 0 1.02 0 0 Z " fill="#3B3C3C" transform="translate(268,27)"/>
<path d="M0 0 C1.65 0 3.3 0 5 0 C4.34 0.66 3.68 1.32 3 2 C3.32326553 5.59679066 3.32326553 5.59679066 4 9 C3.34 9 2.68 9 2 9 C1.67 9.66 1.34 10.32 1 11 C0.67 7.37 0.34 3.74 0 0 Z " fill="#E9B189" transform="translate(310,23)"/>
<path d="M0 0 C0.33 0 0.66 0 1 0 C1 2.31 1 4.62 1 7 C-0.65 7 -2.3 7 -4 7 C-4 7.99 -4 8.98 -4 10 C-4.99 9.67 -5.98 9.34 -7 9 C-6.34 9 -5.68 9 -5 9 C-5 8.01 -5 7.02 -5 6 C-4.01 6 -3.02 6 -2 6 C-2 5.34 -2 4.68 -2 4 C-2.66 3.67 -3.32 3.34 -4 3 C-2.68 3 -1.36 3 0 3 C0 2.01 0 1.02 0 0 Z " fill="#494949" transform="translate(257,42)"/>
<path d="M0 0 C1.65 0 3.3 0 5 0 C5 0.99 5 1.98 5 3 C4.34 3 3.68 3 3 3 C3.33 3.99 3.66 4.98 4 6 C2.68 6 1.36 6 0 6 C0 4.02 0 2.04 0 0 Z " fill="#151515" transform="translate(270,36)"/>
<path d="M0 0 C0.99 0.33 1.98 0.66 3 1 C1.37660195 2.70884005 -0.29319053 4.37446717 -2 6 C-2.66 6 -3.32 6 -4 6 C-4.33 6.66 -4.66 7.32 -5 8 C-5.33 6.35 -5.66 4.7 -6 3 C-5.195625 2.87625 -4.39125 2.7525 -3.5625 2.625 C-2.716875 2.41875 -1.87125 2.2125 -1 2 C-0.67 1.34 -0.34 0.68 0 0 Z " fill="#EEEEEE" transform="translate(259,46)"/>
<path d="M0 0 C0.99 0 1.98 0 3 0 C3 0.66 3 1.32 3 2 C3.99 2 4.98 2 6 2 C6 2.99 6 3.98 6 5 C4.35 5.33 2.7 5.66 1 6 C0.67 4.02 0.34 2.04 0 0 Z " fill="#EAEAEA" transform="translate(323,64)"/>
<path d="M0 0 C0 1.65 0 3.3 0 5 C-1.65 5 -3.3 5 -5 5 C-5 3.68 -5 2.36 -5 1 C-2 0 -2 0 0 0 Z " fill="#111111" transform="translate(281,35)"/>
<path d="M0 0 C0 0.66 0 1.32 0 2 C-2.97 2.66 -5.94 3.32 -9 4 C-9 3.01 -9 2.02 -9 1 C-5.92677456 0.08941469 -3.19902639 -0.08886184 0 0 Z " fill="#E2E2E2" transform="translate(317,59)"/>
<path d="M0 0 C0.99 0 1.98 0 3 0 C2.49396008 2.16874252 2.00016187 3.99967627 1 6 C-0.32 6 -1.64 6 -3 6 C-3 5.01 -3 4.02 -3 3 C-2.01 3 -1.02 3 0 3 C0 2.01 0 1.02 0 0 Z " fill="#DDDDDD" transform="translate(267,39)"/>
<path d="M0 0 C1.32 0.33 2.64 0.66 4 1 C3.01 1 2.02 1 1 1 C1 1.99 1 2.98 1 4 C0.01 4 -0.98 4 -2 4 C-2 4.99 -2 5.98 -2 7 C-2.99 7 -3.98 7 -5 7 C-5 6.01 -5 5.02 -5 4 C-3.35 3.67 -1.7 3.34 0 3 C0 2.01 0 1.02 0 0 Z " fill="#3F3F3F" transform="translate(266,38)"/>
<path d="M0 0 C0 0.66 0 1.32 0 2 C-0.66 2 -1.32 2 -2 2 C-2 2.99 -2 3.98 -2 5 C-2.66 5 -3.32 5 -4 5 C-4 4.01 -4 3.02 -4 2 C-4.99 1.67 -5.98 1.34 -7 1 C-4.53721199 -0.231394 -2.7204945 -0.07159196 0 0 Z " fill="#121212" transform="translate(331,61)"/>
<path d="M0 0 C0.33 0 0.66 0 1 0 C1 2.64 1 5.28 1 8 C0.01 8 -0.98 8 -2 8 C-2.125 5.125 -2.125 5.125 -2 2 C-1.34 1.34 -0.68 0.68 0 0 Z " fill="#383534" transform="translate(284,68)"/>
<path d="M0 0 C1.98 0 3.96 0 6 0 C6 0.66 6 1.32 6 2 C6.99 2.33 7.98 2.66 9 3 C6.69 3 4.38 3 2 3 C2 2.34 2 1.68 2 1 C1.34 0.67 0.68 0.34 0 0 Z " fill="#F3BC9B" transform="translate(314,31)"/>
<path d="M0 0 C0.99 1.485 0.99 1.485 2 3 C2.99 3.33 3.98 3.66 5 4 C4.34 5.32 3.68 6.64 3 8 C3 7.34 3 6.68 3 6 C2.01 6 1.02 6 0 6 C0 4.02 0 2.04 0 0 Z " fill="#C3C7C6" transform="translate(303,16)"/>
<path d="M0 0 C1.98 0.495 1.98 0.495 4 1 C4 1.99 4 2.98 4 4 C2.35 3.67 0.7 3.34 -1 3 C-0.67 2.01 -0.34 1.02 0 0 Z " fill="#008E8A" transform="translate(201,31)"/>
</svg>
