<svg id="svg" version="1.1" xmlns="http://www.w3.org/2000/svg" xmlns:xlink="http://www.w3.org/1999/xlink" width="400" height="400" viewBox="0, 0, 400,400"><g id="svgg"><path id="path0" d="M218.262 51.061 L 217.188 51.224 217.188 55.885 L 217.188 60.547 191.992 60.547 L 166.797 60.547 166.797 65.625 L 166.797 70.703 181.033 70.703 L 195.270 70.703 195.389 72.559 C 195.454 73.579,195.451 75.864,195.381 77.637 L 195.255 80.859 192.005 80.859 C 187.995 80.859,188.352 79.821,188.299 91.652 C 188.275 96.995,188.218 103.549,188.171 106.215 L 188.086 111.063 177.539 111.098 L 166.992 111.133 166.900 91.249 C 166.850 80.314,166.704 71.261,166.576 71.132 C 166.448 71.004,164.248 70.840,161.687 70.768 L 157.031 70.638 157.031 94.889 L 157.031 119.141 151.958 119.141 L 146.885 119.141 146.782 105.176 L 146.680 91.211 141.834 91.101 L 136.989 90.991 137.245 95.165 C 137.385 97.462,137.500 105.993,137.500 114.123 L 137.500 128.906 147.266 128.906 L 157.031 128.906 157.031 133.777 L 157.031 138.649 162.012 138.758 L 166.992 138.867 167.100 144.141 L 167.207 149.414 162.646 149.292 L 158.086 149.169 158.298 151.831 C 158.414 153.295,158.421 155.063,158.312 155.762 L 158.114 157.031 152.573 157.031 C 146.659 157.031,145.779 157.275,146.543 158.703 C 146.772 159.131,146.894 160.875,146.817 162.632 L 146.680 165.791 148.438 166.110 C 149.404 166.285,151.689 166.331,153.516 166.210 C 155.342 166.090,159.165 165.900,162.012 165.787 L 167.188 165.583 167.188 159.361 C 167.188 152.150,166.494 153.011,172.818 152.375 C 177.711 151.883,177.344 151.408,177.344 158.226 L 177.344 164.063 182.813 164.063 L 188.281 164.063 188.281 168.679 L 188.281 173.296 193.066 173.269 L 197.852 173.242 197.956 183.474 L 198.060 193.707 196.198 193.858 C 195.174 193.942,197.324 193.995,200.977 193.978 L 207.617 193.945 207.721 183.496 L 207.825 173.047 212.506 173.047 C 215.978 173.047,217.194 172.921,217.211 172.559 C 217.224 172.290,217.214 170.269,217.189 168.066 L 217.144 164.063 222.830 164.063 L 228.516 164.063 228.516 158.984 L 228.516 153.906 230.018 153.906 C 230.844 153.906,233.130 153.792,235.096 153.652 L 238.672 153.399 238.672 159.658 L 238.672 165.917 249.316 165.869 L 259.961 165.820 260.071 170.410 L 260.181 175.000 266.046 175.000 L 271.910 175.000 271.853 180.957 L 271.796 186.914 276.960 187.023 C 281.575 187.121,282.098 187.066,281.882 186.503 C 281.749 186.157,281.641 181.757,281.641 176.726 L 281.641 167.578 276.765 167.578 L 271.889 167.578 271.891 158.733 C 271.892 153.868,271.801 149.796,271.689 149.684 C 271.576 149.571,271.484 151.530,271.484 154.036 L 271.484 158.594 266.621 158.594 C 262.631 158.594,261.697 158.485,261.418 157.987 C 261.121 157.457,259.697 157.395,250.070 157.499 L 239.062 157.617 239.059 156.445 C 239.058 155.801,238.946 154.097,238.810 152.659 L 238.563 150.045 240.668 149.899 L 242.773 149.754 240.723 149.682 L 238.672 149.609 238.672 144.141 L 238.672 138.672 243.945 138.672 L 249.219 138.672 249.219 133.789 L 249.219 128.906 258.754 128.906 L 268.288 128.906 268.431 110.254 C 268.510 99.995,268.511 91.514,268.435 91.406 C 268.358 91.299,266.244 91.211,263.737 91.211 L 259.180 91.211 259.096 105.176 C 259.051 112.856,258.919 119.141,258.803 119.141 C 258.688 119.141,256.484 119.141,253.906 119.141 L 249.219 119.141 249.219 99.988 L 249.219 80.836 244.238 80.945 L 239.258 81.055 239.235 87.500 C 239.222 91.045,239.178 97.844,239.137 102.609 L 239.063 111.273 228.223 111.203 L 217.383 111.133 217.258 106.250 C 217.024 97.073,216.992 93.555,217.131 92.383 C 217.208 91.738,217.252 88.882,217.229 86.035 L 217.188 80.859 214.111 80.859 L 211.035 80.859 210.791 79.639 C 210.477 78.068,210.479 74.824,210.795 72.515 L 211.044 70.703 224.858 70.703 L 238.672 70.703 238.672 60.999 L 238.672 51.295 232.164 51.038 C 225.412 50.772,220.114 50.780,218.262 51.061 M331.349 87.305 C 331.353 88.164,331.433 88.470,331.526 87.984 C 331.620 87.498,331.616 86.795,331.518 86.421 C 331.421 86.048,331.344 86.445,331.349 87.305 M112.407 89.339 C 112.893 89.432,113.596 89.429,113.969 89.331 C 114.343 89.233,113.945 89.157,113.086 89.161 C 112.227 89.165,111.921 89.245,112.407 89.339 M325.494 89.343 C 326.087 89.433,326.966 89.430,327.447 89.337 C 327.927 89.245,327.441 89.171,326.367 89.174 C 325.293 89.177,324.900 89.253,325.494 89.343 M74.486 111.972 C 74.347 112.111,74.234 116.144,74.235 120.932 L 74.237 129.639 75.497 129.761 C 76.191 129.828,78.586 129.827,80.820 129.759 L 84.882 129.635 84.644 125.183 L 84.405 120.731 88.003 120.591 C 89.982 120.515,87.778 120.534,83.105 120.634 L 74.609 120.815 74.609 116.462 L 74.609 112.109 100.404 112.109 L 126.198 112.109 126.087 116.309 L 125.977 120.508 121.680 120.587 C 119.316 120.631,117.075 120.675,116.699 120.685 C 116.091 120.701,116.016 121.174,116.016 124.977 C 116.016 130.170,116.557 129.793,109.027 129.842 C 105.673 129.865,103.594 129.938,104.407 130.005 L 105.884 130.127 105.774 134.692 L 105.664 139.258 100.488 139.367 L 95.313 139.476 95.313 134.800 C 95.313 132.228,95.181 130.042,95.020 129.942 C 94.858 129.842,94.781 131.941,94.847 134.607 L 94.967 139.453 75.022 139.453 L 55.078 139.453 54.993 130.566 C 54.940 124.969,54.863 123.534,54.786 126.689 L 54.664 131.698 50.086 131.600 L 45.508 131.501 45.405 144.852 L 45.302 158.203 49.983 158.203 L 54.663 158.203 54.773 162.988 L 54.883 167.773 59.668 167.635 L 64.453 167.496 64.453 172.029 L 64.453 176.563 74.219 176.563 L 83.984 176.563 83.984 171.875 L 83.984 167.188 79.102 167.188 L 74.219 167.188 74.219 162.923 C 74.219 159.877,74.358 158.603,74.707 158.462 C 75.098 158.304,75.098 158.259,74.707 158.234 C 74.344 158.211,74.219 156.951,74.219 153.325 L 74.219 148.446 89.941 148.344 L 105.664 148.242 105.774 143.652 L 105.884 139.063 111.145 139.063 L 116.406 139.063 116.406 143.555 L 116.406 148.047 120.313 148.047 L 124.219 148.047 124.219 143.550 L 124.219 139.053 122.559 139.286 C 120.326 139.598,119.834 139.776,120.082 140.178 C 120.198 140.364,119.593 141.274,118.740 142.199 L 117.188 143.880 117.121 142.741 C 117.084 142.114,117.031 141.250,117.004 140.820 C 116.977 140.391,117.139 139.910,117.364 139.752 C 117.628 139.567,117.592 139.463,117.262 139.459 C 116.981 139.456,116.862 139.273,116.998 139.053 C 117.134 138.833,117.013 138.701,116.728 138.760 C 116.127 138.885,115.739 135.443,115.954 131.893 L 116.088 129.688 121.325 129.688 L 126.563 129.688 126.563 120.703 L 126.563 111.719 100.651 111.719 C 86.400 111.719,74.626 111.833,74.486 111.972 M280.339 111.979 C 280.195 112.122,280.078 116.165,280.078 120.964 L 280.078 129.688 285.754 129.688 C 292.620 129.688,291.982 128.617,291.514 139.360 C 291.207 146.410,291.133 147.072,291.080 143.262 L 291.016 138.672 287.891 138.672 L 284.766 138.672 284.760 145.410 C 284.757 149.116,284.649 152.544,284.519 153.027 C 284.288 153.892,284.343 153.906,287.845 153.906 L 291.406 153.906 291.406 151.168 L 291.406 148.431 311.816 148.532 L 332.227 148.633 332.183 151.367 C 331.893 169.466,332.675 167.188,326.755 167.188 L 321.923 167.188 321.950 171.875 L 321.977 176.563 331.691 176.563 L 341.406 176.563 341.406 172.070 L 341.406 167.578 346.289 167.578 L 351.172 167.578 351.172 162.891 L 351.172 158.203 355.371 158.197 C 361.171 158.189,360.677 159.114,360.838 147.976 C 360.949 140.377,360.879 138.574,360.488 138.965 C 360.116 139.337,356.681 139.453,346.016 139.453 L 332.031 139.453 332.031 136.586 C 332.031 135.008,331.915 131.025,331.772 127.734 C 331.617 124.153,331.656 121.839,331.870 121.972 C 332.077 122.100,332.152 121.264,332.049 119.983 C 331.930 118.491,331.823 118.154,331.721 118.944 C 331.496 120.686,331.400 120.702,321.484 120.576 C 316.436 120.511,314.370 120.519,316.895 120.593 L 321.484 120.727 321.484 125.207 L 321.484 129.688 326.563 129.688 L 331.641 129.688 331.641 134.570 L 331.641 139.453 321.503 139.453 L 311.365 139.453 311.227 137.012 L 311.088 134.570 311.013 137.012 L 310.938 139.453 306.055 139.453 L 301.172 139.453 301.138 137.012 C 301.119 135.669,301.088 131.494,301.067 127.734 C 301.041 122.833,300.992 122.146,300.894 125.305 L 300.756 129.712 296.179 129.602 L 291.602 129.492 291.491 125.098 L 291.381 120.703 285.925 120.703 L 280.469 120.703 280.469 116.426 L 280.469 112.148 282.715 112.007 L 284.961 111.866 282.780 111.793 C 281.580 111.752,280.482 111.836,280.339 111.979 M288.965 112.009 C 290.522 112.083,293.071 112.083,294.629 112.009 C 296.187 111.935,294.912 111.874,291.797 111.874 C 288.682 111.874,287.407 111.935,288.965 112.009 M311.621 112.011 C 315.327 112.075,321.392 112.075,325.098 112.011 C 328.804 111.947,325.771 111.894,318.359 111.894 C 310.947 111.894,307.915 111.947,311.621 112.011 M95.219 120.589 C 95.705 120.682,96.408 120.679,96.782 120.581 C 97.155 120.483,96.758 120.407,95.898 120.411 C 95.039 120.415,94.733 120.495,95.219 120.589 M105.611 124.023 C 105.612 126.172,105.678 127.001,105.757 125.866 C 105.836 124.731,105.836 122.973,105.755 121.960 C 105.675 120.946,105.610 121.875,105.611 124.023 M62.207 121.769 C 63.013 121.853,64.331 121.853,65.137 121.769 C 65.942 121.685,65.283 121.616,63.672 121.616 C 62.061 121.616,61.401 121.685,62.207 121.769 M343.471 121.773 C 344.714 121.851,346.648 121.851,347.768 121.772 C 348.888 121.693,347.871 121.630,345.508 121.630 C 343.145 121.631,342.228 121.696,343.471 121.773 M217.188 133.203 L 217.188 137.891 202.734 137.891 L 188.281 137.891 188.281 133.403 L 188.281 128.916 202.637 128.808 C 210.532 128.749,217.036 128.659,217.090 128.608 C 217.144 128.557,217.188 130.625,217.188 133.203 M351.172 130.446 C 351.172 131.078,351.311 131.680,351.481 131.785 C 351.651 131.891,351.719 131.374,351.633 130.637 C 351.442 128.995,351.172 128.883,351.172 130.446 M73.962 133.008 C 73.963 134.727,74.032 135.381,74.115 134.462 C 74.197 133.544,74.196 132.137,74.112 131.337 C 74.028 130.537,73.961 131.289,73.962 133.008 M194.244 138.556 C 193.763 138.649,192.884 138.651,192.291 138.562 C 191.697 138.472,192.090 138.396,193.164 138.393 C 194.238 138.390,194.724 138.464,194.244 138.556 M213.770 138.557 C 213.286 138.650,212.495 138.650,212.012 138.557 C 211.528 138.464,211.924 138.388,212.891 138.388 C 213.857 138.388,214.253 138.464,213.770 138.557 M290.234 139.453 C 289.912 139.661,289.839 139.834,290.072 139.838 C 290.304 139.841,290.495 140.092,290.495 140.395 C 290.495 140.728,290.198 140.889,289.744 140.801 C 289.089 140.675,289.060 140.741,289.516 141.318 C 289.970 141.891,289.891 141.884,288.917 141.261 C 288.299 140.867,287.907 140.726,288.044 140.948 C 288.182 141.170,288.115 141.463,287.897 141.598 C 287.668 141.739,287.500 141.421,287.500 140.843 C 287.500 140.038,287.689 139.844,288.477 139.844 C 289.014 139.844,289.453 139.668,289.453 139.453 C 289.453 139.238,289.761 139.065,290.137 139.068 C 290.721 139.074,290.735 139.130,290.234 139.453 M285.433 142.281 C 285.339 142.767,285.259 142.461,285.255 141.602 C 285.250 140.742,285.327 140.345,285.425 140.718 C 285.522 141.092,285.526 141.795,285.433 142.281 M287.109 141.589 C 287.109 141.938,286.880 142.075,286.526 141.939 C 286.205 141.816,286.039 141.558,286.158 141.365 C 286.499 140.814,287.109 140.958,287.109 141.589 M285.437 147.553 C 285.347 148.147,285.271 147.754,285.268 146.680 C 285.265 145.605,285.339 145.120,285.431 145.600 C 285.524 146.081,285.526 146.959,285.437 147.553 M127.490 153.320 C 127.491 155.684,127.555 156.600,127.633 155.357 C 127.711 154.114,127.710 152.180,127.631 151.060 C 127.553 149.940,127.489 150.957,127.490 153.320 M118.657 158.089 C 119.143 158.182,119.846 158.179,120.219 158.081 C 120.593 157.983,120.195 157.907,119.336 157.911 C 118.477 157.915,118.171 157.995,118.657 158.089 M137.208 159.961 C 137.212 160.820,137.292 161.126,137.386 160.640 C 137.479 160.154,137.476 159.451,137.378 159.077 C 137.280 158.704,137.204 159.102,137.208 159.961 M281.787 162.695 C 281.788 165.059,281.852 165.975,281.930 164.732 C 282.007 163.489,282.007 161.555,281.928 160.435 C 281.849 159.315,281.786 160.332,281.787 162.695 M117.706 162.305 C 117.708 163.809,117.779 164.376,117.863 163.566 C 117.948 162.755,117.946 161.525,117.860 160.831 C 117.774 160.138,117.705 160.801,117.706 162.305 M322.014 163.086 C 322.012 165.020,322.079 165.860,322.160 164.953 C 322.242 164.047,322.243 162.465,322.163 161.438 C 322.082 160.411,322.015 161.152,322.014 163.086 M137.243 166.602 C 137.245 168.320,137.313 168.975,137.396 168.056 C 137.478 167.137,137.477 165.731,137.393 164.931 C 137.309 164.131,137.242 164.883,137.243 166.602 M291.106 171.875 C 291.063 174.775,291.162 176.937,291.327 176.678 C 291.505 176.397,292.875 176.154,294.739 176.073 L 297.852 175.938 294.641 175.860 L 291.431 175.781 291.307 171.191 L 291.184 166.602 291.106 171.875 M91.016 171.885 L 91.016 176.583 96.777 176.475 L 102.539 176.367 102.649 171.777 L 102.759 167.188 96.887 167.188 L 91.016 167.188 91.016 171.885 M117.969 175.146 C 117.969 179.524,117.859 183.655,117.725 184.326 L 117.480 185.547 122.607 185.547 L 127.734 185.547 127.734 189.844 L 127.734 194.141 132.617 194.141 L 137.500 194.141 137.500 198.633 L 137.500 203.125 142.188 203.125 L 146.875 203.125 146.875 206.473 L 146.875 209.821 151.855 209.726 L 156.836 209.630 156.957 211.065 L 157.078 212.500 162.353 212.500 L 167.628 212.500 167.543 215.723 L 167.457 218.945 172.767 218.809 L 178.076 218.673 178.198 220.302 L 178.320 221.932 193.457 221.891 L 208.594 221.850 208.594 225.786 L 208.594 229.721 228.336 229.607 L 248.078 229.492 247.965 236.958 L 247.852 244.424 250.195 244.488 L 252.539 244.553 252.539 237.218 L 252.539 229.883 258.105 229.774 L 263.672 229.666 263.672 225.771 L 263.672 221.875 273.047 221.875 L 282.422 221.875 282.422 227.331 L 282.422 232.787 278.223 232.931 C 275.913 233.011,277.715 233.081,282.227 233.087 C 286.738 233.094,290.605 233.123,290.820 233.152 C 291.435 233.235,291.538 239.129,290.932 239.513 C 290.656 239.688,288.447 239.834,286.023 239.838 L 281.616 239.844 281.726 242.676 L 281.836 245.508 276.953 245.703 L 272.070 245.898 271.958 249.512 L 271.846 253.125 267.189 253.125 L 262.533 253.125 262.419 256.152 L 262.305 259.180 250.391 259.203 L 238.477 259.227 238.437 260.766 C 238.415 261.612,238.371 262.700,238.339 263.184 L 238.281 264.063 217.969 264.063 L 197.656 264.063 197.656 261.472 L 197.656 258.882 187.695 259.168 L 177.734 259.455 177.734 256.446 L 177.734 253.438 162.449 253.575 L 147.163 253.711 147.220 250.000 C 147.301 244.819,148.818 245.289,132.396 245.406 L 118.164 245.508 117.969 242.773 L 117.773 240.039 113.184 240.182 L 108.594 240.326 108.594 236.386 L 108.594 232.446 103.809 232.336 L 99.023 232.227 98.828 227.344 L 98.633 222.461 94.057 222.368 L 89.482 222.274 89.370 231.059 L 89.258 239.844 94.043 239.844 L 98.828 239.844 98.828 244.922 L 98.828 250.000 103.516 250.000 L 108.203 250.000 108.203 254.746 L 108.203 259.491 119.043 259.234 C 131.355 258.941,136.719 258.938,137.181 259.224 C 137.356 259.332,137.500 261.544,137.500 264.139 L 137.500 268.857 142.188 268.664 L 146.875 268.471 146.875 280.329 L 146.875 292.188 151.953 292.188 L 157.031 292.188 157.031 279.883 L 157.031 267.578 160.645 267.574 C 162.632 267.571,164.917 267.461,165.723 267.327 C 167.150 267.092,167.188 267.116,167.188 268.284 L 167.188 269.483 177.734 269.250 L 188.281 269.018 188.281 273.571 L 188.281 278.125 218.412 278.125 L 248.543 278.125 248.393 285.059 L 248.242 291.992 253.223 292.102 L 258.203 292.211 258.203 285.187 L 258.203 278.162 260.641 278.046 L 263.079 277.930 263.183 273.467 C 263.308 268.099,262.789 268.639,267.865 268.593 L 272.070 268.555 272.266 263.715 L 272.461 258.875 277.257 258.876 C 279.895 258.876,282.116 258.945,282.193 259.028 C 282.270 259.111,282.396 266.694,282.475 275.879 L 282.617 292.577 287.066 292.578 L 291.515 292.578 291.317 288.086 L 291.119 283.594 295.937 283.594 L 300.756 283.594 300.880 287.988 C 300.949 290.405,301.042 288.384,301.088 283.496 L 301.172 274.609 305.635 274.609 C 309.558 274.609,310.121 274.692,310.278 275.293 C 310.414 275.814,310.467 275.771,310.502 275.110 C 310.546 274.265,310.427 274.240,305.762 274.133 L 300.977 274.023 300.867 270.117 L 300.757 266.211 296.224 266.344 C 290.606 266.508,291.029 267.210,291.022 257.715 L 291.016 250.000 295.898 250.000 L 300.781 250.000 300.781 235.950 L 300.781 221.899 295.996 221.789 L 291.211 221.680 291.101 217.338 L 290.991 212.997 292.468 212.753 C 293.281 212.618,295.483 212.507,297.363 212.504 L 300.781 212.500 300.781 208.008 L 300.781 203.516 303.613 203.512 C 305.171 203.510,307.368 203.398,308.496 203.263 L 310.547 203.016 310.547 198.271 L 310.547 193.526 305.871 193.510 L 301.194 193.493 301.085 198.407 L 300.977 203.320 291.504 203.425 L 282.031 203.530 282.031 208.405 L 282.031 213.281 236.523 213.357 C 211.494 213.399,190.444 213.443,189.746 213.455 L 188.477 213.477 188.367 208.502 L 188.258 203.528 177.659 203.424 L 167.059 203.320 167.026 201.367 L 166.992 199.414 162.224 199.305 L 157.456 199.195 157.341 196.375 L 157.227 193.555 152.475 193.555 C 146.798 193.555,147.323 193.973,147.238 189.386 C 147.155 184.920,147.008 184.587,145.258 184.890 C 144.536 185.015,140.296 185.164,135.836 185.222 L 127.727 185.326 127.680 176.986 C 127.620 166.074,128.196 167.188,122.611 167.188 L 117.969 167.188 117.969 175.146 M303.210 171.777 L 303.320 176.367 309.180 176.367 L 315.039 176.367 315.149 171.777 L 315.259 167.188 309.180 167.188 L 303.100 167.188 303.210 171.777 M299.844 176.080 C 300.080 176.238,300.374 176.631,300.497 176.953 C 300.646 177.345,300.730 177.247,300.750 176.660 C 300.771 176.070,300.557 175.783,300.098 175.787 C 299.676 175.791,299.579 175.903,299.844 176.080 M307.497 185.836 L 310.111 185.972 310.263 187.420 L 310.416 188.867 310.481 187.207 L 310.547 185.547 307.715 185.623 L 304.883 185.700 307.497 185.836 M281.718 190.892 C 281.641 194.057,281.630 194.090,280.566 194.251 L 279.492 194.414 280.579 194.473 C 281.955 194.547,282.099 194.134,281.932 190.588 L 281.796 187.695 281.718 190.892 M109.082 194.410 C 109.458 194.508,110.073 194.508,110.449 194.410 C 110.825 194.312,110.518 194.231,109.766 194.231 C 109.014 194.231,108.706 194.312,109.082 194.410 M197.804 198.828 C 197.804 201.299,197.867 202.310,197.945 201.074 C 198.022 199.839,198.022 197.817,197.945 196.582 C 197.867 195.347,197.804 196.357,197.804 198.828 M108.203 198.018 C 108.203 198.432,107.896 198.851,107.520 198.949 C 107.005 199.084,107.053 199.139,107.715 199.173 C 108.404 199.209,108.594 199.008,108.594 198.242 C 108.594 197.705,108.506 197.266,108.398 197.266 C 108.291 197.266,108.203 197.604,108.203 198.018 M108.847 203.422 C 108.737 203.599,108.590 207.780,108.519 212.712 C 108.449 217.644,108.444 220.493,108.510 219.043 L 108.629 216.406 113.104 216.406 L 117.578 216.406 117.578 209.806 L 117.578 203.207 113.312 203.154 C 110.965 203.125,108.956 203.246,108.847 203.422 M146.875 226.895 L 146.875 232.305 148.801 232.001 C 149.860 231.833,152.144 231.640,153.877 231.571 L 157.027 231.445 157.029 226.465 L 157.031 221.484 151.953 221.484 L 146.875 221.484 146.875 226.895 M262.598 233.071 C 262.265 233.205,262.109 234.247,262.109 236.335 C 262.109 239.304,262.078 239.407,261.128 239.572 C 260.229 239.729,260.237 239.740,261.226 239.696 C 262.297 239.649,262.306 239.625,262.419 236.624 C 262.550 233.133,262.348 233.283,267.188 233.087 C 270.061 232.970,270.049 232.967,266.602 232.921 C 264.668 232.895,262.866 232.963,262.598 233.071 M170.996 239.729 C 171.479 239.822,172.271 239.822,172.754 239.729 C 173.237 239.636,172.842 239.560,171.875 239.560 C 170.908 239.560,170.513 239.636,170.996 239.729 M177.480 244.531 C 177.480 246.357,177.548 247.104,177.630 246.191 C 177.712 245.278,177.712 243.784,177.630 242.871 C 177.548 241.958,177.480 242.705,177.480 244.531 M108.594 284.430 L 108.594 302.319 113.184 302.429 L 117.773 302.539 117.773 306.738 C 117.773 309.048,117.642 310.938,117.480 310.938 C 117.319 310.938,115.254 310.938,112.891 310.938 L 108.594 310.938 108.520 306.738 C 108.476 304.268,108.388 303.464,108.305 304.785 L 108.164 307.031 103.523 307.031 L 98.882 307.031 98.893 304.075 C 98.908 300.438,99.394 300.778,94.012 300.661 L 89.478 300.563 89.368 310.438 L 89.258 320.313 94.043 320.313 L 98.828 320.313 98.828 331.152 L 98.827 341.992 103.613 341.992 L 108.398 341.992 108.398 346.778 L 108.398 351.563 113.184 351.563 L 117.969 351.563 117.969 346.875 L 117.969 342.188 121.387 342.183 C 123.267 342.181,125.464 342.070,126.270 341.937 L 127.734 341.695 127.734 346.641 L 127.734 351.587 132.520 351.477 L 137.305 351.367 137.257 346.777 L 137.210 342.188 142.238 342.188 L 147.266 342.188 147.266 346.875 L 147.266 351.563 182.227 351.563 L 217.188 351.563 217.188 346.875 L 217.188 342.188 219.629 342.157 C 220.972 342.140,227.351 342.152,233.806 342.184 C 240.261 342.217,246.017 342.124,246.599 341.978 L 247.656 341.712 247.656 337.254 L 247.656 332.795 254.980 332.902 L 262.305 333.008 262.184 342.285 L 262.062 351.563 271.817 351.563 L 281.572 351.563 281.551 347.061 C 281.539 344.585,281.657 342.432,281.812 342.276 C 281.968 342.120,286.300 341.932,291.438 341.859 L 300.781 341.725 300.781 331.019 C 300.781 325.130,300.913 320.333,301.074 320.359 C 301.235 320.384,303.433 320.384,305.957 320.359 L 310.547 320.313 310.547 315.625 L 310.547 310.938 315.234 310.938 L 319.922 310.938 319.923 301.270 L 319.923 291.602 315.443 291.723 L 310.963 291.844 310.853 296.020 L 310.742 300.195 305.864 300.391 L 300.986 300.586 301.110 303.539 C 301.246 306.765,300.847 307.549,299.142 307.409 C 298.647 307.369,296.704 307.355,294.824 307.379 L 291.406 307.422 291.406 309.168 L 291.406 310.913 286.621 311.023 L 281.836 311.133 281.722 314.160 L 281.608 317.188 272.072 317.188 L 262.536 317.188 262.420 319.824 L 262.305 322.461 250.505 322.564 L 238.705 322.668 238.591 325.689 L 238.477 328.711 227.843 328.815 L 217.209 328.919 217.296 332.916 C 217.344 335.115,217.259 337.104,217.108 337.336 C 216.914 337.633,207.986 337.749,187.030 337.727 L 157.227 337.695 157.109 335.880 L 156.992 334.064 152.031 334.122 L 147.070 334.180 147.070 331.445 L 147.070 328.711 142.188 328.516 C 138.616 328.373,137.315 328.189,137.344 327.832 C 137.365 327.563,137.409 324.422,137.441 320.851 L 137.500 314.357 146.582 314.536 C 151.577 314.634,153.687 314.650,151.270 314.571 L 146.875 314.428 146.875 303.503 L 146.875 292.578 145.215 292.523 C 144.302 292.492,137.754 292.448,130.664 292.425 L 117.773 292.383 117.671 279.401 L 117.568 266.418 113.081 266.480 L 108.594 266.542 108.594 284.430 M98.468 282.312 C 98.439 283.149,98.280 283.183,93.848 283.302 L 89.258 283.426 93.860 283.510 C 98.590 283.596,99.274 283.375,98.700 281.946 C 98.590 281.671,98.485 281.835,98.468 282.312 M312.500 283.456 C 315.739 283.743,319.924 283.766,319.923 283.496 C 319.922 283.335,317.944 283.233,315.527 283.269 C 313.110 283.305,311.748 283.389,312.500 283.456 M258.209 298.145 C 258.212 301.206,258.344 303.529,258.502 303.307 C 258.677 303.060,260.921 302.908,264.258 302.916 L 269.727 302.930 269.759 301.758 C 269.777 301.113,269.820 300.366,269.856 300.098 C 269.905 299.732,271.389 299.609,275.781 299.609 L 281.641 299.609 281.641 296.094 L 281.641 292.578 269.922 292.578 L 258.203 292.578 258.209 298.145 M258.315 309.180 C 258.318 310.254,258.394 310.647,258.483 310.053 C 258.573 309.459,258.571 308.581,258.478 308.100 C 258.385 307.620,258.312 308.105,258.315 309.180 M216.286 308.476 C 216.946 308.604,217.178 308.974,217.295 310.083 L 217.447 311.523 217.512 310.073 L 217.578 308.622 221.387 308.494 C 224.798 308.380,224.686 308.364,220.313 308.338 C 217.627 308.322,215.815 308.384,216.286 308.476 M195.403 314.742 L 197.642 314.882 197.754 323.750 L 197.867 332.617 197.957 323.742 L 198.047 314.868 202.832 314.745 C 205.794 314.669,204.864 314.618,200.391 314.611 C 196.416 314.606,194.172 314.664,195.403 314.742 M217.294 318.359 C 217.294 319.326,217.370 319.722,217.463 319.238 C 217.556 318.755,217.556 317.964,217.463 317.480 C 217.370 316.997,217.294 317.393,217.294 318.359 M207.938 319.922 C 207.938 321.318,208.008 321.890,208.095 321.191 C 208.182 320.493,208.182 319.351,208.095 318.652 C 208.008 317.954,207.938 318.525,207.938 319.922 M214.844 323.047 L 212.305 323.303 214.723 323.370 C 216.053 323.407,217.250 323.262,217.383 323.047 C 217.516 322.832,217.570 322.687,217.504 322.724 C 217.437 322.761,216.240 322.906,214.844 323.047 M161.049 323.336 C 162.293 323.414,164.226 323.413,165.346 323.334 C 166.466 323.256,165.449 323.192,163.086 323.193 C 160.723 323.194,159.806 323.258,161.049 323.336 M171.784 323.330 C 172.486 323.417,173.541 323.415,174.128 323.326 C 174.715 323.237,174.141 323.166,172.852 323.168 C 171.563 323.170,171.082 323.243,171.784 323.330 M209.082 323.316 C 209.458 323.414,210.073 323.414,210.449 323.316 C 210.825 323.218,210.518 323.138,209.766 323.138 C 209.014 323.138,208.706 323.218,209.082 323.316 M177.434 325.391 C 177.434 326.143,177.515 326.450,177.613 326.074 C 177.711 325.698,177.711 325.083,177.613 324.707 C 177.515 324.331,177.434 324.639,177.434 325.391 " stroke="none" fill="#efa337" fill-rule="evenodd"></path><path id="path1" d="M74.219 37.500 L 74.219 42.188 69.336 42.188 L 64.453 42.188 64.453 61.121 L 64.453 80.055 69.416 80.164 L 74.380 80.273 74.270 82.338 C 74.115 85.238,74.617 89.495,75.080 89.208 C 75.289 89.079,77.422 89.096,79.820 89.245 L 84.180 89.517 84.047 93.782 L 83.915 98.047 94.887 98.047 L 105.859 98.047 105.859 93.750 L 105.859 89.453 107.715 89.386 C 108.735 89.350,110.010 89.284,110.547 89.240 C 111.084 89.196,112.446 89.138,113.574 89.111 L 115.625 89.063 115.625 84.570 L 115.625 80.078 120.703 80.078 L 125.781 80.078 125.781 65.820 L 125.781 51.563 120.898 51.563 L 116.016 51.563 116.016 42.188 L 116.016 32.813 95.117 32.813 L 74.219 32.813 74.219 37.500 M291.152 33.496 C 291.154 33.872,291.124 35.981,291.085 38.184 L 291.016 42.188 286.133 42.188 L 281.250 42.188 281.250 61.133 L 281.250 80.078 286.133 80.078 L 291.016 80.078 291.016 84.668 L 291.017 89.258 295.997 89.258 L 300.977 89.258 301.087 93.652 L 301.197 98.047 311.341 98.047 L 321.484 98.047 321.484 93.806 L 321.484 89.564 323.885 89.313 C 325.206 89.175,327.447 89.063,328.866 89.063 L 331.445 89.063 331.445 84.668 L 331.445 80.273 336.426 80.164 L 341.406 80.055 341.406 61.121 L 341.406 42.188 336.523 42.188 L 331.641 42.188 331.641 37.500 L 331.641 32.813 311.395 32.813 C 292.372 32.813,291.149 32.854,291.152 33.496 M95.313 56.445 L 95.313 61.328 100.391 61.328 L 105.469 61.328 105.550 63.965 C 105.594 65.415,105.638 67.612,105.647 68.847 L 105.664 71.092 94.868 71.093 L 84.071 71.094 84.113 61.328 L 84.154 51.563 89.733 51.563 L 95.313 51.563 95.313 56.445 M321.881 53.223 C 321.884 54.136,321.997 58.530,322.132 62.988 L 322.377 71.094 311.775 71.094 L 301.172 71.094 301.172 66.211 L 301.172 61.328 306.055 61.328 L 310.938 61.328 310.938 56.445 L 310.938 51.563 316.406 51.563 L 321.875 51.563 321.881 53.223 M166.890 95.996 L 166.992 111.133 177.539 111.098 L 188.086 111.064 188.086 106.411 L 188.086 101.758 182.910 101.649 L 177.734 101.540 177.734 96.278 L 177.734 91.016 183.105 91.016 L 188.477 91.016 188.477 85.938 L 188.477 80.860 177.632 80.859 L 166.788 80.859 166.890 95.996 M217.188 85.938 L 217.188 91.016 222.656 91.016 L 228.125 91.016 228.125 96.507 C 228.125 99.943,227.984 101.912,227.747 101.766 C 227.540 101.637,225.073 101.654,222.267 101.802 L 217.164 102.071 217.273 106.602 L 217.383 111.133 228.223 111.203 L 239.063 111.273 239.132 102.609 C 239.171 97.844,239.215 91.002,239.230 87.405 L 239.258 80.864 228.223 80.862 L 217.188 80.859 217.188 85.938 M216.931 96.680 C 216.932 98.398,217.001 99.053,217.083 98.134 C 217.166 97.215,217.165 95.809,217.081 95.009 C 216.997 94.209,216.929 94.961,216.931 96.680 M88.194 120.619 L 84.395 120.731 84.635 125.112 C 84.766 127.521,84.933 129.560,85.004 129.644 C 85.226 129.903,92.314 130.042,93.664 129.813 L 94.946 129.596 94.836 125.092 L 94.727 120.589 93.359 120.548 C 92.607 120.526,90.283 120.558,88.194 120.619 M311.508 120.726 C 311.435 120.846,311.478 122.911,311.605 125.316 L 311.836 129.688 316.660 129.688 L 321.484 129.688 321.484 125.218 L 321.484 120.748 316.563 120.628 C 313.857 120.562,311.582 120.606,311.508 120.726 M192.291 138.562 C 192.884 138.651,193.763 138.649,194.244 138.556 C 194.724 138.464,194.238 138.390,193.164 138.393 C 192.090 138.396,191.697 138.472,192.291 138.562 M212.012 138.557 C 212.495 138.650,213.286 138.650,213.770 138.557 C 214.253 138.464,213.857 138.388,212.891 138.388 C 211.924 138.388,211.528 138.464,212.012 138.557 M137.435 160.003 C 137.357 160.994,137.359 164.861,137.440 168.597 L 137.589 175.391 147.310 175.391 L 157.031 175.391 157.062 176.270 C 157.079 176.753,157.123 178.818,157.160 180.859 L 157.227 184.570 167.169 184.675 C 178.735 184.796,177.720 184.291,177.728 189.930 L 177.734 194.118 185.059 194.129 C 189.087 194.135,193.657 194.028,195.215 193.891 L 198.047 193.642 198.047 189.399 L 198.047 185.156 192.480 185.059 C 189.419 185.005,184.805 184.961,182.227 184.961 L 177.539 184.961 177.539 179.980 L 177.539 174.999 167.285 175.000 L 157.031 175.000 157.031 173.496 C 157.031 172.669,156.922 170.692,156.788 169.102 L 156.544 166.211 153.370 166.320 C 151.624 166.380,149.404 166.285,148.438 166.109 L 146.680 165.790 146.816 162.816 C 147.034 158.049,147.195 158.203,142.005 158.203 L 137.579 158.203 137.435 160.003 M74.219 162.891 L 74.219 167.188 79.102 167.188 L 83.984 167.188 83.984 162.891 L 83.984 158.594 79.102 158.594 L 74.219 158.594 74.219 162.891 M271.875 163.086 L 271.875 167.578 276.751 167.578 L 281.627 167.578 281.731 177.051 L 281.836 186.523 286.212 186.523 C 291.966 186.523,291.537 187.412,291.196 176.212 L 290.910 166.797 286.275 166.797 L 281.641 166.797 281.641 162.695 L 281.641 158.594 276.758 158.594 L 271.875 158.594 271.875 163.086 M322.070 162.890 L 322.070 167.187 326.848 167.187 C 332.439 167.188,332.090 167.543,331.933 162.014 L 331.836 158.598 326.953 158.596 L 322.070 158.593 322.070 162.890 M271.484 190.527 L 271.484 194.141 234.668 194.140 L 197.852 194.139 197.972 198.820 L 198.093 203.501 234.788 203.512 L 271.484 203.523 271.484 199.074 L 271.484 194.626 276.352 194.464 C 282.126 194.271,281.529 194.709,281.698 190.547 L 281.836 187.149 276.659 187.032 L 271.483 186.914 271.484 190.527 M108.594 221.289 C 108.594 224.922,108.719 226.178,109.082 226.195 C 109.351 226.208,111.350 226.199,113.524 226.175 C 118.115 226.123,117.969 225.993,117.969 230.115 L 117.969 232.822 132.324 232.720 L 146.680 232.617 146.793 229.199 L 146.905 225.781 132.437 225.781 L 117.969 225.781 117.883 222.754 C 117.836 221.089,117.792 218.979,117.785 218.066 L 117.773 216.405 113.184 216.406 L 108.594 216.406 108.594 221.289 M157.032 235.426 C 157.032 237.830,157.193 239.898,157.392 240.020 C 157.590 240.143,162.075 240.039,167.359 239.790 C 172.643 239.541,177.083 239.452,177.224 239.594 C 177.365 239.735,177.561 241.783,177.658 244.144 L 177.835 248.438 187.745 248.438 L 197.656 248.438 197.656 250.586 L 197.656 252.734 221.973 252.729 C 251.160 252.723,248.092 253.234,248.016 248.388 L 247.956 244.531 222.774 244.531 L 197.592 244.531 197.722 241.739 L 197.852 238.947 187.598 239.161 L 177.344 239.375 177.344 235.215 L 177.344 231.055 167.188 231.055 L 157.033 231.055 157.032 235.426 M291.317 288.086 L 291.515 292.578 286.578 292.578 L 281.641 292.578 281.641 296.106 L 281.641 299.633 286.426 299.524 L 291.211 299.414 291.324 295.996 L 291.437 292.578 296.109 292.578 L 300.781 292.578 300.781 288.086 L 300.781 283.594 295.950 283.594 L 291.119 283.594 291.317 288.086 M282.534 287.695 C 282.537 288.770,282.612 289.163,282.702 288.569 C 282.792 287.975,282.790 287.096,282.697 286.616 C 282.604 286.135,282.531 286.621,282.534 287.695 M188.492 286.719 C 188.435 286.826,188.352 289.067,188.310 291.699 L 188.232 296.484 202.765 296.484 L 217.298 296.484 217.018 291.703 C 216.865 289.073,216.706 286.888,216.666 286.848 C 216.490 286.672,188.586 286.544,188.492 286.719 M108.594 306.628 L 108.594 310.938 112.891 310.938 C 115.254 310.938,117.319 310.938,117.480 310.938 C 117.642 310.938,117.773 309.048,117.773 306.738 L 117.773 302.539 113.184 302.429 L 108.594 302.319 108.594 306.628 M228.125 307.029 L 228.125 311.328 243.164 311.328 L 258.203 311.328 258.203 307.043 L 258.203 302.758 243.164 302.744 L 228.125 302.729 228.125 307.029 M208.162 310.645 C 208.072 315.196,208.065 317.515,208.132 320.227 L 208.203 323.072 212.765 322.962 L 217.328 322.852 217.384 317.383 C 217.415 314.375,217.365 311.167,217.273 310.254 L 217.105 308.594 212.654 308.594 L 208.203 308.594 208.162 310.645 M157.316 314.760 C 156.955 315.509,156.998 322.590,157.365 322.816 C 157.589 322.955,162.269 323.107,167.765 323.155 L 177.758 323.242 177.649 319.031 L 177.539 314.819 167.495 314.650 C 161.970 314.558,157.390 314.607,157.316 314.760 M188.255 314.746 C 188.240 314.907,188.250 316.462,188.277 318.201 C 188.304 319.940,188.209 321.830,188.066 322.400 L 187.806 323.438 182.835 323.438 C 176.880 323.438,177.514 322.867,177.661 328.091 L 177.783 332.422 187.720 332.422 L 197.656 332.422 197.656 323.691 L 197.656 314.960 194.434 314.709 C 190.175 314.377,188.287 314.389,188.255 314.746 " stroke="none" fill="#e7eede" fill-rule="evenodd"></path><path id="path2" d="M205.859 12.495 C 183.954 12.638,174.910 12.824,174.197 13.145 C 171.288 14.456,169.141 17.747,169.141 20.894 L 169.141 22.656 167.090 22.665 C 162.416 22.684,158.203 26.656,158.203 31.042 C 158.203 32.371,158.149 32.423,156.738 32.451 C 140.914 32.767,138.988 33.920,138.738 43.231 C 138.642 46.793,138.479 48.047,138.113 48.047 C 137.840 48.047,136.888 48.575,135.996 49.221 C 134.785 50.099,134.375 50.244,134.375 49.794 C 134.375 46.609,129.801 42.578,126.187 42.578 L 124.609 42.578 124.609 36.568 C 124.609 29.310,123.889 27.283,120.582 25.239 L 118.737 24.099 94.960 24.077 L 71.183 24.056 69.579 25.117 C 67.389 26.567,65.942 28.864,65.712 31.260 C 65.528 33.173,65.505 33.203,64.196 33.203 C 61.360 33.203,57.590 35.708,56.245 38.486 C 55.470 40.089,55.452 40.680,55.557 61.405 L 55.664 82.679 56.845 84.589 C 58.486 87.243,60.752 88.755,63.417 88.976 L 65.533 89.152 65.727 90.872 C 66.139 94.520,69.467 97.652,73.266 97.967 C 75.311 98.137,75.391 98.186,75.391 99.280 C 75.391 99.904,75.637 101.006,75.939 101.728 L 76.488 103.041 73.845 103.190 C 69.301 103.447,66.062 106.452,65.707 110.741 L 65.532 112.841 58.775 112.964 L 52.017 113.086 50.336 114.269 C 47.909 115.976,46.415 118.283,46.185 120.676 L 45.994 122.656 44.543 122.656 C 41.153 122.656,37.530 125.974,36.734 129.808 C 36.449 131.184,36.339 136.894,36.412 146.544 L 36.523 161.191 37.601 162.819 C 39.119 165.112,41.377 166.502,43.924 166.714 L 46.004 166.886 46.177 168.966 C 46.497 172.829,49.688 176.106,53.483 176.471 C 55.323 176.648,55.391 176.699,55.611 178.078 C 56.004 180.534,57.869 182.982,60.225 184.135 L 62.325 185.162 84.023 185.062 L 105.722 184.961 107.353 183.881 L 108.984 182.801 108.984 184.174 C 108.984 185.337,108.850 185.547,108.105 185.549 C 106.006 185.554,104.042 186.476,102.190 188.325 C 101.040 189.474,99.930 190.234,99.403 190.234 C 96.083 190.234,91.622 193.268,90.661 196.180 C 90.234 197.474,90.083 197.571,88.239 197.749 C 85.861 197.977,83.549 199.479,81.847 201.900 L 80.664 203.582 80.556 222.820 L 80.448 242.058 81.550 244.167 C 82.852 246.661,85.358 248.424,88.025 248.725 L 89.755 248.920 89.927 250.999 C 90.258 254.988,93.469 258.181,97.484 258.514 C 99.594 258.689,99.609 258.700,99.609 259.984 C 99.609 260.695,99.772 261.704,99.970 262.226 C 100.774 264.340,100.052 266.406,98.509 266.406 C 95.369 266.406,91.536 269.327,90.371 272.609 C 89.716 274.454,89.626 274.532,87.965 274.720 C 85.841 274.959,83.447 276.577,81.847 278.853 L 80.664 280.536 80.664 301.953 L 80.664 323.370 81.847 325.053 C 83.546 327.471,85.861 328.976,88.232 329.204 L 90.191 329.392 90.310 337.285 C 90.463 347.379,91.982 350.148,97.666 350.694 C 99.398 350.860,99.609 350.981,99.609 351.808 L 99.609 352.734 86.177 352.734 L 72.745 352.734 70.656 353.826 C 69.135 354.621,68.246 355.435,67.389 356.823 L 66.211 358.728 66.211 365.818 C 66.211 373.906,66.564 374.972,69.994 377.243 L 71.622 378.320 92.354 378.416 C 103.757 378.469,125.755 378.381,141.240 378.221 L 169.394 377.930 171.022 376.852 C 173.217 375.399,174.682 373.094,174.908 370.737 L 175.091 368.837 177.354 368.674 C 181.210 368.395,184.559 365.379,185.046 361.747 L 185.259 360.156 202.174 360.156 C 211.650 360.156,219.510 359.997,220.045 359.793 C 220.965 359.443,221.006 359.500,221.184 361.346 C 221.550 365.156,224.820 368.346,228.689 368.667 L 230.769 368.839 230.951 370.738 C 231.177 373.094,232.642 375.399,234.837 376.852 L 236.465 377.930 260.713 378.171 C 274.049 378.303,295.883 378.435,309.233 378.464 L 333.505 378.516 335.594 377.424 C 339.348 375.463,340.012 373.840,340.167 366.244 C 340.314 359.044,340.041 357.684,337.995 355.419 C 335.346 352.487,335.713 352.548,321.582 352.689 L 308.984 352.815 308.984 351.395 C 308.984 350.614,308.736 349.381,308.433 348.656 C 307.926 347.441,307.955 347.194,308.804 345.518 C 309.704 343.740,309.720 343.527,309.490 336.353 L 309.256 329.009 311.624 328.837 C 315.798 328.536,319.061 325.464,319.444 321.475 C 319.624 319.601,319.674 319.531,320.850 319.523 C 323.598 319.503,327.075 316.915,328.301 313.977 C 328.968 312.378,329.141 293.295,328.568 284.514 C 328.160 278.261,325.802 275.150,321.130 274.701 L 319.232 274.519 319.038 272.799 C 318.629 269.172,315.297 266.019,311.543 265.708 C 309.483 265.537,309.458 265.520,309.229 264.085 C 308.949 262.338,307.120 259.702,305.538 258.768 L 304.387 258.088 305.972 256.876 C 306.844 256.209,307.967 254.889,308.466 253.942 L 309.375 252.221 309.375 236.059 C 309.375 222.829,309.272 219.651,308.809 218.542 C 308.315 217.359,308.315 217.016,308.809 215.833 C 309.120 215.088,309.375 213.945,309.375 213.294 C 309.375 212.164,309.450 212.109,311.009 212.109 C 313.203 212.109,315.621 210.875,317.148 208.975 C 319.512 206.034,319.568 205.678,319.375 194.815 L 319.200 184.961 331.797 184.961 L 344.394 184.961 346.022 183.883 C 348.130 182.488,349.653 180.155,349.903 177.937 C 350.101 176.180,350.108 176.172,351.626 176.172 C 355.753 176.172,360.120 172.044,360.148 168.117 C 360.156 166.960,360.247 166.888,361.958 166.695 C 364.163 166.447,366.528 164.865,368.153 162.553 L 369.336 160.870 369.336 144.727 L 369.336 128.583 368.153 126.900 C 366.543 124.609,364.160 123.006,362.003 122.763 L 360.247 122.565 360.061 120.630 C 359.836 118.286,358.321 115.962,355.914 114.269 L 354.233 113.086 347.475 112.964 L 340.718 112.841 340.543 110.741 C 340.167 106.202,336.937 103.402,331.829 103.185 L 328.638 103.050 329.358 101.638 C 329.754 100.861,330.078 99.756,330.078 99.183 C 330.078 98.190,330.188 98.133,332.387 97.974 C 336.476 97.678,339.767 94.575,340.143 90.660 L 340.325 88.761 342.405 88.589 C 344.951 88.377,347.210 86.986,348.727 84.694 L 349.805 83.066 349.923 61.943 C 350.005 47.266,349.909 40.366,349.607 39.331 C 348.695 36.204,344.852 33.230,341.699 33.212 C 340.444 33.204,340.234 33.078,340.232 32.324 C 340.224 29.085,337.211 25.080,334.179 24.279 C 330.834 23.396,289.282 24.043,287.285 25.009 C 284.522 26.347,282.422 29.366,282.422 32.001 C 282.422 33.045,282.268 33.194,280.957 33.414 C 275.696 34.297,272.656 37.476,272.656 42.096 L 272.656 44.101 271.302 43.535 C 270.557 43.223,269.414 42.969,268.763 42.969 C 267.605 42.969,267.578 42.925,267.578 41.060 C 267.578 36.447,264.055 32.882,259.073 32.452 L 256.465 32.227 256.166 30.469 C 255.572 26.967,252.055 23.529,248.677 23.148 L 246.875 22.945 246.873 21.336 C 246.866 16.098,242.720 11.884,237.891 12.205 C 237.139 12.254,222.725 12.385,205.859 12.495 M116.106 42.090 C 116.186 49.163,116.327 51.379,116.699 51.416 C 116.968 51.443,119.121 51.487,121.484 51.514 L 125.781 51.563 125.781 65.820 L 125.781 80.078 121.582 80.148 C 119.272 80.186,117.075 80.216,116.699 80.214 C 116.087 80.212,116.016 80.691,116.016 84.832 L 116.016 89.453 111.035 89.453 L 106.055 89.452 106.055 93.847 L 106.055 98.242 95.020 98.242 L 83.984 98.242 83.984 93.848 L 83.984 89.453 79.102 89.453 L 74.219 89.453 74.219 84.743 L 74.219 80.033 69.387 80.153 L 64.555 80.273 64.332 72.461 C 64.210 68.164,64.085 59.595,64.054 53.418 L 63.999 42.188 67.888 42.188 C 70.027 42.188,72.327 42.078,72.998 41.943 L 74.219 41.699 74.219 37.256 L 74.219 32.813 95.110 32.813 L 116.001 32.813 116.106 42.090 M331.726 37.402 L 331.836 41.992 336.621 42.102 L 341.406 42.212 341.406 61.145 L 341.406 80.078 337.207 80.148 C 334.897 80.186,332.700 80.216,332.324 80.214 C 331.711 80.212,331.641 80.692,331.641 84.849 C 331.641 88.333,331.519 89.472,331.152 89.424 C 330.884 89.389,328.599 89.381,326.074 89.407 L 321.484 89.453 321.484 93.750 L 321.484 98.047 311.328 98.047 L 301.172 98.047 301.172 93.750 L 301.172 89.453 296.094 89.453 L 291.016 89.453 291.016 84.743 L 291.016 80.033 286.132 80.153 L 281.249 80.273 281.249 61.230 L 281.250 42.188 286.133 42.188 L 291.016 42.188 291.016 37.500 L 291.016 32.813 311.316 32.813 L 331.616 32.813 331.726 37.402 M258.984 49.609 C 258.984 50.477,258.807 50.773,258.301 50.750 C 257.892 50.732,257.814 50.640,258.105 50.523 C 258.374 50.414,258.594 49.901,258.594 49.382 C 258.594 48.862,258.682 48.438,258.789 48.438 C 258.896 48.438,258.984 48.965,258.984 49.609 M238.669 60.840 L 238.672 70.703 224.858 70.703 L 211.044 70.703 210.795 72.515 C 210.479 74.827,210.477 78.069,210.792 79.643 L 211.037 80.869 219.679 80.614 C 224.432 80.474,233.022 80.492,238.770 80.654 L 249.219 80.948 249.219 100.044 L 249.219 119.141 253.906 119.141 C 256.484 119.141,258.688 119.141,258.803 119.141 C 258.919 119.141,259.051 112.856,259.096 105.176 L 259.180 91.211 263.737 91.211 C 266.244 91.211,268.358 91.299,268.435 91.406 C 268.511 91.514,268.510 99.995,268.431 110.254 L 268.288 128.906 258.754 128.906 L 249.219 128.906 249.219 133.789 L 249.219 138.672 243.945 138.672 L 238.672 138.672 238.672 144.141 L 238.672 149.609 255.273 149.609 L 271.875 149.609 271.875 153.906 L 271.875 158.203 276.953 158.203 L 282.031 158.203 282.031 162.500 L 282.031 166.797 286.719 166.797 L 291.406 166.797 291.406 171.289 L 291.406 175.781 296.094 175.781 L 300.781 175.781 300.781 180.241 C 300.781 186.452,300.386 186.031,305.909 185.707 L 310.547 185.436 310.547 194.226 L 310.547 203.016 308.496 203.263 C 307.368 203.398,305.171 203.510,303.613 203.512 L 300.781 203.516 300.781 208.008 L 300.781 212.500 297.363 212.504 C 295.483 212.507,293.281 212.618,292.468 212.753 L 290.991 212.997 291.101 217.338 L 291.211 221.680 295.996 221.789 L 300.781 221.899 300.781 235.950 L 300.781 250.000 295.898 250.000 L 291.016 250.000 291.022 257.715 C 291.029 267.210,290.606 266.508,296.224 266.344 L 300.757 266.211 300.867 270.117 L 300.977 274.023 305.749 274.133 L 310.522 274.243 310.632 278.771 L 310.742 283.299 315.332 283.230 L 319.922 283.162 319.922 297.050 L 319.922 310.938 315.234 310.938 L 310.547 310.938 310.547 315.625 L 310.547 320.313 305.957 320.359 C 303.433 320.384,301.235 320.384,301.074 320.359 C 300.913 320.333,300.781 325.130,300.781 331.019 L 300.781 341.725 291.438 341.859 C 286.300 341.932,281.968 342.120,281.812 342.276 C 281.657 342.432,281.539 344.585,281.551 347.061 L 281.572 351.563 271.817 351.563 L 262.062 351.563 262.184 342.285 L 262.305 333.008 254.980 332.902 L 247.656 332.795 247.656 337.254 L 247.656 341.712 246.599 341.978 C 246.017 342.124,240.261 342.217,233.806 342.184 C 227.351 342.152,220.972 342.140,219.629 342.157 L 217.188 342.188 217.188 346.875 L 217.188 351.563 182.227 351.563 L 147.266 351.563 147.266 346.875 L 147.266 342.188 142.238 342.188 L 137.210 342.188 137.257 346.777 L 137.305 351.367 132.520 351.477 L 127.734 351.587 127.734 346.641 L 127.734 341.695 126.270 341.937 C 125.464 342.070,123.267 342.181,121.387 342.183 L 117.969 342.188 117.969 346.875 L 117.969 351.563 113.184 351.563 L 108.398 351.563 108.398 346.778 L 108.398 341.992 103.613 341.992 L 98.827 341.992 98.828 331.152 L 98.828 320.313 94.043 320.313 L 89.258 320.313 89.363 301.758 L 89.468 283.203 93.904 283.203 L 98.340 283.203 98.584 281.982 C 98.718 281.311,98.828 279.553,98.828 278.076 L 98.828 275.391 100.879 275.349 C 102.007 275.326,104.204 275.341,105.762 275.383 L 108.594 275.460 108.594 271.000 L 108.594 266.541 112.947 266.482 C 118.116 266.413,117.469 266.923,117.636 262.793 L 117.773 259.375 112.988 259.375 L 108.203 259.375 108.203 254.688 L 108.203 250.000 103.516 250.000 L 98.828 250.000 98.828 244.922 L 98.828 239.844 94.043 239.844 L 89.258 239.844 89.364 223.145 L 89.470 206.445 94.051 206.445 L 98.633 206.445 98.745 202.865 L 98.857 199.285 103.303 199.154 C 108.456 199.003,108.186 199.148,108.473 196.365 L 108.696 194.210 113.137 194.429 L 117.578 194.647 117.652 191.171 C 117.693 189.260,117.763 181.455,117.808 173.828 C 117.854 166.201,117.908 159.478,117.930 158.887 L 117.969 157.813 122.656 157.813 L 127.344 157.813 127.344 153.509 L 127.344 149.205 147.275 149.309 L 167.206 149.414 167.099 144.141 L 166.992 138.867 162.012 138.758 L 157.031 138.649 157.031 133.777 L 157.031 128.906 147.266 128.906 L 137.500 128.906 137.500 114.123 C 137.500 105.993,137.385 97.462,137.245 95.165 L 136.989 90.991 141.834 91.101 L 146.680 91.211 146.782 105.176 L 146.885 119.141 151.958 119.141 L 157.031 119.141 157.031 94.922 L 157.031 70.703 161.035 70.708 C 167.211 70.717,166.797 70.349,166.797 75.827 C 166.797 80.373,166.815 80.469,167.676 80.493 C 168.159 80.506,174.575 80.604,181.934 80.712 L 195.313 80.907 195.313 75.805 L 195.313 70.703 181.055 70.703 L 166.797 70.703 166.797 65.625 L 166.797 60.547 191.992 60.547 L 217.188 60.547 217.188 55.885 L 217.188 51.224 218.262 51.041 C 218.853 50.941,223.685 50.885,229.001 50.918 L 238.667 50.977 238.669 60.840 M84.375 61.328 L 84.375 71.094 94.922 71.094 L 105.469 71.094 105.469 66.211 L 105.469 61.328 100.442 61.328 L 95.415 61.328 95.173 59.863 C 95.039 59.058,94.929 56.860,94.926 54.980 L 94.922 51.563 89.648 51.563 L 84.375 51.563 84.375 61.328 M311.079 56.445 L 311.341 61.328 306.256 61.328 L 301.172 61.328 301.172 66.211 L 301.172 71.094 311.523 71.094 L 321.875 71.094 321.875 61.328 L 321.875 51.563 316.347 51.563 L 310.818 51.563 311.079 56.445 M138.868 68.590 C 139.761 68.814,139.770 68.860,139.228 70.397 C 138.922 71.264,138.672 72.304,138.672 72.709 C 138.672 73.114,138.284 73.751,137.811 74.125 C 137.337 74.499,136.370 75.358,135.662 76.035 L 134.375 77.266 134.375 71.448 L 134.375 65.630 136.163 66.995 C 137.146 67.745,138.363 68.463,138.868 68.590 M128.597 95.703 L 128.483 103.125 121.077 103.125 C 117.004 103.125,113.672 103.059,113.672 102.977 C 113.672 102.896,113.936 102.199,114.258 101.427 C 114.580 100.656,114.844 99.602,114.844 99.084 C 114.844 98.227,115.033 98.128,116.969 97.967 C 120.889 97.642,124.151 94.475,124.520 90.635 L 124.705 88.711 126.513 88.566 C 127.507 88.487,128.408 88.390,128.516 88.351 C 128.623 88.312,128.660 91.620,128.597 95.703 M280.325 88.963 L 282.330 89.152 282.524 90.872 C 282.947 94.622,286.289 97.686,290.270 97.974 C 292.403 98.128,292.578 98.212,292.578 99.083 C 292.578 99.601,292.842 100.656,293.164 101.427 C 293.486 102.199,293.750 102.889,293.750 102.962 C 293.750 103.035,290.058 103.146,285.546 103.208 L 277.343 103.320 277.343 96.419 C 277.344 92.623,277.225 89.208,277.081 88.831 C 276.866 88.272,276.956 88.204,277.569 88.460 C 277.982 88.633,279.223 88.859,280.325 88.963 M177.945 91.325 C 177.655 91.616,177.678 100.180,177.971 100.945 C 178.171 101.464,179.013 101.563,183.245 101.563 L 188.281 101.563 188.281 96.327 L 188.281 91.092 183.219 91.103 C 180.435 91.109,178.062 91.209,177.945 91.325 M217.459 91.265 C 217.310 91.414,217.188 93.792,217.188 96.549 L 217.188 101.563 222.646 101.563 L 228.104 101.563 227.911 96.387 L 227.718 91.211 222.724 91.102 C 219.977 91.043,217.608 91.116,217.459 91.265 M126.563 120.703 L 126.563 129.688 121.325 129.688 L 116.088 129.688 115.954 131.893 C 115.739 135.443,116.127 138.885,116.728 138.760 C 117.013 138.701,117.134 138.833,116.998 139.053 C 116.862 139.273,116.981 139.456,117.262 139.459 C 117.592 139.463,117.628 139.567,117.364 139.752 C 117.139 139.910,116.977 140.391,117.004 140.820 C 117.031 141.250,117.084 142.114,117.121 142.741 L 117.188 143.880 118.740 142.199 C 119.593 141.274,120.198 140.364,120.082 140.178 C 119.834 139.776,120.326 139.598,122.559 139.286 L 124.219 139.053 124.219 143.550 L 124.219 148.047 120.313 148.047 L 116.406 148.047 116.406 143.555 L 116.406 139.063 111.145 139.063 L 105.884 139.063 105.774 143.652 L 105.664 148.242 89.941 148.344 L 74.219 148.446 74.219 153.325 L 74.219 158.203 79.102 158.203 L 83.984 158.203 83.984 167.383 L 83.984 176.563 74.219 176.563 L 64.453 176.563 64.453 172.029 L 64.453 167.496 59.668 167.635 L 54.883 167.773 54.773 162.988 L 54.663 158.203 49.983 158.203 L 45.302 158.203 45.405 144.852 L 45.508 131.501 50.098 131.600 L 54.688 131.699 54.688 126.787 L 54.688 121.875 57.910 121.783 C 59.683 121.732,64.097 121.689,67.719 121.685 L 74.305 121.680 74.241 117.086 C 74.206 114.560,74.285 112.318,74.416 112.106 C 74.570 111.857,83.897 111.719,100.609 111.719 L 126.563 111.719 126.563 120.703 M331.641 113.813 C 331.641 114.959,331.756 117.267,331.898 118.941 L 332.155 121.984 340.246 121.707 C 344.696 121.555,348.975 121.550,349.754 121.696 L 351.172 121.962 351.172 124.989 C 351.172 126.654,351.285 128.840,351.423 129.848 L 351.674 131.680 356.179 131.614 L 360.683 131.547 360.765 144.495 C 360.861 159.656,361.440 158.203,355.299 158.203 L 351.172 158.203 351.172 162.891 L 351.172 167.578 346.289 167.578 L 341.406 167.578 341.406 172.070 L 341.406 176.563 331.686 176.563 L 321.965 176.563 322.018 167.480 L 322.070 158.398 327.000 158.509 L 331.929 158.619 332.209 153.935 C 332.363 151.359,332.375 149.069,332.237 148.845 C 332.067 148.571,325.350 148.438,311.696 148.438 L 291.406 148.438 291.406 151.172 L 291.406 153.906 287.845 153.906 C 284.343 153.906,284.288 153.892,284.519 153.027 C 284.649 152.544,284.757 149.116,284.760 145.410 L 284.766 138.672 287.891 138.672 L 291.016 138.672 291.080 143.262 C 291.133 147.072,291.207 146.410,291.514 139.360 C 291.982 128.617,292.620 129.688,285.754 129.688 L 280.078 129.688 280.078 120.964 C 280.078 116.165,280.164 112.154,280.269 112.048 C 280.374 111.943,291.976 111.828,306.051 111.792 L 331.641 111.728 331.641 113.813 M96.191 120.595 L 94.922 120.753 94.922 125.420 L 94.922 130.087 84.570 129.966 L 74.219 129.846 74.219 134.649 L 74.219 139.453 84.570 139.453 L 94.922 139.453 94.922 134.821 L 94.922 130.189 100.212 129.987 C 106.511 129.747,105.785 130.438,105.558 124.902 L 105.370 120.313 101.416 120.375 C 99.241 120.409,96.890 120.508,96.191 120.595 M301.172 125.161 L 301.172 129.890 302.246 129.905 C 302.837 129.914,305.015 129.956,307.086 129.999 L 310.851 130.078 311.133 134.766 L 311.414 139.453 321.528 139.453 L 331.641 139.453 331.641 134.534 L 331.641 129.616 321.582 129.749 L 311.523 129.883 311.414 125.074 L 311.304 120.265 306.238 120.348 L 301.172 120.432 301.172 125.161 M202.637 128.808 L 188.281 128.916 188.281 133.403 L 188.281 137.891 202.734 137.891 L 217.188 137.891 217.188 133.203 C 217.188 130.625,217.144 128.557,217.090 128.608 C 217.036 128.659,210.532 128.749,202.637 128.808 M274.818 136.568 C 276.069 137.388,276.333 141.739,275.098 141.181 C 274.722 141.011,272.700 140.800,270.605 140.712 L 266.797 140.552 266.797 139.026 L 266.797 137.500 268.848 137.499 C 270.106 137.499,271.427 137.216,272.266 136.766 C 273.018 136.363,273.683 136.012,273.744 135.985 C 273.805 135.959,274.289 136.221,274.818 136.568 M137.012 137.498 L 139.063 137.500 139.063 139.063 L 139.063 140.625 136.133 140.625 L 133.203 140.625 133.203 139.094 C 133.203 138.253,133.097 137.287,132.967 136.948 C 132.754 136.393,132.841 136.390,133.846 136.914 C 134.459 137.233,135.884 137.496,137.012 137.498 M289.453 139.453 C 289.453 139.668,289.014 139.844,288.477 139.844 C 287.689 139.844,287.500 140.038,287.500 140.843 C 287.500 141.421,287.668 141.739,287.897 141.598 C 288.115 141.463,288.182 141.170,288.044 140.948 C 287.907 140.726,288.299 140.867,288.917 141.261 C 289.891 141.884,289.970 141.891,289.516 141.318 C 289.060 140.741,289.089 140.675,289.744 140.801 C 290.198 140.889,290.495 140.728,290.495 140.395 C 290.495 140.092,290.304 139.841,290.072 139.838 C 289.839 139.834,289.912 139.661,290.234 139.453 C 290.735 139.130,290.721 139.074,290.137 139.068 C 289.761 139.065,289.453 139.238,289.453 139.453 M285.255 141.602 C 285.259 142.461,285.339 142.767,285.433 142.281 C 285.526 141.795,285.522 141.092,285.425 140.718 C 285.327 140.345,285.250 140.742,285.255 141.602 M286.158 141.365 C 286.039 141.558,286.205 141.816,286.526 141.939 C 286.880 142.075,287.109 141.938,287.109 141.589 C 287.109 140.958,286.499 140.814,286.158 141.365 M285.268 146.680 C 285.271 147.754,285.347 148.147,285.437 147.553 C 285.526 146.959,285.524 146.081,285.431 145.600 C 285.339 145.120,285.265 145.605,285.268 146.680 M108.984 158.795 L 108.984 160.949 107.354 159.869 C 105.760 158.813,105.581 158.786,99.151 158.666 C 92.981 158.550,92.578 158.497,92.578 157.795 C 92.578 157.087,92.998 157.041,100.488 156.933 C 104.839 156.870,108.530 156.779,108.691 156.730 C 108.853 156.681,108.984 157.610,108.984 158.795 M313.281 157.813 C 313.281 158.561,313.021 158.594,307.089 158.594 C 301.277 158.594,300.788 158.652,299.107 159.546 L 297.316 160.498 298.538 158.765 L 299.760 157.031 306.521 157.031 C 313.021 157.031,313.281 157.061,313.281 157.813 M102.649 171.777 L 102.539 176.367 96.777 176.475 L 91.016 176.583 91.016 171.885 L 91.016 167.188 96.887 167.188 L 102.759 167.188 102.649 171.777 M315.149 171.777 L 315.039 176.367 309.180 176.367 L 303.320 176.367 303.210 171.777 L 303.100 167.188 309.180 167.188 L 315.259 167.188 315.149 171.777 M232.813 285.942 C 224.326 286.065,217.339 286.201,217.285 286.246 C 217.231 286.291,217.188 288.613,217.188 291.406 L 217.188 296.484 202.734 296.484 L 188.281 296.484 188.281 291.211 L 188.281 285.938 172.656 285.938 L 157.031 285.938 157.031 289.063 L 157.031 292.188 151.953 292.188 L 146.875 292.188 146.875 303.320 L 146.875 314.453 151.465 314.473 C 153.989 314.484,160.933 314.476,166.895 314.454 L 177.734 314.415 177.734 318.709 L 177.734 323.003 182.813 323.123 L 187.892 323.242 187.891 318.835 L 187.891 314.427 197.852 314.538 L 207.813 314.648 207.813 311.388 L 207.813 308.127 217.764 308.263 L 227.716 308.398 227.965 306.738 C 228.102 305.825,228.136 304.551,228.042 303.906 L 227.870 302.734 243.036 302.734 L 258.203 302.734 258.203 297.473 L 258.203 292.211 253.223 292.102 L 248.242 291.992 248.307 288.770 C 248.343 286.997,248.343 285.586,248.307 285.634 C 248.272 285.681,241.299 285.820,232.813 285.942 M330.176 369.807 C 329.692 369.900,328.901 369.900,328.418 369.807 C 327.935 369.714,328.330 369.638,329.297 369.638 C 330.264 369.638,330.659 369.714,330.176 369.807 " stroke="none" fill="#080c10" fill-rule="evenodd"></path><path id="path3" d="M64.232 51.953 C 64.232 57.432,64.287 59.673,64.354 56.934 C 64.422 54.194,64.422 49.712,64.354 46.973 C 64.287 44.233,64.232 46.475,64.232 51.953 M258.594 49.382 C 258.594 49.901,258.374 50.414,258.105 50.523 C 257.814 50.640,257.892 50.732,258.301 50.750 C 258.807 50.773,258.984 50.477,258.984 49.609 C 258.984 48.965,258.896 48.438,258.789 48.438 C 258.682 48.438,258.594 48.862,258.594 49.382 M84.083 52.930 C 84.087 53.789,84.167 54.095,84.261 53.609 C 84.354 53.123,84.351 52.420,84.253 52.046 C 84.155 51.673,84.079 52.070,84.083 52.930 M95.066 55.469 C 95.066 57.725,95.131 58.647,95.210 57.520 C 95.289 56.392,95.289 54.546,95.210 53.418 C 95.131 52.290,95.066 53.213,95.066 55.469 M311.049 59.570 C 311.052 60.645,311.128 61.038,311.218 60.444 C 311.308 59.850,311.305 58.971,311.212 58.491 C 311.120 58.010,311.046 58.496,311.049 59.570 M84.130 64.258 C 84.131 66.621,84.196 67.538,84.273 66.294 C 84.351 65.051,84.351 63.118,84.272 61.997 C 84.193 60.877,84.130 61.895,84.130 64.258 M322.027 66.211 C 322.027 69.004,322.090 70.095,322.165 68.636 C 322.240 67.177,322.240 64.892,322.164 63.558 C 322.088 62.224,322.026 63.418,322.027 66.211 M64.205 67.773 C 64.206 69.922,64.272 70.751,64.351 69.616 C 64.430 68.481,64.429 66.723,64.349 65.710 C 64.269 64.696,64.204 65.625,64.205 67.773 M115.625 84.542 C 115.625 88.464,115.542 89.027,114.941 89.184 C 114.427 89.318,114.475 89.374,115.137 89.408 C 116.002 89.452,116.016 89.380,116.016 84.766 C 116.016 82.188,115.928 80.078,115.820 80.078 C 115.713 80.078,115.625 82.087,115.625 84.542 M173.547 80.756 C 174.574 80.837,176.156 80.836,177.063 80.754 C 177.969 80.672,177.129 80.606,175.195 80.607 C 173.262 80.609,172.520 80.676,173.547 80.756 M222.559 80.761 C 225.620 80.827,230.630 80.827,233.691 80.761 C 236.753 80.695,234.248 80.641,228.125 80.641 C 222.002 80.641,219.497 80.695,222.559 80.761 M76.079 89.339 C 76.565 89.432,77.268 89.429,77.641 89.331 C 78.015 89.233,77.617 89.157,76.758 89.161 C 75.898 89.165,75.593 89.245,76.079 89.339 M292.681 89.343 C 293.275 89.433,294.154 89.430,294.634 89.337 C 295.115 89.245,294.629 89.171,293.555 89.174 C 292.480 89.177,292.087 89.253,292.681 89.343 M328.613 89.332 C 328.989 89.430,329.604 89.430,329.980 89.332 C 330.356 89.234,330.049 89.153,329.297 89.153 C 328.545 89.153,328.237 89.234,328.613 89.332 M105.941 93.824 L 105.859 98.000 104.395 98.153 L 102.930 98.306 104.407 98.372 C 106.261 98.454,106.310 98.318,106.151 93.527 L 106.023 89.648 105.941 93.824 M227.868 94.727 C 227.870 96.445,227.938 97.100,228.021 96.181 C 228.103 95.262,228.102 93.856,228.018 93.056 C 227.934 92.256,227.867 93.008,227.868 94.727 M93.462 98.327 C 94.056 98.417,94.935 98.415,95.416 98.322 C 95.896 98.229,95.410 98.156,94.336 98.159 C 93.262 98.162,92.869 98.237,93.462 98.327 M219.438 101.839 C 219.924 101.932,220.627 101.929,221.001 101.831 C 221.374 101.733,220.977 101.657,220.117 101.661 C 219.258 101.665,218.952 101.745,219.438 101.839 M311.381 127.028 C 311.352 128.465,311.460 129.723,311.621 129.823 C 311.782 129.923,311.863 129.098,311.801 127.991 C 311.615 124.661,311.438 124.255,311.381 127.028 M171.484 152.541 C 169.229 152.818,167.339 153.062,167.285 153.084 C 167.231 153.107,167.188 155.938,167.188 159.375 C 167.188 163.513,167.048 165.625,166.774 165.625 C 166.546 165.625,166.478 165.815,166.621 166.047 C 166.765 166.280,166.856 168.389,166.824 170.735 L 166.766 175.000 177.328 175.000 L 187.891 175.000 187.891 180.078 L 187.891 185.156 192.979 185.156 L 198.067 185.156 197.959 179.199 L 197.852 173.242 193.066 173.269 L 188.281 173.296 188.281 168.679 L 188.281 164.063 182.823 164.063 L 177.364 164.063 177.256 158.105 C 177.131 151.165,177.760 151.772,171.484 152.541 M231.348 153.806 L 228.516 153.940 228.516 159.001 L 228.516 164.063 222.814 164.063 L 217.113 164.063 217.195 168.066 C 217.240 170.269,217.257 172.290,217.233 172.559 C 217.199 172.920,215.966 173.047,212.500 173.047 L 207.813 173.047 207.813 179.102 L 207.813 185.156 212.469 185.156 L 217.125 185.156 217.388 182.701 C 217.533 181.350,217.591 179.109,217.517 177.720 L 217.383 175.195 228.027 175.091 L 238.672 174.987 238.672 164.252 L 238.672 153.516 236.426 153.593 C 235.190 153.636,232.905 153.732,231.348 153.806 M77.051 158.492 C 78.286 158.569,80.308 158.569,81.543 158.492 C 82.778 158.414,81.768 158.351,79.297 158.351 C 76.826 158.351,75.815 158.414,77.051 158.492 M274.723 158.493 C 276.182 158.569,278.468 158.568,279.801 158.492 C 281.135 158.416,279.941 158.354,277.148 158.355 C 274.355 158.356,273.264 158.418,274.723 158.493 M323.535 158.488 C 324.341 158.572,325.659 158.572,326.465 158.488 C 327.271 158.403,326.611 158.334,325.000 158.334 C 323.389 158.334,322.729 158.403,323.535 158.488 M244.238 165.894 C 244.614 165.993,245.229 165.993,245.605 165.894 C 245.981 165.796,245.674 165.716,244.922 165.716 C 244.170 165.716,243.862 165.796,244.238 165.894 M256.353 165.905 C 256.947 165.995,257.826 165.993,258.306 165.900 C 258.787 165.807,258.301 165.734,257.227 165.737 C 256.152 165.740,255.759 165.816,256.353 165.905 M117.847 185.799 C 117.708 185.938,117.594 190.006,117.594 194.840 L 117.594 203.628 127.559 203.346 L 137.523 203.064 137.414 214.423 L 137.305 225.782 142.090 225.781 L 146.875 225.781 146.875 223.633 L 146.875 221.484 151.953 221.484 L 157.031 221.484 157.031 226.172 L 157.031 230.859 161.230 230.889 C 176.788 231.000,187.125 231.213,187.478 231.432 C 187.721 231.582,187.891 233.213,187.891 235.394 L 187.891 239.102 192.871 239.038 L 197.851 238.973 197.721 241.502 L 197.591 244.030 199.088 244.264 C 199.912 244.393,211.221 244.413,224.219 244.309 L 247.852 244.120 247.957 236.806 L 248.063 229.492 228.329 229.607 L 208.594 229.721 208.594 225.786 L 208.594 221.850 193.457 221.891 L 178.320 221.932 178.198 220.302 L 178.076 218.673 172.767 218.809 L 167.457 218.945 167.543 215.723 L 167.628 212.500 162.353 212.500 L 157.078 212.500 156.957 211.065 L 156.836 209.630 151.855 209.726 L 146.875 209.821 146.875 206.473 L 146.875 203.125 142.188 203.125 L 137.500 203.125 137.500 198.633 L 137.500 194.141 132.617 194.141 L 127.734 194.141 127.734 189.844 L 127.734 185.547 122.917 185.547 C 120.267 185.547,117.985 185.660,117.847 185.799 M117.703 207.422 C 117.703 208.818,117.774 209.390,117.861 208.691 C 117.947 207.993,117.947 206.851,117.861 206.152 C 117.774 205.454,117.703 206.025,117.703 207.422 M263.672 225.771 L 263.672 229.666 258.105 229.774 L 252.539 229.883 252.539 234.570 L 252.539 239.258 257.324 239.367 L 262.109 239.477 262.109 236.366 C 262.109 232.563,261.901 232.674,268.707 232.859 C 271.416 232.932,275.610 232.952,278.027 232.902 L 282.422 232.813 282.422 227.344 L 282.422 221.875 273.047 221.875 L 263.672 221.875 263.672 225.771 M272.416 259.180 C 272.339 259.395,272.230 261.592,272.173 264.063 L 272.070 268.555 267.865 268.593 C 262.789 268.639,263.308 268.099,263.184 273.467 L 263.080 277.930 260.739 278.125 L 258.398 278.320 258.292 285.449 L 258.186 292.578 261.502 292.578 L 264.818 292.578 264.929 288.184 L 265.039 283.789 271.109 283.927 C 274.448 284.002,278.361 283.938,279.806 283.783 L 282.433 283.502 282.330 271.192 L 282.227 258.883 277.392 258.836 C 274.479 258.808,272.501 258.944,272.416 259.180 M121.497 259.272 C 117.273 259.447,117.591 258.397,117.584 272.190 L 117.578 284.029 132.227 283.956 L 146.875 283.883 146.875 276.177 L 146.875 268.471 142.200 268.664 L 137.525 268.856 137.415 264.018 L 137.305 259.180 131.055 259.157 C 127.617 259.144,123.316 259.196,121.497 259.272 M161.230 267.479 L 157.031 267.605 157.031 276.712 L 157.031 285.820 184.473 286.166 C 199.565 286.356,213.145 286.468,214.648 286.414 C 216.152 286.360,224.326 286.187,232.813 286.029 L 248.242 285.742 248.354 281.934 L 248.466 278.125 218.374 278.125 L 188.281 278.125 188.281 273.571 L 188.281 269.018 177.734 269.250 L 167.188 269.483 167.188 268.335 C 167.188 267.381,167.039 267.201,166.309 267.270 C 165.825 267.316,163.540 267.410,161.230 267.479 M117.690 290.430 C 117.693 291.504,117.769 291.897,117.858 291.303 C 117.948 290.709,117.946 289.831,117.853 289.350 C 117.760 288.870,117.687 289.355,117.690 290.430 M121.387 292.463 C 121.870 292.556,122.661 292.556,123.145 292.463 C 123.628 292.370,123.232 292.294,122.266 292.294 C 121.299 292.294,120.903 292.370,121.387 292.463 M207.886 310.645 L 207.960 313.086 208.101 310.854 L 208.241 308.622 212.031 308.494 L 215.820 308.367 211.816 308.285 L 207.813 308.203 207.886 310.645 M188.016 319.922 C 188.016 321.318,188.087 321.890,188.173 321.191 C 188.260 320.493,188.260 319.351,188.173 318.652 C 188.087 317.954,188.016 318.525,188.016 319.922 M180.192 323.337 C 181.651 323.412,183.936 323.412,185.270 323.336 C 186.604 323.260,185.410 323.198,182.617 323.199 C 179.824 323.199,178.733 323.262,180.192 323.337 M328.418 369.807 C 328.901 369.900,329.692 369.900,330.176 369.807 C 330.659 369.714,330.264 369.638,329.297 369.638 C 328.330 369.638,327.935 369.714,328.418 369.807 " stroke="none" fill="#176eab" fill-rule="evenodd"></path><path id="path4" d="M87.212 129.968 C 87.806 130.058,88.685 130.055,89.166 129.962 C 89.646 129.870,89.160 129.796,88.086 129.799 C 87.012 129.802,86.619 129.878,87.212 129.968 M314.371 129.977 C 315.722 130.054,317.831 130.053,319.058 129.976 C 320.285 129.898,319.180 129.836,316.602 129.837 C 314.023 129.837,313.020 129.901,314.371 129.977 M156.842 166.006 C 156.708 166.223,156.721 168.335,156.870 170.700 L 157.142 175.000 161.944 175.000 L 166.745 175.000 166.869 171.063 C 167.047 165.394,167.336 165.701,161.771 165.653 C 158.995 165.628,156.986 165.772,156.842 166.006 M242.480 165.894 L 238.672 166.044 238.672 170.516 L 238.672 174.987 228.027 175.091 L 217.383 175.195 217.517 177.720 C 217.591 179.109,217.533 181.350,217.388 182.701 L 217.125 185.156 212.469 185.156 L 207.813 185.156 207.813 189.648 L 207.813 194.141 239.587 194.141 L 271.362 194.141 271.619 188.219 C 271.760 184.962,271.875 180.656,271.875 178.649 L 271.875 175.000 266.016 175.000 L 260.156 175.000 260.156 170.726 C 260.156 168.023,259.997 166.354,259.724 166.185 C 259.214 165.870,247.942 165.680,242.480 165.894 M177.513 175.512 C 177.405 175.794,177.367 178.035,177.428 180.493 L 177.539 184.961 182.713 184.961 L 187.887 184.961 187.889 179.980 L 187.891 175.000 182.800 175.000 C 178.962 175.000,177.662 175.126,177.513 175.512 M123.410 203.417 L 117.718 203.536 117.784 214.286 C 117.822 220.627,118.005 225.192,118.229 225.416 C 118.459 225.647,122.281 225.755,127.956 225.691 L 137.305 225.586 137.408 214.355 L 137.512 203.125 133.307 203.211 C 130.994 203.259,126.540 203.351,123.410 203.417 M159.668 231.147 C 160.796 231.226,162.642 231.226,163.770 231.147 C 164.897 231.068,163.975 231.004,161.719 231.004 C 159.463 231.004,158.540 231.068,159.668 231.147 M170.597 231.141 C 171.290 231.228,172.521 231.229,173.331 231.144 C 174.142 231.060,173.574 230.989,172.070 230.988 C 170.566 230.986,169.903 231.055,170.597 231.141 M177.344 235.297 L 177.344 239.571 181.152 239.319 C 183.247 239.180,185.620 239.066,186.426 239.065 L 187.891 239.063 187.891 235.339 C 187.891 230.966,188.401 231.337,182.129 231.159 L 177.344 231.024 177.344 235.297 M223.315 244.433 C 227.007 244.497,233.159 244.497,236.987 244.433 C 240.814 244.369,237.793 244.317,230.273 244.316 C 222.754 244.316,219.622 244.369,223.315 244.433 M130.902 283.887 L 117.467 283.995 117.742 287.985 C 117.893 290.180,118.191 292.083,118.403 292.214 C 118.615 292.346,125.064 292.437,132.734 292.418 L 146.680 292.383 146.740 288.281 C 146.802 284.013,146.629 283.525,145.117 283.692 C 144.688 283.740,138.290 283.827,130.902 283.887 M265.007 283.952 C 264.917 284.041,264.844 286.019,264.844 288.346 L 264.844 292.578 273.610 292.578 C 278.431 292.578,282.466 292.432,282.576 292.254 C 282.686 292.076,282.673 290.098,282.546 287.860 L 282.315 283.789 273.743 283.789 C 269.028 283.789,265.097 283.862,265.007 283.952 M196.777 286.620 C 199.624 286.687,204.282 286.687,207.129 286.620 C 209.976 286.553,207.646 286.499,201.953 286.499 C 196.260 286.499,193.931 286.553,196.777 286.620 M167.692 314.743 C 169.151 314.819,171.436 314.818,172.770 314.742 C 174.104 314.666,172.910 314.604,170.117 314.605 C 167.324 314.606,166.233 314.668,167.692 314.743 " stroke="none" fill="#33b3f3" fill-rule="evenodd"></path><path id="path5" d="M74.609 116.397 L 74.609 120.685 90.222 120.435 L 105.834 120.186 105.945 125.035 L 106.055 129.883 110.547 129.782 C 116.491 129.648,116.016 130.063,116.016 125.012 C 116.016 121.176,116.091 120.701,116.699 120.685 C 117.075 120.675,119.316 120.631,121.680 120.587 L 125.977 120.508 126.087 116.309 L 126.198 112.109 100.404 112.109 L 74.609 112.109 74.609 116.397 M280.469 116.406 L 280.469 120.703 285.925 120.703 L 291.381 120.703 291.491 125.098 L 291.602 129.492 296.179 129.602 L 300.756 129.712 300.866 125.110 L 300.977 120.508 315.820 120.485 C 323.984 120.472,330.884 120.428,331.152 120.387 C 331.507 120.333,331.641 119.192,331.641 116.211 L 331.641 112.109 306.055 112.109 L 280.469 112.109 280.469 116.406 M55.078 130.664 L 55.078 139.453 64.551 139.453 L 74.023 139.452 74.113 130.664 L 74.202 121.875 64.640 121.875 L 55.078 121.875 55.078 130.664 M331.776 127.816 C 331.916 131.062,332.031 135.011,332.031 136.590 L 332.031 139.463 346.191 139.360 L 360.352 139.258 360.464 135.428 L 360.576 131.599 355.971 131.668 L 351.367 131.737 351.172 126.904 L 350.977 122.070 341.248 121.992 L 331.520 121.913 331.776 127.816 M95.313 134.777 L 95.313 139.476 100.488 139.367 L 105.664 139.258 105.774 134.668 L 105.884 130.078 100.598 130.078 L 95.313 130.078 95.313 134.777 M301.125 131.543 C 301.051 133.891,301.050 134.435,301.112 137.012 L 301.172 139.453 306.055 139.453 L 310.938 139.453 310.938 134.766 L 310.938 130.078 306.055 130.078 L 301.172 130.078 301.125 131.543 M127.650 153.418 L 127.539 157.617 125.586 157.709 C 124.512 157.760,122.358 157.907,120.801 158.036 L 117.969 158.270 117.969 162.729 L 117.969 167.188 122.611 167.188 C 128.196 167.188,127.620 166.074,127.680 176.986 L 127.727 185.326 135.836 185.222 C 140.296 185.164,144.536 185.015,145.258 184.890 C 147.008 184.587,147.155 184.920,147.238 189.386 C 147.323 193.973,146.798 193.555,152.475 193.555 L 157.227 193.555 157.341 196.375 L 157.456 199.195 162.224 199.305 L 166.992 199.414 167.026 201.367 L 167.059 203.320 177.659 203.424 L 188.258 203.528 188.367 208.502 L 188.477 213.477 189.746 213.455 C 190.444 213.443,211.494 213.399,236.523 213.357 L 282.031 213.281 282.031 208.405 L 282.031 203.530 291.504 203.425 L 300.977 203.320 301.085 198.401 L 301.194 193.482 305.773 193.516 C 311.096 193.556,310.829 193.830,310.356 188.784 L 310.090 185.938 305.435 185.938 L 300.781 185.938 300.776 181.934 C 300.767 175.526,301.025 175.808,295.421 176.081 L 291.428 176.275 291.320 181.399 L 291.211 186.523 286.635 186.633 L 282.059 186.743 281.948 190.540 L 281.836 194.336 276.758 194.531 L 271.680 194.727 271.655 195.801 C 271.642 196.392,271.598 198.370,271.558 200.197 L 271.484 203.520 234.668 203.420 L 197.852 203.320 197.742 198.730 L 197.631 194.141 187.683 194.141 L 177.734 194.141 177.731 191.504 C 177.729 190.054,177.617 187.947,177.482 186.823 L 177.236 184.779 167.232 184.674 L 157.227 184.570 157.116 179.951 L 157.006 175.331 147.307 175.458 L 137.609 175.586 137.359 170.935 C 137.058 165.323,137.034 159.244,137.311 158.522 C 137.468 158.113,138.452 158.028,141.722 158.140 C 145.227 158.260,146.018 158.179,146.451 157.658 C 146.883 157.136,147.906 157.031,152.543 157.031 L 158.114 157.031 158.312 155.762 C 158.421 155.063,158.415 153.306,158.300 151.855 L 158.090 149.219 142.925 149.219 L 127.761 149.219 127.650 153.418 M240.668 149.899 L 238.563 150.045 238.810 152.659 C 238.946 154.097,239.058 155.801,239.059 156.445 L 239.062 157.617 250.070 157.499 C 259.697 157.395,261.121 157.457,261.418 157.987 C 261.697 158.485,262.631 158.594,266.621 158.594 L 271.484 158.594 271.484 154.102 L 271.484 149.609 257.129 149.682 C 249.233 149.721,241.826 149.819,240.668 149.899 M108.594 196.875 L 108.594 199.219 104.115 199.219 C 98.801 199.219,98.828 199.196,98.828 203.685 L 98.828 206.641 94.141 206.641 L 89.453 206.641 89.453 214.453 L 89.453 222.266 91.699 222.303 C 92.935 222.324,95.000 222.368,96.289 222.401 L 98.633 222.461 98.828 227.344 L 99.023 232.227 103.809 232.336 L 108.594 232.446 108.594 236.386 L 108.594 240.326 113.184 240.182 L 117.773 240.039 117.969 242.773 L 118.164 245.508 132.396 245.406 C 148.818 245.289,147.301 244.819,147.220 250.000 L 147.163 253.711 162.449 253.575 L 177.734 253.438 177.734 256.446 L 177.734 259.455 187.695 259.168 L 197.656 258.882 197.656 261.472 L 197.656 264.063 217.969 264.063 L 238.281 264.063 238.339 263.184 C 238.371 262.700,238.415 261.612,238.437 260.766 L 238.477 259.227 250.391 259.203 L 262.305 259.180 262.419 256.152 L 262.533 253.125 267.189 253.125 L 271.846 253.125 271.958 249.512 L 272.070 245.898 276.953 245.703 L 281.836 245.508 281.726 242.676 L 281.616 239.844 286.023 239.838 C 288.447 239.834,290.656 239.688,290.932 239.513 C 291.538 239.128,291.434 233.226,290.820 233.167 C 289.369 233.029,263.458 233.310,263.047 233.468 C 262.697 233.602,262.495 234.627,262.418 236.657 L 262.305 239.648 257.265 239.519 L 252.225 239.390 252.468 241.988 L 252.710 244.587 250.476 244.482 L 248.242 244.377 248.047 248.458 L 247.852 252.539 222.774 252.640 L 197.697 252.740 197.579 250.686 L 197.461 248.633 187.603 248.528 C 176.172 248.407,177.409 249.048,177.246 243.164 L 177.148 239.648 175.195 239.653 C 174.121 239.656,169.601 239.798,165.150 239.971 L 157.057 240.283 156.947 235.864 L 156.836 231.445 153.711 231.586 C 151.992 231.664,149.707 231.914,148.633 232.143 C 147.535 232.376,140.395 232.618,132.324 232.695 L 117.969 232.831 117.964 230.966 C 117.962 229.941,117.847 228.419,117.710 227.585 L 117.459 226.068 113.085 226.325 L 108.711 226.581 108.511 223.154 C 108.276 219.107,108.530 203.935,108.842 203.430 C 108.961 203.238,110.667 203.102,112.634 203.128 C 114.601 203.154,116.519 203.164,116.895 203.150 C 117.495 203.128,117.578 202.680,117.578 199.446 C 117.578 194.239,117.859 194.531,112.849 194.531 L 108.594 194.531 108.594 196.875 M301.082 283.496 L 300.977 292.383 296.191 292.492 L 291.406 292.602 291.406 296.106 L 291.406 299.609 280.664 299.609 C 272.366 299.609,269.907 299.720,269.856 300.098 C 269.820 300.366,269.777 301.113,269.759 301.758 L 269.727 302.930 264.160 302.916 C 260.623 302.907,258.564 303.049,258.513 303.306 C 258.469 303.529,258.425 305.381,258.416 307.422 L 258.398 311.133 243.287 311.235 L 228.175 311.337 228.052 310.063 L 227.930 308.789 222.763 308.680 L 217.595 308.571 217.489 315.907 L 217.383 323.242 212.976 323.291 C 207.691 323.351,207.813 323.466,207.813 318.385 L 207.813 314.844 202.930 314.844 L 198.047 314.844 198.047 323.633 L 198.047 332.422 187.950 332.422 L 177.854 332.422 177.604 328.066 C 177.467 325.670,177.272 323.626,177.170 323.524 C 177.068 323.422,172.539 323.317,167.105 323.290 L 157.227 323.242 157.116 319.094 L 157.006 314.946 147.423 314.659 C 142.153 314.502,137.775 314.438,137.695 314.519 C 137.614 314.599,137.514 317.737,137.471 321.493 L 137.394 328.320 142.232 328.516 L 147.070 328.711 147.070 331.445 L 147.070 334.180 152.031 334.122 L 156.992 334.064 157.109 335.880 L 157.227 337.695 187.030 337.727 C 207.986 337.749,216.914 337.633,217.108 337.336 C 217.259 337.104,217.344 335.115,217.296 332.916 L 217.209 328.919 227.843 328.815 L 238.477 328.711 238.591 325.689 L 238.705 322.668 250.505 322.564 L 262.305 322.461 262.420 319.824 L 262.536 317.188 272.072 317.188 L 281.608 317.188 281.722 314.160 L 281.836 311.133 286.621 311.023 L 291.406 310.913 291.406 309.168 L 291.406 307.422 294.824 307.379 C 296.704 307.355,298.647 307.369,299.142 307.409 C 300.847 307.549,301.246 306.765,301.110 303.539 L 300.986 300.586 305.864 300.391 L 310.742 300.195 310.853 296.009 L 310.964 291.822 315.345 291.712 L 319.727 291.602 319.727 287.695 L 319.727 283.789 315.137 283.679 L 310.547 283.569 310.542 279.968 C 310.533 274.271,310.843 274.609,305.626 274.609 L 301.187 274.609 301.082 283.496 M99.018 275.879 C 98.921 276.147,98.795 277.949,98.737 279.883 L 98.633 283.398 94.043 283.508 L 89.453 283.619 89.453 291.963 C 89.453 298.284,89.572 300.350,89.941 300.483 C 90.210 300.580,92.250 300.676,94.474 300.696 C 99.298 300.739,98.908 300.440,98.893 304.075 L 98.882 307.031 103.484 307.031 L 108.087 307.031 108.338 303.809 C 108.476 302.036,108.590 294.917,108.591 287.988 L 108.594 275.391 103.894 275.391 C 100.489 275.391,99.146 275.525,99.018 275.879 " stroke="none" fill="#fbd507" fill-rule="evenodd"></path></g></svg>